<svg width="120" height="121" viewBox="0 0 120 121" fill="none" xmlns="http://www.w3.org/2000/svg">
<g opacity="0.5">
<path d="M119.854 45.2582C119.838 45.2181 119.836 45.1761 119.816 45.1361C119.73 44.9593 119.619 44.7962 119.486 44.6521L95.5044 18.677C95.3781 18.534 95.2321 18.4102 95.0703 18.309C95.0659 18.309 95.0635 18.309 95.0628 18.309H95.0605C94.7309 18.1114 94.3548 18.0045 93.9704 17.9989H26.0314C25.6554 18.0005 25.2865 18.1006 24.9614 18.2888C24.7999 18.3901 24.6536 18.5141 24.5273 18.6568L0.530221 44.6441C0.481703 44.7114 0.438342 44.7824 0.400137 44.8562C0.321618 44.964 0.254115 45.0791 0.198097 45.2003C0.150048 45.3158 0.113249 45.4356 0.0881702 45.5582C0.0567625 45.6815 0.0375429 45.8073 0.030277 45.9341C0.0262924 46.0612 0.0344959 46.1885 0.0541843 46.3141C0.07106 46.4374 0.0998894 46.5585 0.140204 46.6762C0.190128 46.8032 0.252943 46.9244 0.328181 47.0383C0.361464 47.1129 0.399434 47.1848 0.442092 47.2544L58.4448 119.258C58.4748 119.296 58.5188 119.308 58.5507 119.344C58.5828 119.38 58.6306 119.434 58.6747 119.474C58.7188 119.514 58.7167 119.538 58.7467 119.562H58.7666L58.7865 119.582C58.8024 119.594 58.8245 119.6 58.8425 119.612C58.907 119.651 58.9738 119.688 59.0425 119.72C59.1072 119.758 59.174 119.793 59.2424 119.824H59.2583C59.2923 119.838 59.3223 119.866 59.3563 119.878C59.3903 119.89 59.4184 119.878 59.4463 119.892C59.4742 119.906 59.4883 119.918 59.5124 119.924C59.6694 119.963 59.8305 119.984 59.9924 119.984H60.0203C60.1823 119.983 60.3433 119.963 60.5003 119.924C60.5242 119.924 60.5423 119.9 60.5664 119.892C60.5903 119.884 60.6283 119.892 60.6564 119.878C60.6843 119.864 60.7204 119.838 60.7544 119.824H60.7704C60.8388 119.793 60.9056 119.758 60.9703 119.72C61.039 119.688 61.1058 119.651 61.1702 119.612C61.1861 119.6 61.2103 119.596 61.2262 119.582L61.2462 119.562H61.2661C61.2961 119.538 61.3101 119.5 61.338 119.474C61.3662 119.448 61.4201 119.388 61.462 119.344C61.504 119.3 61.538 119.296 61.568 119.258L119.571 47.2544C119.649 47.1464 119.716 47.0304 119.771 46.9085C119.791 46.8705 119.819 46.8365 119.837 46.7986C119.925 46.5888 119.977 46.3656 119.991 46.1385C119.994 46.0813 119.994 46.0239 119.991 45.9665C119.988 45.7884 119.961 45.6114 119.911 45.4405C119.896 45.3784 119.877 45.3175 119.854 45.2582ZM94.3224 23.2953L113.435 44.0002H81.58L94.3224 23.2953ZM90.4222 21.9992L77.9037 42.3441L63.8171 21.9992H90.4222ZM74.1835 44.0002H60.0009H45.8182L60.0009 23.5133L74.1835 44.0002ZM56.1846 21.9992L42.098 42.3441L29.5795 21.9992H56.1846ZM64.201 109.603L72.6314 76.5036C72.8339 75.8026 72.6387 75.0469 72.1221 74.532C71.6055 74.017 70.8492 73.8239 70.1488 74.0288C69.4485 74.2336 68.9152 74.8034 68.7573 75.5157L60.0009 109.903L51.2384 75.5019C51.0804 74.7896 50.5472 74.2196 49.8468 74.0149C49.1465 73.8101 48.3903 74.003 47.8735 74.5182C47.3567 75.0333 47.1615 75.789 47.3642 76.4898L55.8007 109.603L4.6383 46.0884L25.6793 23.2953L38.4219 44.0002H11.9987C10.894 44.0002 9.99869 44.8956 9.99869 46.0002C9.99869 47.1049 10.894 48.0002 11.9987 48.0002H40.428L45.4162 68.4752C45.6347 69.3706 46.4367 70.0009 47.3583 70.0013C47.518 70.0013 47.6771 69.9826 47.8323 69.9453C48.3479 69.8199 48.7928 69.4946 49.0684 69.0408C49.3441 68.5873 49.4282 68.0428 49.3023 67.5271L44.5462 48.0002H75.4555L70.6994 67.5271C70.5733 68.0428 70.6574 68.5873 70.9333 69.0408C71.2092 69.4943 71.6538 69.8197 72.1695 69.9453C72.3246 69.9826 72.4838 70.0013 72.6434 70.0013C73.565 70.0009 74.3671 69.3706 74.5855 68.4752L79.5737 48.0002H113.823L64.201 109.603Z" fill="#1C1B1A"/>
<path d="M24.1694 105.553L17.615 102.387L14.4508 95.8326C14.1166 95.1425 13.4174 94.7042 12.6507 94.7042C11.884 94.7042 11.1849 95.1425 10.8506 95.8326L7.68644 102.387L1.12833 105.549C0.438301 105.883 0 106.582 0 107.349C0 108.116 0.438301 108.815 1.12833 109.149V109.153L7.68667 112.317L10.8488 118.874C11.183 119.564 11.8822 120.002 12.6488 120.002C13.4155 120.002 14.1147 119.564 14.4489 118.874L17.6131 112.317L24.1694 109.153C24.8594 108.819 25.2977 108.12 25.2977 107.353C25.2977 106.586 24.8594 105.887 24.1694 105.553ZM15.247 109.017C14.8399 109.214 14.5115 109.542 14.3149 109.949L12.6488 113.404L10.9847 109.953C10.7883 109.546 10.4597 109.218 10.0526 109.021L6.59842 107.351L10.0526 105.687C10.4602 105.491 10.789 105.163 10.9847 104.755L12.6488 101.305L14.3149 104.755C14.5113 105.162 14.8399 105.49 15.247 105.687L18.6993 107.351L15.247 109.017Z" fill="#1C1B1A"/>
<path d="M95.8305 14.4489V14.4529L102.387 17.615L105.551 24.1694C105.885 24.8594 106.584 25.2977 107.351 25.2977C108.118 25.2977 108.817 24.8594 109.151 24.1694L112.313 17.615L118.872 14.4529C119.562 14.1187 120 13.4195 120 12.6528C120 11.8862 119.562 11.187 118.872 10.8528L112.315 7.68456L109.153 1.12833C108.819 0.438301 108.12 0 107.353 0C106.586 0 105.887 0.438301 105.553 1.12833L102.387 7.68456L95.8305 10.8488C95.1404 11.183 94.7021 11.8822 94.7021 12.6488C94.7021 13.4155 95.1404 14.1147 95.8305 14.4489ZM104.755 10.9847C105.162 10.7883 105.49 10.4597 105.687 10.0526L107.353 6.59842L109.017 10.0486C109.214 10.4557 109.542 10.7841 109.949 10.9807L113.4 12.6467L109.949 14.3109C109.542 14.5066 109.213 14.8352 109.017 15.243L107.353 18.6932L105.687 15.243C105.491 14.8359 105.162 14.5075 104.755 14.3109L101.303 12.6507L104.755 10.9847Z" fill="#1C1B1A"/>
<path d="M112.175 101.549L105.619 98.3865L102.455 91.8322C102.121 91.1422 101.421 90.7039 100.655 90.7039C99.888 90.7039 99.1889 91.1422 98.8546 91.8322L95.6925 98.3865L89.1342 101.549C88.4442 101.883 88.0059 102.582 88.0059 103.349C88.0059 104.115 88.4442 104.815 89.1342 105.149L95.6925 108.313L98.8546 114.869C99.1889 115.559 99.888 115.998 100.655 115.998C101.421 115.998 102.121 115.559 102.455 114.869L105.619 108.313L112.175 105.149C112.865 104.815 113.304 104.115 113.304 103.349C113.304 102.582 112.865 101.883 112.175 101.549ZM103.251 105.017C102.844 105.213 102.515 105.542 102.319 105.949L100.653 109.403L98.9887 105.953C98.7923 105.546 98.4637 105.217 98.0565 105.021L94.6024 103.351L98.0526 101.687C98.4602 101.491 98.789 101.162 98.9847 100.755L100.649 97.3044L102.315 100.755C102.511 101.162 102.84 101.49 103.247 101.687L106.699 103.351L103.251 105.017Z" fill="#1C1B1A"/>
</g>
</svg>
