<svg width="85" height="85" viewBox="0 0 85 85" fill="none" xmlns="http://www.w3.org/2000/svg">
<g opacity="0.5">
<mask id="path-1-inside-1" fill="white">
<path d="M84.5486 32.078C84.5374 32.0498 84.5359 32.0203 84.5219 31.992C84.4616 31.8676 84.3832 31.7527 84.2895 31.6512L67.4009 13.3584C67.3119 13.2577 67.2091 13.1705 67.0952 13.0992C67.092 13.0992 67.0899 13.0992 67.0899 13.0992H67.0882C66.8562 12.9601 66.5912 12.8848 66.3205 12.8809H18.4749C18.2101 12.882 17.9503 12.9525 17.7214 13.085C17.6076 13.1564 17.5046 13.2437 17.4157 13.3442L0.515859 31.6456C0.481691 31.6929 0.451154 31.743 0.424248 31.795C0.368951 31.8709 0.321413 31.9519 0.281962 32.0373C0.248124 32.1186 0.222209 32.203 0.204547 32.2893C0.182428 32.3761 0.168893 32.4648 0.163776 32.5541C0.16097 32.6435 0.166747 32.7332 0.180613 32.8217C0.192497 32.9085 0.2128 32.9938 0.241191 33.0767C0.27635 33.1661 0.320588 33.2515 0.373573 33.3317C0.397012 33.3842 0.423753 33.4349 0.453795 33.4839L41.3018 84.1917C41.323 84.2185 41.354 84.2269 41.3764 84.2523C41.3991 84.2777 41.4327 84.3157 41.4638 84.3439C41.4948 84.3722 41.4933 84.389 41.5144 84.4058H41.5285L41.5425 84.4199C41.5537 84.4283 41.5692 84.4326 41.582 84.441C41.6273 84.469 41.6744 84.4945 41.7228 84.5171C41.7683 84.5442 41.8154 84.5686 41.8636 84.5904H41.8748C41.8987 84.6003 41.9198 84.6199 41.9438 84.6283C41.9677 84.6367 41.9875 84.6283 42.0072 84.6382C42.0268 84.6481 42.0367 84.6566 42.0537 84.6609C42.1643 84.6888 42.2777 84.7029 42.3918 84.7031H42.4114C42.5255 84.7028 42.6389 84.6888 42.7495 84.6609C42.7663 84.6609 42.779 84.644 42.796 84.6382C42.8128 84.6326 42.8396 84.6382 42.8594 84.6283C42.879 84.6184 42.9045 84.6001 42.9284 84.5904H42.9396C42.9878 84.5686 43.0349 84.5442 43.0804 84.5171C43.1288 84.4945 43.1758 84.469 43.2212 84.441C43.2324 84.4326 43.2494 84.4298 43.2607 84.4199L43.2747 84.4058H43.2887C43.3098 84.389 43.3198 84.3621 43.3394 84.3439C43.3592 84.3256 43.3972 84.2833 43.4267 84.2523C43.4563 84.2213 43.4802 84.2185 43.5013 84.1917L84.3494 33.4839C84.4047 33.4078 84.4519 33.3261 84.4902 33.2403C84.5042 33.2135 84.524 33.1896 84.5367 33.1628C84.5986 33.0151 84.6353 32.858 84.6452 32.698C84.6473 32.6577 84.6473 32.6173 84.6452 32.5769C84.6432 32.4514 84.6242 32.3268 84.5889 32.2065C84.5785 32.1627 84.5649 32.1198 84.5486 32.078ZM66.5684 16.6108L80.0286 31.1921H57.5947L66.5684 16.6108ZM63.8218 15.698L55.0057 30.0258L45.0853 15.698H63.8218ZM52.3858 31.1921H42.3977H32.4096L42.3977 16.7643L52.3858 31.1921ZM39.7101 15.698L29.7897 30.0258L20.9736 15.698H39.7101ZM45.3557 77.3926L51.2927 54.0825C51.4353 53.5888 51.2978 53.0566 50.934 52.694C50.5702 52.3313 50.0376 52.1953 49.5443 52.3396C49.0511 52.4838 48.6756 52.8851 48.5644 53.3867L42.3977 77.604L36.2268 53.377C36.1155 52.8754 35.74 52.4739 35.2468 52.3298C34.7536 52.1855 34.2211 52.3214 33.8571 52.6842C33.4931 53.047 33.3556 53.5792 33.4984 54.0727L39.4397 77.3927L3.40895 32.6627L18.227 16.6108L27.2009 31.1921H8.59247C7.81452 31.1921 7.18397 31.8227 7.18397 32.6006C7.18397 33.3786 7.81452 34.0091 8.59247 34.0091H28.6137L32.1266 48.4285C32.2804 49.0591 32.8452 49.5029 33.4943 49.5033C33.6067 49.5033 33.7188 49.49 33.828 49.4638C34.1912 49.3755 34.5045 49.1464 34.6986 48.8268C34.8927 48.5074 34.952 48.124 34.8633 47.7608L31.5138 34.0091H53.2816L49.9321 47.7608C49.8433 48.124 49.9025 48.5074 50.0968 48.8268C50.2911 49.1462 50.6042 49.3753 50.9674 49.4638C51.0766 49.49 51.1887 49.5033 51.3011 49.5033C51.9502 49.5029 52.515 49.0591 52.6688 48.4285L56.1818 34.0091H80.3018L45.3557 77.3926Z"/>
</mask>
<path d="M84.5486 32.078C84.5374 32.0498 84.5359 32.0203 84.5219 31.992C84.4616 31.8676 84.3832 31.7527 84.2895 31.6512L67.4009 13.3584C67.3119 13.2577 67.2091 13.1705 67.0952 13.0992C67.092 13.0992 67.0899 13.0992 67.0899 13.0992H67.0882C66.8562 12.9601 66.5912 12.8848 66.3205 12.8809H18.4749C18.2101 12.882 17.9503 12.9525 17.7214 13.085C17.6076 13.1564 17.5046 13.2437 17.4157 13.3442L0.515859 31.6456C0.481691 31.6929 0.451154 31.743 0.424248 31.795C0.368951 31.8709 0.321413 31.9519 0.281962 32.0373C0.248124 32.1186 0.222209 32.203 0.204547 32.2893C0.182428 32.3761 0.168893 32.4648 0.163776 32.5541C0.16097 32.6435 0.166747 32.7332 0.180613 32.8217C0.192497 32.9085 0.2128 32.9938 0.241191 33.0767C0.27635 33.1661 0.320588 33.2515 0.373573 33.3317C0.397012 33.3842 0.423753 33.4349 0.453795 33.4839L41.3018 84.1917C41.323 84.2185 41.354 84.2269 41.3764 84.2523C41.3991 84.2777 41.4327 84.3157 41.4638 84.3439C41.4948 84.3722 41.4933 84.389 41.5144 84.4058H41.5285L41.5425 84.4199C41.5537 84.4283 41.5692 84.4326 41.582 84.441C41.6273 84.469 41.6744 84.4945 41.7228 84.5171C41.7683 84.5442 41.8154 84.5686 41.8636 84.5904H41.8748C41.8987 84.6003 41.9198 84.6199 41.9438 84.6283C41.9677 84.6367 41.9875 84.6283 42.0072 84.6382C42.0268 84.6481 42.0367 84.6566 42.0537 84.6609C42.1643 84.6888 42.2777 84.7029 42.3918 84.7031H42.4114C42.5255 84.7028 42.6389 84.6888 42.7495 84.6609C42.7663 84.6609 42.779 84.644 42.796 84.6382C42.8128 84.6326 42.8396 84.6382 42.8594 84.6283C42.879 84.6184 42.9045 84.6001 42.9284 84.5904H42.9396C42.9878 84.5686 43.0349 84.5442 43.0804 84.5171C43.1288 84.4945 43.1758 84.469 43.2212 84.441C43.2324 84.4326 43.2494 84.4298 43.2607 84.4199L43.2747 84.4058H43.2887C43.3098 84.389 43.3198 84.3621 43.3394 84.3439C43.3592 84.3256 43.3972 84.2833 43.4267 84.2523C43.4563 84.2213 43.4802 84.2185 43.5013 84.1917L84.3494 33.4839C84.4047 33.4078 84.4519 33.3261 84.4902 33.2403C84.5042 33.2135 84.524 33.1896 84.5367 33.1628C84.5986 33.0151 84.6353 32.858 84.6452 32.698C84.6473 32.6577 84.6473 32.6173 84.6452 32.5769C84.6432 32.4514 84.6242 32.3268 84.5889 32.2065C84.5785 32.1627 84.5649 32.1198 84.5486 32.078ZM66.5684 16.6108L80.0286 31.1921H57.5947L66.5684 16.6108ZM63.8218 15.698L55.0057 30.0258L45.0853 15.698H63.8218ZM52.3858 31.1921H42.3977H32.4096L42.3977 16.7643L52.3858 31.1921ZM39.7101 15.698L29.7897 30.0258L20.9736 15.698H39.7101ZM45.3557 77.3926L51.2927 54.0825C51.4353 53.5888 51.2978 53.0566 50.934 52.694C50.5702 52.3313 50.0376 52.1953 49.5443 52.3396C49.0511 52.4838 48.6756 52.8851 48.5644 53.3867L42.3977 77.604L36.2268 53.377C36.1155 52.8754 35.74 52.4739 35.2468 52.3298C34.7536 52.1855 34.2211 52.3214 33.8571 52.6842C33.4931 53.047 33.3556 53.5792 33.4984 54.0727L39.4397 77.3927L3.40895 32.6627L18.227 16.6108L27.2009 31.1921H8.59247C7.81452 31.1921 7.18397 31.8227 7.18397 32.6006C7.18397 33.3786 7.81452 34.0091 8.59247 34.0091H28.6137L32.1266 48.4285C32.2804 49.0591 32.8452 49.5029 33.4943 49.5033C33.6067 49.5033 33.7188 49.49 33.828 49.4638C34.1912 49.3755 34.5045 49.1464 34.6986 48.8268C34.8927 48.5074 34.952 48.124 34.8633 47.7608L31.5138 34.0091H53.2816L49.9321 47.7608C49.8433 48.124 49.9025 48.5074 50.0968 48.8268C50.2911 49.1462 50.6042 49.3753 50.9674 49.4638C51.0766 49.49 51.1887 49.5033 51.3011 49.5033C51.9502 49.5029 52.515 49.0591 52.6688 48.4285L56.1818 34.0091H80.3018L45.3557 77.3926Z" fill="#1C1B1A"/>
<path d="M84.5486 32.078L85.1074 31.8594L85.1061 31.8563L84.5486 32.078ZM84.5219 31.992L83.9818 32.2535L83.9846 32.2591L84.5219 31.992ZM84.2895 31.6512L83.8486 32.0582L83.8487 32.0583L84.2895 31.6512ZM67.4009 13.3584L66.9511 13.7558L66.96 13.7654L67.4009 13.3584ZM67.0952 13.0992L67.4136 12.5907L67.2675 12.4992H67.0952V13.0992ZM67.0882 13.0992L66.7797 13.6138L66.9221 13.6992H67.0882V13.0992ZM66.3205 12.8809L66.3293 12.2809H66.3205V12.8809ZM18.4749 12.8809V12.2809L18.4723 12.2809L18.4749 12.8809ZM17.7214 13.085L17.4207 12.5658L17.4116 12.5711L17.4026 12.5767L17.7214 13.085ZM17.4157 13.3442L17.8566 13.7513L17.865 13.7419L17.4157 13.3442ZM0.515859 31.6456L0.0750518 31.2385L0.0504453 31.2652L0.029228 31.2946L0.515859 31.6456ZM0.424248 31.795L0.909262 32.1482L0.936144 32.1113L0.957131 32.0707L0.424248 31.795ZM0.281962 32.0373L-0.262659 31.7855L-0.267563 31.7961L-0.27205 31.8069L0.281962 32.0373ZM0.204547 32.2893L0.785977 32.4374L0.789506 32.4236L0.792371 32.4096L0.204547 32.2893ZM0.163776 32.5541L-0.435241 32.5198L-0.435686 32.5275L-0.435929 32.5353L0.163776 32.5541ZM0.180613 32.8217L0.775182 32.7403L0.773378 32.7288L0.180613 32.8217ZM0.241191 33.0767L-0.326416 33.2712L-0.322102 33.2837L-0.317234 33.2961L0.241191 33.0767ZM0.373573 33.3317L0.921433 33.0871L0.901359 33.0421L0.874225 33.001L0.373573 33.3317ZM0.453795 33.4839L-0.0577908 33.7974L-0.0376452 33.8303L-0.0134574 33.8603L0.453795 33.4839ZM41.3018 84.1917L41.7726 83.8197L41.7691 83.8153L41.3018 84.1917ZM41.3764 84.2523L40.9267 84.6495L40.9282 84.6511L41.3764 84.2523ZM41.5144 84.4058L41.1405 84.8751L41.3046 85.0058H41.5144V84.4058ZM41.5285 84.4058L41.9527 83.9816L41.777 83.8058H41.5285V84.4058ZM41.5425 84.4199L41.1182 84.8441L41.1484 84.8743L41.1825 84.8999L41.5425 84.4199ZM41.582 84.441L41.2506 84.9412L41.2585 84.9464L41.2665 84.9513L41.582 84.441ZM41.7228 84.5171L42.0293 84.0013L42.0038 83.9861L41.9769 83.9736L41.7228 84.5171ZM41.8636 84.5904L41.6164 85.1371L41.7342 85.1904H41.8636V84.5904ZM41.8748 84.5904L42.1042 84.036L41.994 83.9904H41.8748V84.5904ZM42.0537 84.6609L41.9069 85.2426L41.907 85.2426L42.0537 84.6609ZM42.3918 84.7031L42.3909 85.3031H42.3918V84.7031ZM42.4114 84.7031V85.3031L42.4131 85.3031L42.4114 84.7031ZM42.7495 84.6609V84.0609H42.6749L42.6027 84.0791L42.7495 84.6609ZM42.796 84.6382L42.6063 84.069L42.603 84.0701L42.796 84.6382ZM42.8594 84.6283L43.1277 85.165L43.1295 85.1641L42.8594 84.6283ZM42.9284 84.5904V83.9904H42.811L42.7023 84.0346L42.9284 84.5904ZM42.9396 84.5904V85.1904H43.0689L43.1868 85.1371L42.9396 84.5904ZM43.0804 84.5171L42.8263 83.9736L42.7994 83.9861L42.7739 84.0013L43.0804 84.5171ZM43.2212 84.441L43.5367 84.9513L43.5596 84.9372L43.5812 84.921L43.2212 84.441ZM43.2607 84.4199L43.6576 84.8698L43.6717 84.8574L43.6849 84.8441L43.2607 84.4199ZM43.2747 84.4058V83.8058H43.0262L42.8504 83.9816L43.2747 84.4058ZM43.2887 84.4058V85.0058H43.4985L43.6626 84.8751L43.2887 84.4058ZM43.3394 84.3439L43.7467 84.7845L43.7468 84.7844L43.3394 84.3439ZM43.5013 84.1917L43.0341 83.8153L43.0305 83.8198L43.5013 84.1917ZM84.3494 33.4839L84.8166 33.8603L84.826 33.8487L84.8347 33.8366L84.3494 33.4839ZM84.4902 33.2403L83.9589 32.9615L83.95 32.9784L83.9422 32.9958L84.4902 33.2403ZM84.5367 33.1628L85.0786 33.4204L85.0847 33.4077L85.0901 33.3947L84.5367 33.1628ZM84.6452 32.698L85.244 32.7351L85.2443 32.7299L84.6452 32.698ZM84.6452 32.5769L84.0452 32.5863L84.0454 32.5975L84.046 32.6087L84.6452 32.5769ZM84.5889 32.2065L84.0051 32.3452L84.0088 32.3605L84.0132 32.3755L84.5889 32.2065ZM66.5684 16.6108L67.0093 16.2038L66.4724 15.6222L66.0575 16.2964L66.5684 16.6108ZM80.0286 31.1921V31.7921H81.3991L80.4695 30.7852L80.0286 31.1921ZM57.5947 31.1921L57.0837 30.8777L56.5209 31.7921H57.5947V31.1921ZM63.8218 15.698L64.3328 16.0124L64.8954 15.098H63.8218V15.698ZM55.0057 30.0258L54.5124 30.3673L55.0353 31.1226L55.5167 30.3402L55.0057 30.0258ZM45.0853 15.698V15.098H43.9401L44.592 16.0396L45.0853 15.698ZM52.3858 31.1921V31.7921H53.5309L52.8791 30.8506L52.3858 31.1921ZM32.4096 31.1921L31.9163 30.8506L31.2645 31.7921H32.4096V31.1921ZM42.3977 16.7643L42.891 16.4228L42.3977 15.7102L41.9044 16.4228L42.3977 16.7643ZM39.7101 15.698L40.2034 16.0396L40.8553 15.098H39.7101V15.698ZM29.7897 30.0258L29.2787 30.3402L29.7601 31.1226L30.283 30.3673L29.7897 30.0258ZM20.9736 15.698V15.098H19.9L20.4626 16.0124L20.9736 15.698ZM45.3557 77.3926L44.7742 77.2445L45.8229 77.769L45.3557 77.3926ZM51.2927 54.0825L50.7163 53.916L50.7136 53.9251L50.7113 53.9344L51.2927 54.0825ZM48.5644 53.3867L49.1458 53.5348L49.1481 53.5257L49.1501 53.5166L48.5644 53.3867ZM42.3977 77.604L41.8163 77.7521L42.9791 77.7521L42.3977 77.604ZM36.2268 53.377L35.641 53.5069L35.643 53.516L35.6453 53.5251L36.2268 53.377ZM35.2468 52.3298L35.0783 52.9057L35.0785 52.9057L35.2468 52.3298ZM33.4984 54.0727L34.0798 53.9246L34.0775 53.9153L34.0748 53.906L33.4984 54.0727ZM39.4397 77.3927L38.9725 77.7691L40.0212 77.2446L39.4397 77.3927ZM3.40895 32.6627L2.96808 32.2557L2.61701 32.636L2.94169 33.0391L3.40895 32.6627ZM18.227 16.6108L18.7379 16.2963L18.323 15.6222L17.7861 16.2038L18.227 16.6108ZM27.2009 31.1921V31.7921H28.2747L27.7118 30.8777L27.2009 31.1921ZM28.6137 34.0091L29.1966 33.8671L29.085 33.4091H28.6137V34.0091ZM32.1266 48.4285L31.5436 48.5705L31.5437 48.5707L32.1266 48.4285ZM33.4943 49.5033L33.494 50.1032H33.4943V49.5033ZM33.828 49.4638L33.9682 50.0472L33.9698 50.0468L33.828 49.4638ZM34.6986 48.8268L34.1859 48.5152L34.1858 48.5153L34.6986 48.8268ZM34.8633 47.7608L34.2804 47.9028L34.2804 47.9031L34.8633 47.7608ZM31.5138 34.0091V33.4091H30.7502L30.9309 34.1511L31.5138 34.0091ZM53.2816 34.0091L53.8645 34.1511L54.0452 33.4091H53.2816V34.0091ZM49.9321 47.7608L50.5149 47.9034L50.515 47.9028L49.9321 47.7608ZM50.9674 49.4638L50.8253 50.0468L50.8272 50.0472L50.9674 49.4638ZM51.3011 49.5033V50.1032H51.3014L51.3011 49.5033ZM52.6688 48.4285L53.2517 48.5707L53.2518 48.5705L52.6688 48.4285ZM56.1818 34.0091V33.4091H55.7104L55.5988 33.8671L56.1818 34.0091ZM80.3018 34.0091L80.7691 34.3855L81.5556 33.4091H80.3018V34.0091ZM85.1061 31.8563C85.1147 31.878 85.1194 31.8946 85.121 31.9004C85.1215 31.9024 85.1231 31.9088 85.1191 31.8926C85.1146 31.8741 85.0981 31.8034 85.0592 31.725L83.9846 32.2591C83.9714 32.2325 83.9633 32.21 83.9587 32.1956C83.9545 32.1824 83.9524 32.1733 83.9534 32.1774C83.9536 32.1783 83.9539 32.1792 83.9543 32.1812C83.9548 32.1829 83.9554 32.1856 83.9561 32.1884C83.9575 32.1941 83.9596 32.2028 83.9624 32.2129C83.9678 32.2331 83.9769 32.264 83.9911 32.2997L85.1061 31.8563ZM85.0619 31.7306C84.9758 31.5528 84.8639 31.3888 84.7302 31.2441L83.8487 32.0583C83.9025 32.1166 83.9474 32.1824 83.9818 32.2535L85.0619 31.7306ZM84.7303 31.2442L67.8417 12.9514L66.96 13.7654L83.8486 32.0582L84.7303 31.2442ZM67.8505 12.9611C67.7233 12.8172 67.5763 12.6925 67.4136 12.5907L66.7768 13.6078C66.8419 13.6485 66.9005 13.6982 66.9512 13.7557L67.8505 12.9611ZM67.0952 12.4992C67.0952 12.4992 67.0952 12.4992 67.0952 12.4992C67.0951 12.4992 67.0951 12.4992 67.0951 12.4992C67.0951 12.4992 67.0951 12.4992 67.0951 12.4992C67.0951 12.4992 67.0951 12.4992 67.0951 12.4992C67.0951 12.4992 67.0951 12.4992 67.0951 12.4992C67.0951 12.4992 67.0951 12.4992 67.0951 12.4992C67.0951 12.4992 67.095 12.4992 67.095 12.4992C67.095 12.4992 67.095 12.4992 67.095 12.4992C67.095 12.4992 67.095 12.4992 67.095 12.4992C67.095 12.4992 67.095 12.4992 67.095 12.4992C67.095 12.4992 67.095 12.4992 67.095 12.4992C67.095 12.4992 67.095 12.4992 67.0949 12.4992C67.0949 12.4992 67.0949 12.4992 67.0949 12.4992C67.0949 12.4992 67.0949 12.4992 67.0949 12.4992C67.0949 12.4992 67.0949 12.4992 67.0949 12.4992C67.0949 12.4992 67.0949 12.4992 67.0949 12.4992C67.0949 12.4992 67.0949 12.4992 67.0949 12.4992C67.0949 12.4992 67.0948 12.4992 67.0948 12.4992C67.0948 12.4992 67.0948 12.4992 67.0948 12.4992C67.0948 12.4992 67.0948 12.4992 67.0948 12.4992C67.0948 12.4992 67.0948 12.4992 67.0948 12.4992C67.0948 12.4992 67.0948 12.4992 67.0948 12.4992C67.0948 12.4992 67.0948 12.4992 67.0947 12.4992C67.0947 12.4992 67.0947 12.4992 67.0947 12.4992C67.0947 12.4992 67.0947 12.4992 67.0947 12.4992C67.0947 12.4992 67.0947 12.4992 67.0947 12.4992C67.0947 12.4992 67.0947 12.4992 67.0947 12.4992C67.0947 12.4992 67.0947 12.4992 67.0947 12.4992C67.0947 12.4992 67.0947 12.4992 67.0946 12.4992C67.0946 12.4992 67.0946 12.4992 67.0946 12.4992C67.0946 12.4992 67.0946 12.4992 67.0946 12.4992C67.0946 12.4992 67.0946 12.4992 67.0946 12.4992C67.0946 12.4992 67.0946 12.4992 67.0946 12.4992C67.0946 12.4992 67.0946 12.4992 67.0946 12.4992C67.0946 12.4992 67.0945 12.4992 67.0945 12.4992C67.0945 12.4992 67.0945 12.4992 67.0945 12.4992C67.0945 12.4992 67.0945 12.4992 67.0945 12.4992C67.0945 12.4992 67.0945 12.4992 67.0945 12.4992C67.0945 12.4992 67.0945 12.4992 67.0945 12.4992C67.0945 12.4992 67.0945 12.4992 67.0945 12.4992C67.0944 12.4992 67.0944 12.4992 67.0944 12.4992C67.0944 12.4992 67.0944 12.4992 67.0944 12.4992C67.0944 12.4992 67.0944 12.4992 67.0944 12.4992C67.0944 12.4992 67.0944 12.4992 67.0944 12.4992C67.0944 12.4992 67.0944 12.4992 67.0944 12.4992C67.0944 12.4992 67.0944 12.4992 67.0943 12.4992C67.0943 12.4992 67.0943 12.4992 67.0943 12.4992C67.0943 12.4992 67.0943 12.4992 67.0943 12.4992C67.0943 12.4992 67.0943 12.4992 67.0943 12.4992C67.0943 12.4992 67.0943 12.4992 67.0943 12.4992C67.0943 12.4992 67.0943 12.4992 67.0943 12.4992C67.0943 12.4992 67.0943 12.4992 67.0942 12.4992C67.0942 12.4992 67.0942 12.4992 67.0942 12.4992C67.0942 12.4992 67.0942 12.4992 67.0942 12.4992C67.0942 12.4992 67.0942 12.4992 67.0942 12.4992C67.0942 12.4992 67.0942 12.4992 67.0942 12.4992C67.0942 12.4992 67.0942 12.4992 67.0942 12.4992C67.0942 12.4992 67.0941 12.4992 67.0941 12.4992C67.0941 12.4992 67.0941 12.4992 67.0941 12.4992C67.0941 12.4992 67.0941 12.4992 67.0941 12.4992C67.0941 12.4992 67.0941 12.4992 67.0941 12.4992C67.0941 12.4992 67.0941 12.4992 67.0941 12.4992C67.0941 12.4992 67.0941 12.4992 67.0941 12.4992C67.0941 12.4992 67.094 12.4992 67.094 12.4992C67.094 12.4992 67.094 12.4992 67.094 12.4992C67.094 12.4992 67.094 12.4992 67.094 12.4992C67.094 12.4992 67.094 12.4992 67.094 12.4992C67.094 12.4992 67.094 12.4992 67.094 12.4992C67.094 12.4992 67.094 12.4992 67.094 12.4992C67.094 12.4992 67.0939 12.4992 67.0939 12.4992C67.0939 12.4992 67.0939 12.4992 67.0939 12.4992C67.0939 12.4992 67.0939 12.4992 67.0939 12.4992C67.0939 12.4992 67.0939 12.4992 67.0939 12.4992C67.0939 12.4992 67.0939 12.4992 67.0939 12.4992C67.0939 12.4992 67.0939 12.4992 67.0939 12.4992C67.0938 12.4992 67.0938 12.4992 67.0938 12.4992C67.0938 12.4992 67.0938 12.4992 67.0938 12.4992C67.0938 12.4992 67.0938 12.4992 67.0938 12.4992C67.0938 12.4992 67.0938 12.4992 67.0938 12.4992C67.0938 12.4992 67.0938 12.4992 67.0938 12.4992C67.0938 12.4992 67.0938 12.4992 67.0938 12.4992C67.0938 12.4992 67.0938 12.4992 67.0937 12.4992C67.0937 12.4992 67.0937 12.4992 67.0937 12.4992C67.0937 12.4992 67.0937 12.4992 67.0937 12.4992C67.0937 12.4992 67.0937 12.4992 67.0937 12.4992C67.0937 12.4992 67.0937 12.4992 67.0937 12.4992C67.0937 12.4992 67.0937 12.4992 67.0937 12.4992C67.0937 12.4992 67.0937 12.4992 67.0936 12.4992C67.0936 12.4992 67.0936 12.4992 67.0936 12.4992C67.0936 12.4992 67.0936 12.4992 67.0936 12.4992C67.0936 12.4992 67.0936 12.4992 67.0936 12.4992C67.0936 12.4992 67.0936 12.4992 67.0936 12.4992C67.0936 12.4992 67.0936 12.4992 67.0936 12.4992C67.0936 12.4992 67.0936 12.4992 67.0936 12.4992C67.0935 12.4992 67.0935 12.4992 67.0935 12.4992C67.0935 12.4992 67.0935 12.4992 67.0935 12.4992C67.0935 12.4992 67.0935 12.4992 67.0935 12.4992C67.0935 12.4992 67.0935 12.4992 67.0935 12.4992C67.0935 12.4992 67.0935 12.4992 67.0935 12.4992C67.0935 12.4992 67.0935 12.4992 67.0935 12.4992C67.0934 12.4992 67.0934 12.4992 67.0934 12.4992C67.0934 12.4992 67.0934 12.4992 67.0934 12.4992C67.0934 12.4992 67.0934 12.4992 67.0934 12.4992C67.0934 12.4992 67.0934 12.4992 67.0934 12.4992C67.0934 12.4992 67.0934 12.4992 67.0934 12.4992C67.0934 12.4992 67.0934 12.4992 67.0934 12.4992C67.0934 12.4992 67.0933 12.4992 67.0933 12.4992C67.0933 12.4992 67.0933 12.4992 67.0933 12.4992C67.0933 12.4992 67.0933 12.4992 67.0933 12.4992C67.0933 12.4992 67.0933 12.4992 67.0933 12.4992C67.0933 12.4992 67.0933 12.4992 67.0933 12.4992C67.0933 12.4992 67.0933 12.4992 67.0933 12.4992C67.0933 12.4992 67.0933 12.4992 67.0932 12.4992C67.0932 12.4992 67.0932 12.4992 67.0932 12.4992C67.0932 12.4992 67.0932 12.4992 67.0932 12.4992C67.0932 12.4992 67.0932 12.4992 67.0932 12.4992C67.0932 12.4992 67.0932 12.4992 67.0932 12.4992C67.0932 12.4992 67.0932 12.4992 67.0932 12.4992C67.0932 12.4992 67.0932 12.4992 67.0932 12.4992C67.0932 12.4992 67.0931 12.4992 67.0931 12.4992C67.0931 12.4992 67.0931 12.4992 67.0931 12.4992C67.0931 12.4992 67.0931 12.4992 67.0931 12.4992C67.0931 12.4992 67.0931 12.4992 67.0931 12.4992C67.0931 12.4992 67.0931 12.4992 67.0931 12.4992C67.0931 12.4992 67.0931 12.4992 67.0931 12.4992C67.0931 12.4992 67.0931 12.4992 67.093 12.4992C67.093 12.4992 67.093 12.4992 67.093 12.4992C67.093 12.4992 67.093 12.4992 67.093 12.4992C67.093 12.4992 67.093 12.4992 67.093 12.4992H67.093C67.093 12.4992 67.093 12.4992 67.093 12.4992C67.093 12.4992 67.093 12.4992 67.093 12.4992C67.093 12.4992 67.0929 12.4992 67.0929 12.4992C67.0929 12.4992 67.0929 12.4992 67.0929 12.4992C67.0929 12.4992 67.0929 12.4992 67.0929 12.4992C67.0929 12.4992 67.0929 12.4992 67.0929 12.4992C67.0929 12.4992 67.0929 12.4992 67.0929 12.4992C67.0929 12.4992 67.0929 12.4992 67.0929 12.4992C67.0929 12.4992 67.0929 12.4992 67.0929 12.4992C67.0928 12.4992 67.0928 12.4992 67.0928 12.4992C67.0928 12.4992 67.0928 12.4992 67.0928 12.4992C67.0928 12.4992 67.0928 12.4992 67.0928 12.4992C67.0928 12.4992 67.0928 12.4992 67.0928 12.4992C67.0928 12.4992 67.0928 12.4992 67.0928 12.4992C67.0928 12.4992 67.0928 12.4992 67.0928 12.4992H67.0928C67.0928 12.4992 67.0927 12.4992 67.0927 12.4992C67.0927 12.4992 67.0927 12.4992 67.0927 12.4992C67.0927 12.4992 67.0927 12.4992 67.0927 12.4992C67.0927 12.4992 67.0927 12.4992 67.0927 12.4992C67.0927 12.4992 67.0927 12.4992 67.0927 12.4992C67.0927 12.4992 67.0927 12.4992 67.0927 12.4992C67.0927 12.4992 67.0927 12.4992 67.0927 12.4992C67.0927 12.4992 67.0926 12.4992 67.0926 12.4992H67.0926C67.0926 12.4992 67.0926 12.4992 67.0926 12.4992C67.0926 12.4992 67.0926 12.4992 67.0926 12.4992C67.0926 12.4992 67.0926 12.4992 67.0926 12.4992C67.0926 12.4992 67.0926 12.4992 67.0926 12.4992C67.0926 12.4992 67.0926 12.4992 67.0926 12.4992H67.0925C67.0925 12.4992 67.0925 12.4992 67.0925 12.4992C67.0925 12.4992 67.0925 12.4992 67.0925 12.4992C67.0925 12.4992 67.0925 12.4992 67.0925 12.4992C67.0925 12.4992 67.0925 12.4992 67.0925 12.4992C67.0925 12.4992 67.0925 12.4992 67.0925 12.4992H67.0925C67.0925 12.4992 67.0924 12.4992 67.0924 12.4992C67.0924 12.4992 67.0924 12.4992 67.0924 12.4992C67.0924 12.4992 67.0924 12.4992 67.0924 12.4992C67.0924 12.4992 67.0924 12.4992 67.0924 12.4992C67.0924 12.4992 67.0924 12.4992 67.0924 12.4992H67.0924C67.0924 12.4992 67.0924 12.4992 67.0924 12.4992C67.0924 12.4992 67.0924 12.4992 67.0923 12.4992C67.0923 12.4992 67.0923 12.4992 67.0923 12.4992H67.0923C67.0923 12.4992 67.0923 12.4992 67.0923 12.4992C67.0923 12.4992 67.0923 12.4992 67.0923 12.4992C67.0923 12.4992 67.0923 12.4992 67.0923 12.4992C67.0923 12.4992 67.0923 12.4992 67.0923 12.4992H67.0923C67.0922 12.4992 67.0922 12.4992 67.0922 12.4992C67.0922 12.4992 67.0922 12.4992 67.0922 12.4992C67.0922 12.4992 67.0922 12.4992 67.0922 12.4992H67.0922C67.0922 12.4992 67.0922 12.4992 67.0922 12.4992C67.0922 12.4992 67.0922 12.4992 67.0922 12.4992H67.0922C67.0922 12.4992 67.0921 12.4992 67.0921 12.4992C67.0921 12.4992 67.0921 12.4992 67.0921 12.4992C67.0921 12.4992 67.0921 12.4992 67.0921 12.4992H67.0921C67.0921 12.4992 67.0921 12.4992 67.0921 12.4992C67.0921 12.4992 67.0921 12.4992 67.0921 12.4992H67.0921C67.0921 12.4992 67.0921 12.4992 67.0921 12.4992C67.092 12.4992 67.092 12.4992 67.092 12.4992H67.092C67.092 12.4992 67.092 12.4992 67.092 12.4992C67.092 12.4992 67.092 12.4992 67.092 12.4992C67.092 12.4992 67.092 12.4992 67.092 12.4992H67.092C67.092 12.4992 67.092 12.4992 67.092 12.4992H67.092C67.0919 12.4992 67.0919 12.4992 67.0919 12.4992C67.0919 12.4992 67.0919 12.4992 67.0919 12.4992H67.0919C67.0919 12.4992 67.0919 12.4992 67.0919 12.4992C67.0919 12.4992 67.0919 12.4992 67.0919 12.4992H67.0919C67.0919 12.4992 67.0919 12.4992 67.0919 12.4992C67.0919 12.4992 67.0919 12.4992 67.0919 12.4992H67.0918C67.0918 12.4992 67.0918 12.4992 67.0918 12.4992H67.0918C67.0918 12.4992 67.0918 12.4992 67.0918 12.4992C67.0918 12.4992 67.0918 12.4992 67.0918 12.4992H67.0918C67.0918 12.4992 67.0918 12.4992 67.0918 12.4992H67.0918C67.0918 12.4992 67.0918 12.4992 67.0917 12.4992C67.0917 12.4992 67.0917 12.4992 67.0917 12.4992H67.0917C67.0917 12.4992 67.0917 12.4992 67.0917 12.4992H67.0917C67.0917 12.4992 67.0917 12.4992 67.0917 12.4992H67.0917C67.0917 12.4992 67.0917 12.4992 67.0917 12.4992C67.0917 12.4992 67.0917 12.4992 67.0916 12.4992H67.0916C67.0916 12.4992 67.0916 12.4992 67.0916 12.4992H67.0916C67.0916 12.4992 67.0916 12.4992 67.0916 12.4992H67.0916C67.0916 12.4992 67.0916 12.4992 67.0916 12.4992H67.0916C67.0916 12.4992 67.0916 12.4992 67.0916 12.4992H67.0915C67.0915 12.4992 67.0915 12.4992 67.0915 12.4992H67.0915C67.0915 12.4992 67.0915 12.4992 67.0915 12.4992H67.0915C67.0915 12.4992 67.0915 12.4992 67.0915 12.4992H67.0915C67.0915 12.4992 67.0915 12.4992 67.0915 12.4992H67.0915C67.0914 12.4992 67.0914 12.4992 67.0914 12.4992H67.0914C67.0914 12.4992 67.0914 12.4992 67.0914 12.4992C67.0914 12.4992 67.0914 12.4992 67.0914 12.4992H67.0914C67.0914 12.4992 67.0914 12.4992 67.0914 12.4992H67.0914C67.0914 12.4992 67.0914 12.4992 67.0914 12.4992H67.0914C67.0913 12.4992 67.0913 12.4992 67.0913 12.4992H67.0913H67.0913C67.0913 12.4992 67.0913 12.4992 67.0913 12.4992H67.0913C67.0913 12.4992 67.0913 12.4992 67.0913 12.4992H67.0913H67.0913C67.0913 12.4992 67.0913 12.4992 67.0913 12.4992H67.0912C67.0912 12.4992 67.0912 12.4992 67.0912 12.4992C67.0912 12.4992 67.0912 12.4992 67.0912 12.4992H67.0912C67.0912 12.4992 67.0912 12.4992 67.0912 12.4992H67.0912H67.0912C67.0912 12.4992 67.0912 12.4992 67.0912 12.4992H67.0912H67.0912C67.0911 12.4992 67.0911 12.4992 67.0911 12.4992H67.0911H67.0911C67.0911 12.4992 67.0911 12.4992 67.0911 12.4992H67.0911H67.0911C67.0911 12.4992 67.0911 12.4992 67.0911 12.4992C67.0911 12.4992 67.0911 12.4992 67.0911 12.4992H67.0911C67.0911 12.4992 67.0911 12.4992 67.0911 12.4992C67.091 12.4992 67.091 12.4992 67.091 12.4992H67.091H67.091C67.091 12.4992 67.091 12.4992 67.091 12.4992C67.091 12.4992 67.091 12.4992 67.091 12.4992H67.091C67.091 12.4992 67.091 12.4992 67.091 12.4992C67.091 12.4992 67.091 12.4992 67.091 12.4992C67.091 12.4992 67.091 12.4992 67.091 12.4992H67.091C67.091 12.4992 67.091 12.4992 67.091 12.4992C67.0909 12.4992 67.0909 12.4992 67.0909 12.4992C67.0909 12.4992 67.0909 12.4992 67.0909 12.4992H67.0909H67.0909C67.0909 12.4992 67.0909 12.4992 67.0909 12.4992C67.0909 12.4992 67.0909 12.4992 67.0909 12.4992C67.0909 12.4992 67.0909 12.4992 67.0909 12.4992H67.0909H67.0909C67.0909 12.4992 67.0909 12.4992 67.0909 12.4992C67.0909 12.4992 67.0909 12.4992 67.0908 12.4992C67.0908 12.4992 67.0908 12.4992 67.0908 12.4992H67.0908H67.0908H67.0908C67.0908 12.4992 67.0908 12.4992 67.0908 12.4992C67.0908 12.4992 67.0908 12.4992 67.0908 12.4992C67.0908 12.4992 67.0908 12.4992 67.0908 12.4992C67.0908 12.4992 67.0908 12.4992 67.0908 12.4992H67.0908H67.0908H67.0908C67.0907 12.4992 67.0907 12.4992 67.0907 12.4992C67.0907 12.4992 67.0907 12.4992 67.0907 12.4992C67.0907 12.4992 67.0907 12.4992 67.0907 12.4992C67.0907 12.4992 67.0907 12.4992 67.0907 12.4992C67.0907 12.4992 67.0907 12.4992 67.0907 12.4992C67.0907 12.4992 67.0907 12.4992 67.0907 12.4992H67.0907H67.0907H67.0907H67.0907C67.0907 12.4992 67.0907 12.4992 67.0907 12.4992C67.0907 12.4992 67.0907 12.4992 67.0907 12.4992C67.0906 12.4992 67.0906 12.4992 67.0906 12.4992C67.0906 12.4992 67.0906 12.4992 67.0906 12.4992C67.0906 12.4992 67.0906 12.4992 67.0906 12.4992C67.0906 12.4992 67.0906 12.4992 67.0906 12.4992C67.0906 12.4992 67.0906 12.4992 67.0906 12.4992C67.0906 12.4992 67.0906 12.4992 67.0906 12.4992C67.0906 12.4992 67.0906 12.4992 67.0906 12.4992C67.0906 12.4992 67.0906 12.4992 67.0906 12.4992C67.0906 12.4992 67.0906 12.4992 67.0906 12.4992C67.0906 12.4992 67.0906 12.4992 67.0906 12.4992C67.0906 12.4992 67.0906 12.4992 67.0906 12.4992C67.0906 12.4992 67.0906 12.4992 67.0906 12.4992C67.0906 12.4992 67.0906 12.4992 67.0905 12.4992C67.0905 12.4992 67.0905 12.4992 67.0905 12.4992C67.0905 12.4992 67.0905 12.4992 67.0905 12.4992C67.0905 12.4992 67.0905 12.4992 67.0905 12.4992C67.0905 12.4992 67.0905 12.4992 67.0905 12.4992C67.0905 12.4992 67.0905 12.4992 67.0905 12.4992C67.0905 12.4992 67.0905 12.4992 67.0905 12.4992C67.0905 12.4992 67.0905 12.4992 67.0905 12.4992C67.0905 12.4992 67.0905 12.4992 67.0905 12.4992C67.0905 12.4992 67.0905 12.4992 67.0905 12.4992C67.0905 12.4992 67.0905 12.4992 67.0905 12.4992H67.0905H67.0905H67.0904H67.0904C67.0904 12.4992 67.0904 12.4992 67.0904 12.4992C67.0904 12.4992 67.0904 12.4992 67.0904 12.4992C67.0904 12.4992 67.0904 12.4992 67.0904 12.4992C67.0904 12.4992 67.0904 12.4992 67.0904 12.4992C67.0904 12.4992 67.0904 12.4992 67.0904 12.4992C67.0904 12.4992 67.0904 12.4992 67.0904 12.4992H67.0904H67.0904C67.0904 12.4992 67.0904 12.4992 67.0904 12.4992C67.0904 12.4992 67.0904 12.4992 67.0904 12.4992C67.0904 12.4992 67.0904 12.4992 67.0904 12.4992C67.0903 12.4992 67.0903 12.4992 67.0903 12.4992H67.0903C67.0903 12.4992 67.0903 12.4992 67.0903 12.4992C67.0903 12.4992 67.0903 12.4992 67.0903 12.4992C67.0903 12.4992 67.0903 12.4992 67.0903 12.4992H67.0903H67.0903C67.0903 12.4992 67.0903 12.4992 67.0903 12.4992C67.0903 12.4992 67.0903 12.4992 67.0903 12.4992H67.0903C67.0903 12.4992 67.0903 12.4992 67.0903 12.4992C67.0903 12.4992 67.0903 12.4992 67.0903 12.4992H67.0903C67.0903 12.4992 67.0903 12.4992 67.0902 12.4992C67.0902 12.4992 67.0902 12.4992 67.0902 12.4992H67.0902C67.0902 12.4992 67.0902 12.4992 67.0902 12.4992C67.0902 12.4992 67.0902 12.4992 67.0902 12.4992H67.0902C67.0902 12.4992 67.0902 12.4992 67.0902 12.4992H67.0902C67.0902 12.4992 67.0902 12.4992 67.0902 12.4992H67.0902C67.0902 12.4992 67.0902 12.4992 67.0902 12.4992H67.0902C67.0902 12.4992 67.0902 12.4992 67.0902 12.4992H67.0901C67.0901 12.4992 67.0901 12.4992 67.0901 12.4992H67.0901C67.0901 12.4992 67.0901 12.4992 67.0901 12.4992C67.0901 12.4992 67.0901 12.4992 67.0901 12.4992H67.0901C67.0901 12.4992 67.0901 12.4992 67.0901 12.4992C67.0901 12.4992 67.0901 12.4992 67.0901 12.4992C67.0901 12.4992 67.0901 12.4992 67.0901 12.4992H67.0901C67.0901 12.4992 67.0901 12.4992 67.0901 12.4992C67.0901 12.4992 67.0901 12.4992 67.0901 12.4992C67.0901 12.4992 67.0901 12.4992 67.0901 12.4992C67.09 12.4992 67.09 12.4992 67.09 12.4992C67.09 12.4992 67.09 12.4992 67.09 12.4992C67.09 12.4992 67.09 12.4992 67.09 12.4992C67.09 12.4992 67.09 12.4992 67.09 12.4992C67.09 12.4992 67.09 12.4992 67.09 12.4992H67.09C67.09 12.4992 67.09 12.4992 67.09 12.4992C67.09 12.4992 67.09 12.4992 67.09 12.4992H67.09C67.09 12.4992 67.09 12.4992 67.09 12.4992H67.09C67.09 12.4992 67.09 12.4992 67.09 12.4992C67.09 12.4992 67.09 12.4992 67.09 12.4992C67.09 12.4992 67.09 12.4992 67.09 12.4992C67.0899 12.4992 67.0899 12.4992 67.0899 12.4992C67.0899 12.4992 67.0899 12.4992 67.0899 12.4992C67.0899 12.4992 67.0899 12.4992 67.0899 12.4992H67.0899C67.0899 12.4992 67.0899 12.4992 67.0899 12.4992C67.0899 12.4992 67.0899 12.4992 67.0899 12.4992C67.0899 12.4992 67.0899 12.4992 67.0899 12.4992H67.0899C67.0899 12.4992 67.0899 12.4992 67.0899 13.0992C67.0899 13.6992 67.0899 13.6992 67.0899 13.6992H67.0899C67.0899 13.6992 67.0899 13.6992 67.0899 13.6992C67.0899 13.6992 67.0899 13.6992 67.0899 13.6992C67.0899 13.6992 67.0899 13.6992 67.0899 13.6992H67.0899C67.0899 13.6992 67.0899 13.6992 67.0899 13.6992C67.0899 13.6992 67.0899 13.6992 67.0899 13.6992C67.0899 13.6992 67.0899 13.6992 67.09 13.6992C67.09 13.6992 67.09 13.6992 67.09 13.6992C67.09 13.6992 67.09 13.6992 67.09 13.6992C67.09 13.6992 67.09 13.6992 67.09 13.6992H67.09C67.09 13.6992 67.09 13.6992 67.09 13.6992H67.09C67.09 13.6992 67.09 13.6992 67.09 13.6992C67.09 13.6992 67.09 13.6992 67.09 13.6992H67.09C67.09 13.6992 67.09 13.6992 67.09 13.6992C67.09 13.6992 67.09 13.6992 67.09 13.6992C67.09 13.6992 67.09 13.6992 67.09 13.6992C67.09 13.6992 67.09 13.6992 67.09 13.6992C67.09 13.6992 67.09 13.6992 67.0901 13.6992C67.0901 13.6992 67.0901 13.6992 67.0901 13.6992C67.0901 13.6992 67.0901 13.6992 67.0901 13.6992C67.0901 13.6992 67.0901 13.6992 67.0901 13.6992H67.0901C67.0901 13.6992 67.0901 13.6992 67.0901 13.6992C67.0901 13.6992 67.0901 13.6992 67.0901 13.6992C67.0901 13.6992 67.0901 13.6992 67.0901 13.6992H67.0901C67.0901 13.6992 67.0901 13.6992 67.0901 13.6992C67.0901 13.6992 67.0901 13.6992 67.0901 13.6992H67.0901C67.0901 13.6992 67.0901 13.6992 67.0901 13.6992H67.0902C67.0902 13.6992 67.0902 13.6992 67.0902 13.6992H67.0902C67.0902 13.6992 67.0902 13.6992 67.0902 13.6992H67.0902C67.0902 13.6992 67.0902 13.6992 67.0902 13.6992H67.0902C67.0902 13.6992 67.0902 13.6992 67.0902 13.6992H67.0902C67.0902 13.6992 67.0902 13.6992 67.0902 13.6992C67.0902 13.6992 67.0902 13.6992 67.0902 13.6992H67.0902C67.0902 13.6992 67.0902 13.6992 67.0902 13.6992C67.0903 13.6992 67.0903 13.6992 67.0903 13.6992H67.0903C67.0903 13.6992 67.0903 13.6992 67.0903 13.6992C67.0903 13.6992 67.0903 13.6992 67.0903 13.6992H67.0903C67.0903 13.6992 67.0903 13.6992 67.0903 13.6992C67.0903 13.6992 67.0903 13.6992 67.0903 13.6992H67.0903H67.0903C67.0903 13.6992 67.0903 13.6992 67.0903 13.6992C67.0903 13.6992 67.0903 13.6992 67.0903 13.6992C67.0903 13.6992 67.0903 13.6992 67.0903 13.6992H67.0903C67.0903 13.6992 67.0903 13.6992 67.0904 13.6992C67.0904 13.6992 67.0904 13.6992 67.0904 13.6992C67.0904 13.6992 67.0904 13.6992 67.0904 13.6992C67.0904 13.6992 67.0904 13.6992 67.0904 13.6992H67.0904H67.0904C67.0904 13.6992 67.0904 13.6992 67.0904 13.6992C67.0904 13.6992 67.0904 13.6992 67.0904 13.6992C67.0904 13.6992 67.0904 13.6992 67.0904 13.6992C67.0904 13.6992 67.0904 13.6992 67.0904 13.6992C67.0904 13.6992 67.0904 13.6992 67.0904 13.6992C67.0904 13.6992 67.0904 13.6992 67.0904 13.6992H67.0904H67.0905H67.0905H67.0905C67.0905 13.6992 67.0905 13.6992 67.0905 13.6992C67.0905 13.6992 67.0905 13.6992 67.0905 13.6992C67.0905 13.6992 67.0905 13.6992 67.0905 13.6992C67.0905 13.6992 67.0905 13.6992 67.0905 13.6992C67.0905 13.6992 67.0905 13.6992 67.0905 13.6992C67.0905 13.6992 67.0905 13.6992 67.0905 13.6992C67.0905 13.6992 67.0905 13.6992 67.0905 13.6992C67.0905 13.6992 67.0905 13.6992 67.0905 13.6992C67.0905 13.6992 67.0905 13.6992 67.0905 13.6992C67.0905 13.6992 67.0905 13.6992 67.0905 13.6992C67.0906 13.6992 67.0906 13.6992 67.0906 13.6992C67.0906 13.6992 67.0906 13.6992 67.0906 13.6992C67.0906 13.6992 67.0906 13.6992 67.0906 13.6992C67.0906 13.6992 67.0906 13.6992 67.0906 13.6992C67.0906 13.6992 67.0906 13.6992 67.0906 13.6992C67.0906 13.6992 67.0906 13.6992 67.0906 13.6992C67.0906 13.6992 67.0906 13.6992 67.0906 13.6992C67.0906 13.6992 67.0906 13.6992 67.0906 13.6992C67.0906 13.6992 67.0906 13.6992 67.0906 13.6992C67.0906 13.6992 67.0906 13.6992 67.0906 13.6992C67.0906 13.6992 67.0906 13.6992 67.0906 13.6992C67.0906 13.6992 67.0906 13.6992 67.0906 13.6992C67.0906 13.6992 67.0906 13.6992 67.0907 13.6992C67.0907 13.6992 67.0907 13.6992 67.0907 13.6992C67.0907 13.6992 67.0907 13.6992 67.0907 13.6992H67.0907H67.0907H67.0907H67.0907C67.0907 13.6992 67.0907 13.6992 67.0907 13.6992C67.0907 13.6992 67.0907 13.6992 67.0907 13.6992C67.0907 13.6992 67.0907 13.6992 67.0907 13.6992C67.0907 13.6992 67.0907 13.6992 67.0907 13.6992C67.0907 13.6992 67.0907 13.6992 67.0907 13.6992C67.0907 13.6992 67.0907 13.6992 67.0908 13.6992H67.0908H67.0908H67.0908C67.0908 13.6992 67.0908 13.6992 67.0908 13.6992C67.0908 13.6992 67.0908 13.6992 67.0908 13.6992C67.0908 13.6992 67.0908 13.6992 67.0908 13.6992C67.0908 13.6992 67.0908 13.6992 67.0908 13.6992H67.0908H67.0908H67.0908C67.0908 13.6992 67.0908 13.6992 67.0908 13.6992C67.0909 13.6992 67.0909 13.6992 67.0909 13.6992C67.0909 13.6992 67.0909 13.6992 67.0909 13.6992H67.0909H67.0909C67.0909 13.6992 67.0909 13.6992 67.0909 13.6992C67.0909 13.6992 67.0909 13.6992 67.0909 13.6992C67.0909 13.6992 67.0909 13.6992 67.0909 13.6992H67.0909H67.0909C67.0909 13.6992 67.0909 13.6992 67.0909 13.6992C67.0909 13.6992 67.0909 13.6992 67.091 13.6992C67.091 13.6992 67.091 13.6992 67.091 13.6992H67.091C67.091 13.6992 67.091 13.6992 67.091 13.6992C67.091 13.6992 67.091 13.6992 67.091 13.6992C67.091 13.6992 67.091 13.6992 67.091 13.6992H67.091C67.091 13.6992 67.091 13.6992 67.091 13.6992C67.091 13.6992 67.091 13.6992 67.091 13.6992H67.091H67.091C67.091 13.6992 67.091 13.6992 67.0911 13.6992C67.0911 13.6992 67.0911 13.6992 67.0911 13.6992H67.0911C67.0911 13.6992 67.0911 13.6992 67.0911 13.6992C67.0911 13.6992 67.0911 13.6992 67.0911 13.6992H67.0911H67.0911C67.0911 13.6992 67.0911 13.6992 67.0911 13.6992H67.0911H67.0911C67.0911 13.6992 67.0911 13.6992 67.0912 13.6992H67.0912H67.0912C67.0912 13.6992 67.0912 13.6992 67.0912 13.6992H67.0912H67.0912C67.0912 13.6992 67.0912 13.6992 67.0912 13.6992H67.0912C67.0912 13.6992 67.0912 13.6992 67.0912 13.6992C67.0912 13.6992 67.0912 13.6992 67.0912 13.6992H67.0913C67.0913 13.6992 67.0913 13.6992 67.0913 13.6992H67.0913H67.0913C67.0913 13.6992 67.0913 13.6992 67.0913 13.6992H67.0913C67.0913 13.6992 67.0913 13.6992 67.0913 13.6992H67.0913H67.0913C67.0913 13.6992 67.0913 13.6992 67.0914 13.6992H67.0914C67.0914 13.6992 67.0914 13.6992 67.0914 13.6992H67.0914C67.0914 13.6992 67.0914 13.6992 67.0914 13.6992H67.0914C67.0914 13.6992 67.0914 13.6992 67.0914 13.6992C67.0914 13.6992 67.0914 13.6992 67.0914 13.6992H67.0914C67.0914 13.6992 67.0914 13.6992 67.0915 13.6992H67.0915C67.0915 13.6992 67.0915 13.6992 67.0915 13.6992H67.0915C67.0915 13.6992 67.0915 13.6992 67.0915 13.6992H67.0915C67.0915 13.6992 67.0915 13.6992 67.0915 13.6992H67.0915C67.0915 13.6992 67.0915 13.6992 67.0915 13.6992H67.0916C67.0916 13.6992 67.0916 13.6992 67.0916 13.6992H67.0916C67.0916 13.6992 67.0916 13.6992 67.0916 13.6992H67.0916C67.0916 13.6992 67.0916 13.6992 67.0916 13.6992H67.0916C67.0916 13.6992 67.0916 13.6992 67.0916 13.6992H67.0916C67.0917 13.6992 67.0917 13.6992 67.0917 13.6992C67.0917 13.6992 67.0917 13.6992 67.0917 13.6992H67.0917C67.0917 13.6992 67.0917 13.6992 67.0917 13.6992H67.0917C67.0917 13.6992 67.0917 13.6992 67.0917 13.6992H67.0917C67.0917 13.6992 67.0917 13.6992 67.0917 13.6992C67.0918 13.6992 67.0918 13.6992 67.0918 13.6992H67.0918C67.0918 13.6992 67.0918 13.6992 67.0918 13.6992H67.0918C67.0918 13.6992 67.0918 13.6992 67.0918 13.6992C67.0918 13.6992 67.0918 13.6992 67.0918 13.6992H67.0918C67.0918 13.6992 67.0918 13.6992 67.0918 13.6992H67.0919C67.0919 13.6992 67.0919 13.6992 67.0919 13.6992C67.0919 13.6992 67.0919 13.6992 67.0919 13.6992H67.0919C67.0919 13.6992 67.0919 13.6992 67.0919 13.6992C67.0919 13.6992 67.0919 13.6992 67.0919 13.6992H67.0919C67.0919 13.6992 67.0919 13.6992 67.0919 13.6992C67.0919 13.6992 67.0919 13.6992 67.092 13.6992H67.092C67.092 13.6992 67.092 13.6992 67.092 13.6992H67.092C67.092 13.6992 67.092 13.6992 67.092 13.6992C67.092 13.6992 67.092 13.6992 67.092 13.6992C67.092 13.6992 67.092 13.6992 67.092 13.6992H67.092C67.092 13.6992 67.092 13.6992 67.0921 13.6992C67.0921 13.6992 67.0921 13.6992 67.0921 13.6992H67.0921C67.0921 13.6992 67.0921 13.6992 67.0921 13.6992C67.0921 13.6992 67.0921 13.6992 67.0921 13.6992H67.0921C67.0921 13.6992 67.0921 13.6992 67.0921 13.6992C67.0921 13.6992 67.0921 13.6992 67.0921 13.6992C67.0921 13.6992 67.0922 13.6992 67.0922 13.6992H67.0922C67.0922 13.6992 67.0922 13.6992 67.0922 13.6992C67.0922 13.6992 67.0922 13.6992 67.0922 13.6992H67.0922C67.0922 13.6992 67.0922 13.6992 67.0922 13.6992C67.0922 13.6992 67.0922 13.6992 67.0922 13.6992C67.0922 13.6992 67.0922 13.6992 67.0923 13.6992H67.0923C67.0923 13.6992 67.0923 13.6992 67.0923 13.6992C67.0923 13.6992 67.0923 13.6992 67.0923 13.6992C67.0923 13.6992 67.0923 13.6992 67.0923 13.6992C67.0923 13.6992 67.0923 13.6992 67.0923 13.6992H67.0923C67.0923 13.6992 67.0923 13.6992 67.0923 13.6992C67.0924 13.6992 67.0924 13.6992 67.0924 13.6992C67.0924 13.6992 67.0924 13.6992 67.0924 13.6992H67.0924C67.0924 13.6992 67.0924 13.6992 67.0924 13.6992C67.0924 13.6992 67.0924 13.6992 67.0924 13.6992C67.0924 13.6992 67.0924 13.6992 67.0924 13.6992C67.0924 13.6992 67.0924 13.6992 67.0924 13.6992C67.0924 13.6992 67.0925 13.6992 67.0925 13.6992H67.0925C67.0925 13.6992 67.0925 13.6992 67.0925 13.6992C67.0925 13.6992 67.0925 13.6992 67.0925 13.6992C67.0925 13.6992 67.0925 13.6992 67.0925 13.6992C67.0925 13.6992 67.0925 13.6992 67.0925 13.6992C67.0925 13.6992 67.0925 13.6992 67.0925 13.6992H67.0926C67.0926 13.6992 67.0926 13.6992 67.0926 13.6992C67.0926 13.6992 67.0926 13.6992 67.0926 13.6992C67.0926 13.6992 67.0926 13.6992 67.0926 13.6992C67.0926 13.6992 67.0926 13.6992 67.0926 13.6992C67.0926 13.6992 67.0926 13.6992 67.0926 13.6992H67.0926C67.0926 13.6992 67.0927 13.6992 67.0927 13.6992C67.0927 13.6992 67.0927 13.6992 67.0927 13.6992C67.0927 13.6992 67.0927 13.6992 67.0927 13.6992C67.0927 13.6992 67.0927 13.6992 67.0927 13.6992C67.0927 13.6992 67.0927 13.6992 67.0927 13.6992C67.0927 13.6992 67.0927 13.6992 67.0927 13.6992C67.0927 13.6992 67.0927 13.6992 67.0927 13.6992C67.0927 13.6992 67.0928 13.6992 67.0928 13.6992H67.0928C67.0928 13.6992 67.0928 13.6992 67.0928 13.6992C67.0928 13.6992 67.0928 13.6992 67.0928 13.6992C67.0928 13.6992 67.0928 13.6992 67.0928 13.6992C67.0928 13.6992 67.0928 13.6992 67.0928 13.6992C67.0928 13.6992 67.0928 13.6992 67.0928 13.6992C67.0928 13.6992 67.0928 13.6992 67.0929 13.6992C67.0929 13.6992 67.0929 13.6992 67.0929 13.6992C67.0929 13.6992 67.0929 13.6992 67.0929 13.6992C67.0929 13.6992 67.0929 13.6992 67.0929 13.6992C67.0929 13.6992 67.0929 13.6992 67.0929 13.6992C67.0929 13.6992 67.0929 13.6992 67.0929 13.6992C67.0929 13.6992 67.0929 13.6992 67.0929 13.6992C67.0929 13.6992 67.093 13.6992 67.093 13.6992C67.093 13.6992 67.093 13.6992 67.093 13.6992C67.093 13.6992 67.093 13.6992 67.093 13.6992H67.093C67.093 13.6992 67.093 13.6992 67.093 13.6992C67.093 13.6992 67.093 13.6992 67.093 13.6992C67.093 13.6992 67.093 13.6992 67.093 13.6992C67.0931 13.6992 67.0931 13.6992 67.0931 13.6992C67.0931 13.6992 67.0931 13.6992 67.0931 13.6992C67.0931 13.6992 67.0931 13.6992 67.0931 13.6992C67.0931 13.6992 67.0931 13.6992 67.0931 13.6992C67.0931 13.6992 67.0931 13.6992 67.0931 13.6992C67.0931 13.6992 67.0931 13.6992 67.0931 13.6992C67.0931 13.6992 67.0932 13.6992 67.0932 13.6992C67.0932 13.6992 67.0932 13.6992 67.0932 13.6992C67.0932 13.6992 67.0932 13.6992 67.0932 13.6992C67.0932 13.6992 67.0932 13.6992 67.0932 13.6992C67.0932 13.6992 67.0932 13.6992 67.0932 13.6992C67.0932 13.6992 67.0932 13.6992 67.0932 13.6992C67.0932 13.6992 67.0932 13.6992 67.0932 13.6992C67.0933 13.6992 67.0933 13.6992 67.0933 13.6992C67.0933 13.6992 67.0933 13.6992 67.0933 13.6992C67.0933 13.6992 67.0933 13.6992 67.0933 13.6992C67.0933 13.6992 67.0933 13.6992 67.0933 13.6992C67.0933 13.6992 67.0933 13.6992 67.0933 13.6992C67.0933 13.6992 67.0933 13.6992 67.0933 13.6992C67.0933 13.6992 67.0934 13.6992 67.0934 13.6992C67.0934 13.6992 67.0934 13.6992 67.0934 13.6992C67.0934 13.6992 67.0934 13.6992 67.0934 13.6992C67.0934 13.6992 67.0934 13.6992 67.0934 13.6992C67.0934 13.6992 67.0934 13.6992 67.0934 13.6992C67.0934 13.6992 67.0934 13.6992 67.0934 13.6992C67.0934 13.6992 67.0934 13.6992 67.0935 13.6992C67.0935 13.6992 67.0935 13.6992 67.0935 13.6992C67.0935 13.6992 67.0935 13.6992 67.0935 13.6992C67.0935 13.6992 67.0935 13.6992 67.0935 13.6992C67.0935 13.6992 67.0935 13.6992 67.0935 13.6992C67.0935 13.6992 67.0935 13.6992 67.0935 13.6992C67.0935 13.6992 67.0935 13.6992 67.0936 13.6992C67.0936 13.6992 67.0936 13.6992 67.0936 13.6992C67.0936 13.6992 67.0936 13.6992 67.0936 13.6992C67.0936 13.6992 67.0936 13.6992 67.0936 13.6992C67.0936 13.6992 67.0936 13.6992 67.0936 13.6992C67.0936 13.6992 67.0936 13.6992 67.0936 13.6992C67.0936 13.6992 67.0936 13.6992 67.0936 13.6992C67.0937 13.6992 67.0937 13.6992 67.0937 13.6992C67.0937 13.6992 67.0937 13.6992 67.0937 13.6992C67.0937 13.6992 67.0937 13.6992 67.0937 13.6992C67.0937 13.6992 67.0937 13.6992 67.0937 13.6992C67.0937 13.6992 67.0937 13.6992 67.0937 13.6992C67.0937 13.6992 67.0937 13.6992 67.0937 13.6992C67.0938 13.6992 67.0938 13.6992 67.0938 13.6992C67.0938 13.6992 67.0938 13.6992 67.0938 13.6992C67.0938 13.6992 67.0938 13.6992 67.0938 13.6992C67.0938 13.6992 67.0938 13.6992 67.0938 13.6992C67.0938 13.6992 67.0938 13.6992 67.0938 13.6992C67.0938 13.6992 67.0938 13.6992 67.0938 13.6992C67.0938 13.6992 67.0938 13.6992 67.0939 13.6992C67.0939 13.6992 67.0939 13.6992 67.0939 13.6992C67.0939 13.6992 67.0939 13.6992 67.0939 13.6992C67.0939 13.6992 67.0939 13.6992 67.0939 13.6992C67.0939 13.6992 67.0939 13.6992 67.0939 13.6992C67.0939 13.6992 67.0939 13.6992 67.0939 13.6992C67.0939 13.6992 67.094 13.6992 67.094 13.6992C67.094 13.6992 67.094 13.6992 67.094 13.6992C67.094 13.6992 67.094 13.6992 67.094 13.6992C67.094 13.6992 67.094 13.6992 67.094 13.6992C67.094 13.6992 67.094 13.6992 67.094 13.6992C67.094 13.6992 67.094 13.6992 67.094 13.6992C67.094 13.6992 67.0941 13.6992 67.0941 13.6992C67.0941 13.6992 67.0941 13.6992 67.0941 13.6992C67.0941 13.6992 67.0941 13.6992 67.0941 13.6992C67.0941 13.6992 67.0941 13.6992 67.0941 13.6992C67.0941 13.6992 67.0941 13.6992 67.0941 13.6992C67.0941 13.6992 67.0941 13.6992 67.0941 13.6992C67.0941 13.6992 67.0942 13.6992 67.0942 13.6992C67.0942 13.6992 67.0942 13.6992 67.0942 13.6992C67.0942 13.6992 67.0942 13.6992 67.0942 13.6992C67.0942 13.6992 67.0942 13.6992 67.0942 13.6992C67.0942 13.6992 67.0942 13.6992 67.0942 13.6992C67.0942 13.6992 67.0942 13.6992 67.0942 13.6992C67.0943 13.6992 67.0943 13.6992 67.0943 13.6992C67.0943 13.6992 67.0943 13.6992 67.0943 13.6992C67.0943 13.6992 67.0943 13.6992 67.0943 13.6992C67.0943 13.6992 67.0943 13.6992 67.0943 13.6992C67.0943 13.6992 67.0943 13.6992 67.0943 13.6992C67.0943 13.6992 67.0943 13.6992 67.0943 13.6992C67.0944 13.6992 67.0944 13.6992 67.0944 13.6992C67.0944 13.6992 67.0944 13.6992 67.0944 13.6992C67.0944 13.6992 67.0944 13.6992 67.0944 13.6992C67.0944 13.6992 67.0944 13.6992 67.0944 13.6992C67.0944 13.6992 67.0944 13.6992 67.0944 13.6992C67.0944 13.6992 67.0944 13.6992 67.0945 13.6992C67.0945 13.6992 67.0945 13.6992 67.0945 13.6992C67.0945 13.6992 67.0945 13.6992 67.0945 13.6992C67.0945 13.6992 67.0945 13.6992 67.0945 13.6992C67.0945 13.6992 67.0945 13.6992 67.0945 13.6992C67.0945 13.6992 67.0945 13.6992 67.0945 13.6992C67.0945 13.6992 67.0946 13.6992 67.0946 13.6992C67.0946 13.6992 67.0946 13.6992 67.0946 13.6992C67.0946 13.6992 67.0946 13.6992 67.0946 13.6992C67.0946 13.6992 67.0946 13.6992 67.0946 13.6992C67.0946 13.6992 67.0946 13.6992 67.0946 13.6992C67.0946 13.6992 67.0946 13.6992 67.0946 13.6992C67.0947 13.6992 67.0947 13.6992 67.0947 13.6992C67.0947 13.6992 67.0947 13.6992 67.0947 13.6992C67.0947 13.6992 67.0947 13.6992 67.0947 13.6992C67.0947 13.6992 67.0947 13.6992 67.0947 13.6992C67.0947 13.6992 67.0947 13.6992 67.0947 13.6992C67.0947 13.6992 67.0947 13.6992 67.0947 13.6992C67.0948 13.6992 67.0948 13.6992 67.0948 13.6992C67.0948 13.6992 67.0948 13.6992 67.0948 13.6992C67.0948 13.6992 67.0948 13.6992 67.0948 13.6992C67.0948 13.6992 67.0948 13.6992 67.0948 13.6992C67.0948 13.6992 67.0948 13.6992 67.0948 13.6992C67.0948 13.6992 67.0949 13.6992 67.0949 13.6992C67.0949 13.6992 67.0949 13.6992 67.0949 13.6992C67.0949 13.6992 67.0949 13.6992 67.0949 13.6992C67.0949 13.6992 67.0949 13.6992 67.0949 13.6992C67.0949 13.6992 67.0949 13.6992 67.0949 13.6992C67.0949 13.6992 67.0949 13.6992 67.0949 13.6992C67.095 13.6992 67.095 13.6992 67.095 13.6992C67.095 13.6992 67.095 13.6992 67.095 13.6992C67.095 13.6992 67.095 13.6992 67.095 13.6992C67.095 13.6992 67.095 13.6992 67.095 13.6992C67.095 13.6992 67.095 13.6992 67.095 13.6992C67.095 13.6992 67.0951 13.6992 67.0951 13.6992C67.0951 13.6992 67.0951 13.6992 67.0951 13.6992C67.0951 13.6992 67.0951 13.6992 67.0951 13.6992C67.0951 13.6992 67.0951 13.6992 67.0951 13.6992C67.0951 13.6992 67.0951 13.6992 67.0951 13.6992C67.0951 13.6992 67.0951 13.6992 67.0952 13.6992C67.0952 13.6992 67.0952 13.6992 67.0952 13.6992V12.4992ZM67.0899 12.4992H67.0882V13.6992H67.0899V12.4992ZM67.3968 12.5846C67.0738 12.391 66.7054 12.2864 66.3293 12.2809L66.3117 13.4808C66.477 13.4832 66.6385 13.5292 66.7797 13.6138L67.3968 12.5846ZM66.3205 12.2809H18.4749V13.4809H66.3205V12.2809ZM18.4723 12.2809C18.1027 12.2825 17.7402 12.3808 17.4207 12.5658L18.022 13.6043C18.1604 13.5242 18.3175 13.4816 18.4775 13.4809L18.4723 12.2809ZM17.4026 12.5767C17.2403 12.6785 17.0933 12.8031 16.9664 12.9465L17.865 13.7419C17.9159 13.6843 17.975 13.6342 18.0401 13.5934L17.4026 12.5767ZM16.9749 12.9371L0.0750518 31.2385L0.956666 32.0526L17.8565 13.7512L16.9749 12.9371ZM0.029228 31.2946C-0.0229111 31.3669 -0.0687638 31.4422 -0.108635 31.5192L0.957131 32.0707C0.971071 32.0438 0.986292 32.019 1.00249 31.9966L0.029228 31.2946ZM-0.0607654 31.4417C-0.139394 31.5497 -0.206845 31.6648 -0.262659 31.7855L0.826584 32.289C0.849671 32.2391 0.877297 32.1921 0.909262 32.1482L-0.0607654 31.4417ZM-0.27205 31.8069C-0.32064 31.9237 -0.357889 32.045 -0.383277 32.1691L0.792371 32.4096C0.802307 32.361 0.816888 32.3135 0.835975 32.2676L-0.27205 31.8069ZM-0.376882 32.1412C-0.40867 32.266 -0.427964 32.3928 -0.435241 32.5198L0.762794 32.5884C0.76575 32.5368 0.773527 32.4863 0.785977 32.4374L-0.376882 32.1412ZM-0.435929 32.5353C-0.439937 32.663 -0.431659 32.7901 -0.412152 32.9146L0.773378 32.7288C0.765154 32.6763 0.761877 32.6241 0.763481 32.5729L-0.435929 32.5353ZM-0.413844 32.903C-0.396665 33.0285 -0.367334 33.1517 -0.326416 33.2712L0.808799 32.8822C0.792934 32.8359 0.78166 32.7884 0.77507 32.7403L-0.413844 32.903ZM-0.317234 33.2961C-0.266876 33.4243 -0.203337 33.5469 -0.127079 33.6624L0.874225 33.001C0.844512 32.956 0.819577 32.908 0.799617 32.8572L-0.317234 33.2961ZM-0.174287 33.5763C-0.140147 33.6528 -0.101257 33.7265 -0.0577908 33.7974L0.96538 33.1704C0.948763 33.1433 0.934172 33.1156 0.921433 33.0871L-0.174287 33.5763ZM-0.0134574 33.8603L40.8346 84.5681L41.7691 83.8153L0.921047 33.1075L-0.0134574 33.8603ZM40.8311 84.5637C40.8717 84.6152 40.9133 84.6527 40.9462 84.6788C40.9765 84.7029 41.0041 84.7207 41.0106 84.7249C41.0234 84.7333 41.0114 84.7257 40.999 84.7164C40.9831 84.7046 40.9559 84.6825 40.9267 84.6495L41.8262 83.8552C41.7858 83.8094 41.7463 83.7768 41.7175 83.7553C41.7034 83.7448 41.6911 83.7364 41.6828 83.7308C41.6755 83.7259 41.6675 83.7207 41.6667 83.7202C41.6641 83.7184 41.6665 83.72 41.6703 83.7226C41.6745 83.7255 41.6824 83.7311 41.6923 83.739C41.7128 83.7552 41.7425 83.7817 41.7726 83.8198L40.8311 84.5637ZM40.9282 84.6511C40.9454 84.6705 41.001 84.7341 41.06 84.7878L41.8675 83.9001C41.8691 83.9016 41.8655 83.8983 41.8555 83.8876C41.8461 83.8775 41.8368 83.8671 41.8247 83.8535L40.9282 84.6511ZM41.06 84.7878C41.0431 84.7724 41.0259 84.7541 41.0096 84.7333C40.994 84.7133 40.9838 84.6968 40.9839 84.697C40.984 84.6972 40.9842 84.6974 40.9846 84.6981C40.985 84.6987 40.9856 84.6997 40.9864 84.7009C40.9878 84.7032 40.9903 84.7072 40.9934 84.712C40.9996 84.7216 41.0098 84.7369 41.0233 84.7548C41.0531 84.7942 41.0913 84.8359 41.1405 84.8751L41.8884 83.9366C41.9065 83.951 41.9239 83.9669 41.9403 83.984C41.9567 84.001 41.97 84.0172 41.9806 84.0312C41.9908 84.0447 41.998 84.0556 42.0012 84.0606C42.002 84.0619 42.0027 84.0629 42.0031 84.0636C42.0035 84.0642 42.0038 84.0646 42.0038 84.0647C42.0038 84.0647 42.0038 84.0646 42.0037 84.0645C42.0036 84.0644 42.0035 84.0642 42.0033 84.0639C42.003 84.0634 42.0024 84.0624 42.0017 84.0613C41.9957 84.0516 41.9788 84.0246 41.954 83.993C41.9286 83.9606 41.8999 83.9296 41.8675 83.9001L41.06 84.7878ZM41.5144 85.0058H41.5285V83.8058H41.5144V85.0058ZM41.1042 84.8301L41.1182 84.8441L41.9668 83.9956L41.9527 83.9816L41.1042 84.8301ZM41.1825 84.8999C41.218 84.9265 41.2497 84.9446 41.27 84.9554C41.2895 84.9657 41.3065 84.9735 41.3099 84.975C41.3177 84.9786 41.3101 84.9752 41.3026 84.9714C41.2933 84.9668 41.2741 84.9567 41.2506 84.9412L41.9133 83.9408C41.8981 83.9307 41.8842 83.9224 41.8722 83.9156C41.8603 83.9089 41.8498 83.9034 41.8414 83.8992C41.8332 83.8951 41.8262 83.8917 41.8217 83.8896C41.8194 83.8886 41.8174 83.8876 41.8161 83.887C41.8155 83.8867 41.8148 83.8865 41.8144 83.8863C41.814 83.886 41.8137 83.8859 41.8135 83.8858C41.8123 83.8853 41.8143 83.8862 41.8172 83.8876C41.8202 83.889 41.8259 83.8918 41.8332 83.8957C41.8405 83.8996 41.8503 83.9051 41.8618 83.9121C41.8734 83.9192 41.8872 83.9284 41.9025 83.9399L41.1825 84.8999ZM41.2665 84.9513C41.3317 84.9917 41.3992 85.0282 41.4686 85.0606L41.9769 83.9736C41.9496 83.9608 41.923 83.9464 41.8974 83.9306L41.2665 84.9513ZM41.4163 85.0329C41.4815 85.0716 41.5484 85.1063 41.6164 85.1371L42.1107 84.0436C42.0824 84.0308 42.0552 84.0167 42.0293 84.0013L41.4163 85.0329ZM41.8636 85.1904H41.8748V83.9904H41.8636V85.1904ZM41.6454 85.1448C41.6165 85.1328 41.5961 85.1212 41.588 85.1164C41.5817 85.1127 41.5758 85.1088 41.5861 85.1155C41.5919 85.1191 41.6113 85.1316 41.6347 85.1447C41.6591 85.1582 41.6968 85.1775 41.7447 85.1943L42.1429 84.0623C42.1787 84.0749 42.2048 84.0886 42.2178 84.0958C42.2246 84.0996 42.2295 84.1026 42.2317 84.1039C42.2337 84.1051 42.2346 84.1058 42.2324 84.1044C42.2316 84.1038 42.2257 84.1001 42.2208 84.097C42.2151 84.0934 42.2066 84.0881 42.1965 84.0822C42.177 84.0707 42.145 84.0528 42.1042 84.036L41.6454 85.1448ZM41.7447 85.1943C41.7749 85.205 41.8038 85.2127 41.8308 85.2183C41.8576 85.2238 41.8816 85.2271 41.9016 85.2291C41.9214 85.2311 41.9378 85.2318 41.9485 85.2322C41.9538 85.2324 41.9584 85.2325 41.9612 85.2325C41.9627 85.2326 41.9639 85.2326 41.9647 85.2326C41.9658 85.2326 41.9659 85.2326 41.9663 85.2326C41.9668 85.2326 41.9654 85.2326 41.9633 85.2326C41.961 85.2325 41.9571 85.2324 41.9521 85.2321C41.9422 85.2315 41.9256 85.2303 41.9049 85.2273C41.8838 85.2242 41.8578 85.2191 41.8287 85.2104C41.7993 85.2017 41.7684 85.1898 41.737 85.174L42.2773 84.1025C42.203 84.065 42.1336 84.048 42.0798 84.0401C42.0322 84.0331 41.9919 84.0329 41.9879 84.0328C41.9621 84.0324 42.0487 84.0292 42.1429 84.0623L41.7447 85.1943ZM41.737 85.174C41.7294 85.1702 41.7241 85.1671 41.7238 85.167C41.7182 85.1638 41.7343 85.173 41.7424 85.1774C41.772 85.1937 41.829 85.223 41.9069 85.2426L42.2006 84.0791C42.2291 84.0863 42.2549 84.0954 42.2775 84.1051C42.2989 84.1142 42.3145 84.1226 42.3205 84.1259C42.3233 84.1274 42.3251 84.1285 42.3241 84.1279C42.3234 84.1275 42.3233 84.1274 42.3217 84.1265C42.3206 84.1259 42.3188 84.1249 42.3168 84.1237C42.3086 84.1191 42.2947 84.1113 42.2773 84.1025L41.737 85.174ZM41.907 85.2426C42.0652 85.2825 42.2276 85.3029 42.3909 85.3031L42.3926 84.1031C42.3279 84.103 42.2634 84.095 42.2005 84.0791L41.907 85.2426ZM42.3918 85.3031H42.4114V84.1031H42.3918V85.3031ZM42.4131 85.3031C42.5753 85.3026 42.7374 85.2827 42.8962 85.2426L42.6027 84.0791C42.5403 84.0948 42.4756 84.1029 42.4097 84.1031L42.4131 85.3031ZM42.7495 85.2609C42.8567 85.2609 42.9432 85.2335 43.0014 85.2081C43.0551 85.1846 43.0943 85.1584 43.1051 85.1512C43.1096 85.1482 43.1186 85.1421 43.115 85.1445C43.1149 85.1446 43.109 85.1486 43.1007 85.1538C43.0851 85.1635 43.0454 85.1872 42.989 85.2063L42.603 84.0701C42.5381 84.0922 42.4905 84.1202 42.4671 84.1347C42.455 84.1422 42.4454 84.1487 42.4415 84.1513C42.4342 84.1563 42.4395 84.1527 42.4402 84.1523C42.4436 84.15 42.4754 84.1283 42.5215 84.1082C42.572 84.0862 42.6506 84.0609 42.7495 84.0609V85.2609ZM42.9857 85.2075C42.9518 85.2188 42.9229 85.2248 42.9029 85.2282C42.8829 85.2316 42.8671 85.2331 42.8585 85.2338C42.8539 85.2341 42.8503 85.2344 42.8481 85.2345C42.8459 85.2346 42.8445 85.2347 42.8444 85.2347C42.8396 85.2349 42.8523 85.2344 42.8552 85.2342C42.8672 85.2336 42.9025 85.2319 42.9451 85.2246C42.989 85.2171 43.0549 85.2014 43.1277 85.165L42.5911 84.0917C42.6229 84.0758 42.6524 84.0648 42.6778 84.0571C42.7029 84.0495 42.7249 84.0449 42.7419 84.0419C42.7588 84.039 42.7725 84.0375 42.7815 84.0367C42.7903 84.0359 42.7966 84.0356 42.798 84.0356C42.7987 84.0355 42.799 84.0355 42.7978 84.0356C42.7973 84.0356 42.7945 84.0357 42.792 84.0358C42.787 84.036 42.7756 84.0366 42.762 84.0377C42.7482 84.0388 42.7274 84.0408 42.7026 84.045C42.6779 84.0492 42.6445 84.0563 42.6063 84.069L42.9857 85.2075ZM43.1295 85.1641C43.1417 85.158 43.1521 85.1523 43.1601 85.1478C43.1682 85.1433 43.1752 85.1392 43.1804 85.1361C43.1855 85.1331 43.1903 85.1302 43.1931 85.1285C43.1966 85.1264 43.198 85.1255 43.1995 85.1247C43.2025 85.1229 43.1994 85.1248 43.1935 85.128C43.1877 85.1311 43.174 85.1382 43.1545 85.1461L42.7023 84.0346C42.6708 84.0474 42.645 84.0605 42.6271 84.07C42.6091 84.0797 42.5939 84.0886 42.585 84.0939C42.5806 84.0966 42.5762 84.0992 42.574 84.1006C42.5711 84.1023 42.5702 84.1028 42.5698 84.1031C42.5679 84.1042 42.5762 84.0992 42.5893 84.0926L43.1295 85.1641ZM42.9284 85.1904H42.9396V83.9904H42.9284V85.1904ZM43.1868 85.1371C43.2548 85.1063 43.3217 85.0716 43.3869 85.0329L42.7739 84.0013C42.748 84.0167 42.7208 84.0308 42.6925 84.0436L43.1868 85.1371ZM43.3345 85.0606C43.4039 85.0282 43.4715 84.9917 43.5367 84.9513L42.9057 83.9306C42.8802 83.9464 42.8536 83.9608 42.8263 83.9736L43.3345 85.0606ZM43.5812 84.921C43.5403 84.9517 43.5048 84.9694 43.4894 84.9768C43.4811 84.9808 43.4747 84.9835 43.4728 84.9844C43.4718 84.9848 43.4711 84.9851 43.4716 84.9849C43.472 84.9847 43.4721 84.9847 43.4728 84.9844C43.4733 84.9841 43.4742 84.9838 43.4751 84.9834C43.4802 84.9812 43.505 84.9709 43.5339 84.9555C43.5641 84.9393 43.6096 84.9122 43.6576 84.8698L42.8637 83.97C42.8852 83.951 42.9056 83.9359 42.9233 83.9241C42.941 83.9123 42.9566 83.9033 42.9688 83.8969C42.9809 83.8904 42.9908 83.8857 42.9968 83.883C43 83.8815 43.0025 83.8804 43.0041 83.8797C43.0057 83.879 43.0067 83.8786 43.0068 83.8786C43.0068 83.8785 43.0068 83.8786 43.0064 83.8787C43.0063 83.8788 43.0055 83.8791 43.0049 83.8793C43.0037 83.8799 43.0013 83.8809 42.9985 83.8821C42.9931 83.8844 42.9833 83.8887 42.9716 83.8943C42.9598 83.8999 42.9438 83.908 42.9256 83.9185C42.9073 83.9291 42.8851 83.943 42.8612 83.961L43.5812 84.921ZM43.6849 84.8441L43.699 84.8301L42.8504 83.9816L42.8364 83.9956L43.6849 84.8441ZM43.2747 85.0058H43.2887V83.8058H43.2747V85.0058ZM43.6626 84.8751C43.7108 84.8367 43.7455 84.7982 43.7683 84.7701C43.7898 84.7437 43.8059 84.7198 43.8103 84.7135C43.8187 84.7011 43.8122 84.7109 43.8054 84.7198C43.7966 84.7316 43.7769 84.7565 43.7467 84.7845L42.9321 83.9033C42.892 83.9404 42.8638 83.9755 42.8469 83.9979C42.8383 84.0093 42.8314 84.0191 42.827 84.0254C42.8248 84.0286 42.8229 84.0315 42.8216 84.0334C42.821 84.0343 42.8203 84.0352 42.8199 84.0358C42.8195 84.0365 42.8192 84.0369 42.819 84.0373C42.8178 84.039 42.8193 84.0366 42.822 84.033C42.8248 84.0291 42.83 84.022 42.8372 84.0131C42.8516 83.9954 42.8772 83.9666 42.9148 83.9366L43.6626 84.8751ZM43.7468 84.7844C43.7638 84.7687 43.7788 84.7534 43.7881 84.7438C43.7985 84.7331 43.8088 84.7221 43.8175 84.7129C43.8382 84.6907 43.8485 84.6794 43.8613 84.6661L42.9922 83.8386C42.9824 83.8488 42.9727 83.8592 42.9644 83.8681C42.9553 83.8779 42.9486 83.8851 42.9413 83.8929C42.9343 83.9004 42.9296 83.9054 42.9264 83.9087C42.9221 83.9131 42.9249 83.91 42.932 83.9035L43.7468 84.7844ZM43.8613 84.6661C43.8428 84.6854 43.8242 84.7012 43.8078 84.7136C43.7943 84.7237 43.7822 84.7312 43.7917 84.7251C43.8062 84.7158 43.894 84.6626 43.9721 84.5637L43.0305 83.8198C43.0436 83.8032 43.0575 83.7878 43.072 83.7735C43.0864 83.7593 43.1 83.7476 43.1118 83.7383C43.1233 83.7291 43.1328 83.7225 43.138 83.7189C43.1426 83.7157 43.1459 83.7137 43.1426 83.7158C43.1412 83.7167 43.1329 83.722 43.1244 83.7277C43.1149 83.734 43.1023 83.7427 43.088 83.7534C43.058 83.7759 43.0254 83.8037 42.9922 83.8386L43.8613 84.6661ZM43.9686 84.5681L84.8166 33.8603L83.8821 33.1075L43.0341 83.8153L43.9686 84.5681ZM84.8347 33.8366C84.9146 33.7267 84.9828 33.6087 85.0381 33.4847L83.9422 32.9958C83.921 33.0435 83.8947 33.0889 83.864 33.1312L84.8347 33.8366ZM85.0215 33.519C85.0154 33.5307 85.0106 33.5383 85.0099 33.5395C85.0094 33.5402 85.0095 33.5401 85.0105 33.5384C85.0121 33.536 85.0128 33.535 85.0159 33.5302C85.0204 33.5233 85.03 33.5087 85.0402 33.4918C85.0507 33.4742 85.0646 33.4499 85.0786 33.4204L83.9948 32.9053C84.0025 32.8892 84.0091 32.8779 84.0119 32.8732C84.0144 32.869 84.0157 32.8671 84.012 32.8729C84.01 32.876 84.0013 32.889 83.9933 32.9018C83.9845 32.9159 83.972 32.9365 83.9589 32.9615L85.0215 33.519ZM85.0901 33.3947C85.178 33.1849 85.23 32.962 85.244 32.7351L84.0463 32.6609C84.0406 32.754 84.0192 32.8453 83.9833 32.931L85.0901 33.3947ZM85.2443 32.7299C85.2476 32.6684 85.2476 32.6066 85.2443 32.5451L84.046 32.6087C84.047 32.628 84.047 32.6471 84.046 32.6661L85.2443 32.7299ZM85.2451 32.5674C85.2423 32.3877 85.2151 32.2095 85.1646 32.0375L84.0132 32.3755C84.0333 32.4441 84.0441 32.5151 84.0452 32.5863L85.2451 32.5674ZM85.1726 32.0677C85.1555 31.9959 85.1335 31.9263 85.1074 31.8594L83.9899 32.2967C83.9964 32.3133 84.0014 32.3295 84.0051 32.3452L85.1726 32.0677ZM66.1276 17.0178L79.5878 31.5991L80.4695 30.7852L67.0093 16.2038L66.1276 17.0178ZM80.0286 30.5921H57.5947V31.7921H80.0286V30.5921ZM58.1057 31.5066L67.0794 16.9253L66.0575 16.2964L57.0837 30.8777L58.1057 31.5066ZM63.3108 15.3836L54.4947 29.7114L55.5167 30.3402L64.3328 16.0124L63.3108 15.3836ZM55.499 29.6842L45.5786 15.3565L44.592 16.0396L54.5124 30.3673L55.499 29.6842ZM45.0853 16.298H63.8218V15.098H45.0853V16.298ZM52.3858 30.5921H42.3977V31.7921H52.3858V30.5921ZM42.3977 30.5921H32.4096V31.7921H42.3977V30.5921ZM32.903 31.5337L42.891 17.1059L41.9044 16.4228L31.9163 30.8506L32.903 31.5337ZM41.9044 17.1059L51.8924 31.5337L52.8791 30.8506L42.891 16.4228L41.9044 17.1059ZM39.2168 15.3565L29.2964 29.6842L30.283 30.3673L40.2034 16.0396L39.2168 15.3565ZM30.3008 29.7114L21.4846 15.3836L20.4626 16.0124L29.2787 30.3402L30.3008 29.7114ZM20.9736 16.298H39.7101V15.098H20.9736V16.298ZM45.9371 77.5407L51.8741 54.2306L50.7113 53.9344L44.7742 77.2445L45.9371 77.5407ZM51.8691 54.249C52.0725 53.5451 51.8765 52.7862 51.3576 52.269L50.5104 53.1189C50.7192 53.327 50.7982 53.6325 50.7163 53.916L51.8691 54.249ZM51.3576 52.269C50.8389 51.7519 50.0794 51.5579 49.3759 51.7637L49.7128 52.9154C49.9958 52.8327 50.3016 52.9107 50.5104 53.1189L51.3576 52.269ZM49.3759 51.7637C48.6727 51.9694 48.1372 52.5415 47.9786 53.2568L49.1501 53.5166C49.214 53.2287 49.4296 52.9983 49.7128 52.9154L49.3759 51.7637ZM47.9829 53.2387L41.8163 77.456L42.9791 77.7521L49.1458 53.5348L47.9829 53.2387ZM42.9791 77.4559L36.8082 53.2289L35.6453 53.5251L41.8163 77.7521L42.9791 77.4559ZM36.8125 53.2471C36.6539 52.5319 36.1185 51.9594 35.415 51.7539L35.0785 52.9057C35.3615 52.9884 35.5771 53.2188 35.641 53.5069L36.8125 53.2471ZM35.4152 51.7539C34.7118 51.5482 33.9524 51.742 33.4335 52.2593L34.2807 53.1091C34.4897 52.9008 34.7953 52.8229 35.0783 52.9057L35.4152 51.7539ZM33.4335 52.2593C32.9145 52.7766 32.7184 53.5355 32.922 54.2395L34.0748 53.906C33.9929 53.6229 34.0717 53.3175 34.2807 53.1091L33.4335 52.2593ZM32.917 54.2209L38.8583 77.5409L40.0212 77.2446L34.0798 53.9246L32.917 54.2209ZM39.907 77.0163L3.87621 32.2863L2.94169 33.0391L38.9725 77.7691L39.907 77.0163ZM3.84982 33.0697L18.6678 17.0178L17.7861 16.2038L2.96808 32.2557L3.84982 33.0697ZM17.716 16.9253L26.6899 31.5066L27.7118 30.8777L18.7379 16.2963L17.716 16.9253ZM27.2009 30.5921H8.59247V31.7921H27.2009V30.5921ZM8.59247 30.5921C7.48315 30.5921 6.58397 31.4913 6.58397 32.6006H7.78397C7.78397 32.1541 8.14589 31.7921 8.59247 31.7921V30.5921ZM6.58397 32.6006C6.58397 33.71 7.48315 34.6091 8.59247 34.6091V33.4091C8.14589 33.4091 7.78397 33.0472 7.78397 32.6006H6.58397ZM8.59247 34.6091H28.6137V33.4091H8.59247V34.6091ZM28.0307 34.1511L31.5436 48.5705L32.7095 48.2865L29.1966 33.8671L28.0307 34.1511ZM31.5437 48.5707C31.763 49.4699 32.5685 50.1028 33.494 50.1032L33.4946 48.9033C33.122 48.9031 32.7978 48.6483 32.7095 48.2863L31.5437 48.5707ZM33.4943 50.1032C33.6536 50.1032 33.8128 50.0845 33.9682 50.0472L33.6879 48.8804C33.6248 48.8956 33.5597 48.9033 33.4943 48.9033V50.1032ZM33.9698 50.0468C34.4877 49.9209 34.9345 49.5941 35.2114 49.1383L34.1858 48.5153C34.0744 48.6986 33.8947 48.8301 33.6863 48.8808L33.9698 50.0468ZM35.2113 49.1384C35.4881 48.683 35.5726 48.1363 35.4462 47.6185L34.2804 47.9031C34.3313 48.1116 34.2973 48.3318 34.1859 48.5152L35.2113 49.1384ZM35.4463 47.6188L32.0968 33.8671L30.9309 34.1511L34.2804 47.9028L35.4463 47.6188ZM31.5138 34.6091H53.2816V33.4091H31.5138V34.6091ZM52.6986 33.8671L49.3491 47.6188L50.515 47.9028L53.8645 34.1511L52.6986 33.8671ZM49.3493 47.6183C49.2226 48.1362 49.3071 48.6831 49.5842 49.1386L50.6094 48.515C50.4979 48.3317 50.4639 48.1117 50.5149 47.9034L49.3493 47.6183ZM49.5842 49.1386C49.8612 49.5939 50.3076 49.9206 50.8253 50.0467L51.1094 48.8809C50.9009 48.8301 50.721 48.6985 50.6094 48.515L49.5842 49.1386ZM50.8272 50.0472C50.9827 50.0845 51.1418 50.1032 51.3011 50.1032V48.9033C51.2357 48.9033 51.1706 48.8956 51.1075 48.8804L50.8272 50.0472ZM51.3014 50.1032C52.227 50.1028 53.0324 49.4699 53.2517 48.5707L52.0859 48.2863C51.9976 48.6483 51.6734 48.9031 51.3008 48.9033L51.3014 50.1032ZM53.2518 48.5705L56.7647 34.1511L55.5988 33.8671L52.0859 48.2865L53.2518 48.5705ZM56.1818 34.6091H80.3018V33.4091H56.1818V34.6091ZM79.8346 33.6327L44.8884 77.0162L45.8229 77.769L80.7691 34.3855L79.8346 33.6327Z" fill="white" mask="url(#path-1-inside-1)"/>
<path d="M12.3232 72.5348L12.2777 72.4406L10.0495 67.8251C10.0494 67.825 10.0494 67.8249 10.0494 67.8248C9.86404 67.4425 9.47659 67.1997 9.05178 67.1997C8.62697 67.1997 8.23952 67.4425 8.0542 67.8248C8.05416 67.8249 8.05412 67.825 8.05407 67.8251L5.82587 72.4406L5.78034 72.5349L5.686 72.5804L1.06798 74.807C1.06785 74.8071 1.06773 74.8071 1.06761 74.8072C0.685337 74.9925 0.442578 75.38 0.442578 75.8047C0.442578 76.2296 0.685493 76.6172 1.06798 76.8024L1.2372 76.8844V76.8869L5.68623 79.0334L5.78058 79.0789L5.82609 79.1733L8.05275 83.79C8.05278 83.7901 8.05281 83.7901 8.05284 83.7902C8.23814 84.1726 8.62562 84.4154 9.05046 84.4154C9.47536 84.4154 9.86289 84.1725 10.0482 83.79L12.2763 79.1732L12.3218 79.0789L12.4161 79.0334L17.0329 76.8052C17.4154 76.62 17.6583 76.2324 17.6583 75.8075C17.6583 75.3827 17.4155 74.9953 17.0332 74.81L12.3232 72.5348ZM12.3232 72.5348L12.4174 72.5803L17.0329 74.8098L12.3232 72.5348ZM11.0106 77.2497L11.0106 77.2497L13.4418 76.0764L14.002 75.8061L13.4417 75.536L11.0107 74.3641C10.7849 74.255 10.6028 74.073 10.4939 73.8474L10.4939 73.8473L9.32061 71.4176L9.0503 70.8578L8.78024 71.4177L7.60829 73.8475L7.60803 73.848C7.49975 74.0736 7.3178 74.2555 7.09218 74.3638L7.09182 74.364L4.65927 75.5359L4.09927 75.8057L4.6589 76.0763L7.09145 77.2524L7.09155 77.2524C7.31736 77.3615 7.49947 77.5435 7.60829 77.7691C7.60829 77.7691 7.60829 77.7691 7.6083 77.7691L8.78024 80.1988L9.05046 80.7591L9.32067 80.1988L10.4939 77.7664C10.6029 77.5406 10.785 77.3585 11.0106 77.2497Z" fill="#1C1B1A" stroke="white" stroke-width="0.6"/>
<path d="M67.9306 10.1951L72.3781 12.3401L72.4724 12.3856L72.5179 12.4799L74.7461 17.0954C74.7461 17.0955 74.7462 17.0956 74.7462 17.0956C74.9315 17.478 75.319 17.7208 75.7438 17.7208C76.1686 17.7208 76.556 17.4781 76.7413 17.0958C76.7414 17.0957 76.7415 17.0956 76.7415 17.0954L78.9682 12.48L79.0137 12.3856L79.1081 12.3401L83.7263 10.1135C83.7263 10.1135 83.7263 10.1134 83.7263 10.1134C84.1088 9.92816 84.3517 9.54065 84.3517 9.11576C84.3517 8.69095 84.1089 8.30349 83.7265 8.11818L67.9306 10.1951ZM67.9306 10.1951V10.1926L67.7613 10.1107C67.3789 9.92539 67.1359 9.53786 67.1359 9.11296C67.1359 8.68816 67.3787 8.30072 67.761 8.1154C67.7611 8.11535 67.7612 8.1153 67.7613 8.11525L72.3781 5.88707L72.4724 5.84158L72.5179 5.74734L74.7474 1.13048C74.7475 1.13042 74.7475 1.13036 74.7475 1.13029C74.9328 0.747917 75.3203 0.505078 75.7451 0.505078C76.17 0.505078 76.5575 0.747879 76.7426 1.13003L67.9306 10.1951ZM73.7852 7.67081L73.7852 7.6708C74.0107 7.56201 74.1927 7.37995 74.3018 7.1542L73.7852 7.67081ZM73.7852 7.67081L71.3539 8.84409L70.7931 9.11475L71.3543 9.38464L73.7851 10.5536C73.7851 10.5536 73.7852 10.5536 73.7852 10.5536C74.011 10.6627 74.193 10.8447 74.3018 11.0702L74.3019 11.0703L75.4751 13.5001L75.7454 14.0599L76.0155 13.5L77.1875 11.0702L77.1877 11.0697C77.296 10.8441 77.4779 10.6622 77.7036 10.5539L77.7041 10.5536L80.1338 9.38168L80.6937 9.11162L80.1339 8.84132L77.7042 7.66805C77.4784 7.55898 77.2963 7.37694 77.1875 7.1514C77.1875 7.15139 77.1875 7.15138 77.1875 7.15137L76.0155 4.72164L75.7453 4.16143L75.4751 4.72165L74.3019 7.15405L73.7852 7.67081ZM79.1094 5.887L83.7263 8.11806L76.7428 1.1304L78.9697 5.74722L79.0151 5.84147L79.1094 5.887ZM79.6583 9.27795L77.5737 10.2834V7.93819L79.6584 8.94484L79.8731 8.84126L80.0035 9.11147L79.873 9.38162L79.6583 9.27795Z" fill="#1C1B1A" stroke="white" stroke-width="0.6"/>
<path d="M72.9869 74.433L72.9868 74.433C72.7612 74.5419 72.5792 74.724 72.4701 74.9498L71.2969 77.3822L71.0267 77.9424L70.7565 77.3822L69.5845 74.9525C69.5845 74.9525 69.5845 74.9524 69.5845 74.9524C69.4757 74.7269 69.2936 74.5449 69.0678 74.4358L69.0677 74.4357L66.6351 73.2597L66.0758 72.9892L66.6354 72.7194L69.0651 71.5474L69.0656 71.5472C69.2912 71.4388 69.4732 71.257 69.5814 71.0314L69.5817 71.0308L70.7537 68.6011L71.0237 68.0412L71.294 68.6009L72.4673 71.0307L72.4673 71.0308C72.5761 71.2563 72.7582 71.4383 72.9839 71.5474L72.9869 74.433ZM72.9869 74.433L75.4154 73.2597L75.9751 72.9893L75.4151 72.7193L72.9841 71.5475L72.9869 74.433ZM74.2539 69.6239L74.2994 69.7182L74.3937 69.7637L79.0105 71.9904C79.0105 71.9904 79.0106 71.9904 79.0107 71.9905C79.393 72.1758 79.6359 72.5632 79.6359 72.9881C79.6359 73.413 79.393 73.8005 79.0105 73.9858L74.3937 76.214L74.2994 76.2595L74.2539 76.3538L72.0257 80.9706C71.8404 81.353 71.4529 81.596 71.028 81.596C70.6032 81.596 70.2157 81.3531 70.0304 80.9707C70.0304 80.9707 70.0303 80.9706 70.0303 80.9706L67.8036 76.3538L67.7581 76.2595L67.6638 76.214L63.0455 73.9858C62.663 73.8005 62.4201 73.413 62.4201 72.9881C62.4201 72.5633 62.6629 72.1758 63.0453 71.9905C63.0454 71.9905 63.0454 71.9904 63.0455 71.9904L67.6637 69.7637L67.7581 69.7182L67.8036 69.6239L70.0303 65.0084C70.0303 65.0084 70.0303 65.0083 70.0304 65.0082C70.2157 64.6259 70.6032 64.383 71.028 64.383C71.4528 64.383 71.8403 64.6258 72.0256 65.0082C72.0256 65.0083 72.0257 65.0083 72.0257 65.0084L74.2539 69.6239Z" fill="#1C1B1A" stroke="white" stroke-width="0.6"/>
</g>
</svg>
