<svg width="84" height="84" viewBox="0 0 84 84" fill="none" xmlns="http://www.w3.org/2000/svg">
<g opacity="0.5">
<mask id="path-1-inside-1" fill="white">
<path d="M84 44.8329C84 41.6827 82.228 38.8005 79.4171 37.3785C81.2969 34.9798 81.7256 31.7492 80.5365 28.9433C79.3473 26.1373 76.7278 24.1986 73.6967 23.8811C74.9226 20.5209 73.8814 16.7529 71.1042 14.4988C68.3269 12.2448 64.4255 12.0012 61.3894 13.892L57.9033 10.0447C59.0615 8.27922 59.1017 6.00515 58.0069 4.19963L58.3905 3.81606C58.921 3.26677 58.9135 2.39347 58.3734 1.85354C57.8333 1.31344 56.9602 1.30589 56.4109 1.83647L56.0273 2.22005C55.1733 1.70736 54.1967 1.43501 53.2007 1.43189C50.1079 1.43189 47.6007 3.9391 47.6007 7.03185C47.6007 7.80508 48.2274 8.4318 49.0006 8.4318C49.7739 8.4318 50.4006 7.80508 50.4006 7.03185C50.4014 5.90047 51.0829 4.88082 52.128 4.44737C53.1731 4.01392 54.3762 4.25213 55.1774 5.05079C55.7105 5.58252 56.0058 6.30735 55.996 7.06023C55.9863 7.81312 55.6723 8.53007 55.1256 9.04785L55.113 9.05622C54.5983 9.55021 53.9138 9.82781 53.2005 9.83175C52.4273 9.83175 51.8005 10.4585 51.8005 11.2317C51.8005 12.0049 52.4273 12.6316 53.2005 12.6316C54.1235 12.6251 55.0303 12.3878 55.8381 11.9414L59.2821 15.7424C57.3396 18.1304 56.8602 21.3901 58.0335 24.236C59.2065 27.082 61.8436 29.0571 64.9046 29.3826C63.4577 33.3544 65.2096 37.7808 68.9828 39.6866C66.6066 42.705 66.6066 46.9582 68.9828 49.9766C66.1747 51.4018 64.4042 54.2824 64.4006 57.4316C60.2517 57.4365 56.7278 60.4697 56.1056 64.5716C55.6091 64.4804 55.1054 64.4335 54.6006 64.4317C51.8402 64.4366 49.2586 65.7973 47.6944 68.0717C46.1491 66.6303 44.1139 65.8295 42.0006 65.8318C39.8873 65.8298 37.8522 66.6305 36.3068 68.0717C34.7426 65.7973 32.1609 64.4366 29.4006 64.4317C28.8957 64.4337 28.3921 64.4804 27.8956 64.5716C27.2733 60.4697 23.7494 57.4365 19.6006 57.4316C19.5973 54.2824 17.8259 51.4018 15.017 49.9779C17.3951 46.9597 17.3951 42.7048 15.017 39.6864C18.7913 37.7817 20.5439 33.3546 19.0966 29.3825C22.1575 29.057 24.7947 27.0818 25.9677 24.2358C27.1408 21.3898 26.6615 18.13 24.719 15.7423L28.163 11.9413C28.9709 12.3877 29.8776 12.6249 30.8007 12.6315C33.3783 12.6461 35.6369 10.909 36.2843 8.41392C36.9317 5.91885 35.8026 3.3027 33.543 2.06222C31.2833 0.821745 28.47 1.27357 26.7125 3.15931C24.9551 5.04489 24.702 7.88301 26.0981 10.0499L22.6121 13.8915C19.5771 12.0018 15.6777 12.2453 12.9012 14.4977C10.1248 16.7501 9.08268 20.5155 10.3061 23.8749C7.27504 24.1917 4.65528 26.1297 3.4655 28.9355C2.27572 31.7412 2.70359 34.9717 4.58293 37.371C1.77188 38.7939 0 41.6763 0 44.8265C0 47.9767 1.77188 50.8591 4.5826 52.2815C2.60072 54.8079 2.237 58.2449 3.64613 61.1302C5.05527 64.0156 7.98937 65.8418 11.2004 65.8321C11.205 70.4694 14.9632 74.2275 19.6004 74.2321C20.1052 74.2303 20.6089 74.1834 21.1054 74.0922C21.5641 77.1653 23.6853 79.7323 26.6169 80.762C29.5484 81.7917 32.8091 81.1147 35.0886 79.0034C35.377 79.4216 35.7022 79.8134 36.0602 80.1738C37.6324 81.7538 39.7715 82.639 42.0004 82.6323C44.229 82.6386 46.3676 81.7528 47.9392 80.1725C48.3004 79.8122 48.6284 79.42 48.9191 79.0008C51.1986 81.108 54.4561 81.7826 57.3849 80.754C60.3138 79.7253 62.4341 77.1621 62.8955 74.0924C63.3919 74.1836 63.8956 74.2305 64.4004 74.2323C69.0376 74.2277 72.7958 70.4695 72.8004 65.8323C76.0097 65.8408 78.9418 64.0153 80.3503 61.1317C81.7589 58.2482 81.3963 54.8133 79.4167 52.2873C82.228 50.8652 84 47.9829 84 44.8329ZM28.2072 5.99563C28.6304 4.93349 29.657 4.2354 30.8005 4.23212C32.0594 4.22687 33.1668 5.06244 33.5075 6.27421C33.8483 7.48598 33.3384 8.77633 32.2613 9.42782C31.1842 10.0793 29.8046 9.93199 28.8895 9.06771L28.8769 9.05934C28.049 8.27052 27.784 7.05777 28.2072 5.99563ZM18.2005 15.432C21.2932 15.432 23.8004 17.9392 23.8004 21.032C23.8004 24.1247 21.2932 26.6319 18.2005 26.6319C17.9096 26.6229 17.6199 26.5914 17.3339 26.5381C16.3261 25.4466 15.0446 24.6442 13.6225 24.2141C12.9623 23.2839 12.6053 22.1726 12.6005 21.032C12.6005 17.9392 15.1077 15.432 18.2005 15.432ZM5.94022 30.2907C6.75217 28.0882 8.85299 26.6269 11.2006 26.6321C12.9001 26.6247 14.5087 27.3991 15.563 28.7321C15.5968 28.7744 15.6334 28.8146 15.6723 28.8525C16.7894 30.3319 17.0998 32.2691 16.5009 34.0235C15.9021 35.7778 14.4718 37.1208 12.6834 37.6082C11.1489 36.6795 9.34994 36.2856 7.56773 36.4882C5.77813 34.9685 5.12828 32.4933 5.94022 30.2907ZM2.80039 44.8321C2.79579 42.1259 4.73075 39.805 7.39382 39.323C8.87678 39.0343 10.4129 39.3739 11.6358 40.261C13.0459 41.257 13.9165 42.8492 13.9941 44.574C14.0717 46.2988 13.3473 47.9626 12.032 49.081C10.2511 48.8846 8.45498 49.278 6.91919 50.201C4.49237 49.5456 2.80498 47.346 2.80039 44.8321ZM11.7143 62.9748C11.5407 62.9902 11.3881 63.0322 11.2004 63.0322C8.10766 63.0322 5.60045 60.525 5.60045 57.4323C5.60373 55.6171 6.48327 53.9151 7.9623 52.8626C9.18571 51.9816 10.7172 51.6415 12.1987 51.9219C14.8652 52.401 16.8045 54.7231 16.8005 57.4323C16.7899 57.6049 16.7703 57.7768 16.7418 57.9474C14.4093 58.8042 12.571 60.6423 11.7143 62.9748ZM21.1853 71.176C20.6724 71.3387 20.1384 71.4252 19.6004 71.4322C18.1152 71.4322 16.6908 70.8423 15.6406 69.7921C14.5904 68.7419 14.0005 67.3176 14.0005 65.8323C13.9955 65.4082 14.0426 64.9851 14.1404 64.5723C14.6347 62.4874 16.2654 60.861 18.3516 60.3723C18.7606 60.2752 19.1799 60.2282 19.6004 60.2323C22.5892 60.2428 25.043 62.5986 25.1753 65.5845C23.1014 66.786 21.6469 68.8241 21.1853 71.176ZM33.844 76.216C32.7942 77.613 31.1478 78.4341 29.4004 78.4322C26.3076 78.4322 23.8004 75.9249 23.8004 72.8322C23.8013 72.6686 23.8134 72.5054 23.8369 72.3436C24.0042 70.3112 25.2698 68.5333 27.1353 67.7097C27.8477 67.3907 28.6201 67.228 29.4006 67.2322C31.586 67.2358 33.5699 68.5106 34.4811 70.4971C33.9016 71.6569 33.6001 72.9357 33.6006 74.2323C33.6035 74.9007 33.6852 75.5666 33.844 76.216ZM42.0006 79.8323C38.9078 79.8323 36.4006 77.3251 36.4006 74.2323C36.4006 71.1396 38.9078 68.6323 42.0006 68.6323C45.0933 68.6323 47.6005 71.1396 47.6005 74.2323C47.6005 77.3251 45.0933 79.8323 42.0006 79.8323ZM66.6671 26.5369C66.3813 26.5922 66.0914 26.6241 65.8005 26.6321C62.7078 26.6321 60.2006 24.1249 60.2006 21.0322C60.191 18.6176 61.7303 16.4689 64.0194 15.7009C66.3086 14.933 68.8322 15.7188 70.2807 17.6505C71.7293 19.5822 71.7767 22.2249 70.398 24.2073C68.9686 24.6361 67.68 25.4407 66.6671 26.5369ZM67.2006 32.2321C67.1983 31.0154 67.5914 29.8307 68.3207 28.8566C68.3601 28.8179 68.397 28.7767 68.4313 28.7334C69.2033 27.7597 70.2793 27.0726 71.4874 26.7819C71.5184 26.778 71.5493 26.7722 71.5798 26.7652C71.9804 26.6749 72.3899 26.6303 72.8006 26.6321C75.1457 26.6295 77.2434 28.0903 78.0545 30.2907C78.8657 32.4911 78.2179 34.9639 76.4323 36.4839C74.6514 36.2865 72.8549 36.6801 71.3194 37.604C68.8915 36.948 67.2039 34.7471 67.2006 32.2321ZM54.6006 78.4322C52.8528 78.4338 51.2061 77.6128 50.1556 76.216C50.6332 74.2945 50.4078 72.2654 49.5201 70.4956C50.4318 68.5098 52.4155 67.2355 54.6006 67.2322C55.3842 67.2281 56.1595 67.3924 56.8742 67.7138C58.7584 68.557 60.026 70.3685 60.1727 72.4276C60.192 72.5617 60.2014 72.6968 60.2007 72.8322C60.2006 75.9249 57.6934 78.4322 54.6006 78.4322ZM64.4006 71.4322C63.8618 71.4245 63.3269 71.3382 62.8129 71.176C62.3485 68.8261 60.896 66.7893 58.8257 65.5844C58.9579 62.5984 61.4117 60.2427 64.4006 60.2322C64.8247 60.2272 65.2478 60.2743 65.6606 60.3721C67.7455 60.8664 69.3718 62.4971 69.8606 64.5833C69.9577 64.9923 70.0046 65.4116 70.0005 65.8321C70.0005 68.925 67.4933 71.4322 64.4006 71.4322ZM78.1374 59.1297C77.3981 61.4538 75.2395 63.0322 72.8006 63.0321C72.628 63.0214 72.4561 63.0019 72.2854 62.9733C71.4287 60.641 69.5904 58.8027 67.258 57.946C67.2426 57.7724 67.2006 57.6198 67.2006 57.4321C67.196 54.7259 69.131 52.4051 71.7941 51.923C73.277 51.6341 74.8133 51.9737 76.0361 52.861C78.0268 54.2701 78.8767 56.8056 78.1374 59.1297ZM77.0831 50.2166V50.2096C75.5491 49.2795 73.7497 48.8856 71.9675 49.0895C70.6527 47.9709 69.9285 46.3075 70.0058 44.5829C70.083 42.8582 70.9527 41.2662 72.3624 40.2695C73.5853 39.3872 75.1173 39.0469 76.5988 39.3288C79.1697 39.7893 81.0784 41.9697 81.1944 44.5789C81.3105 47.1882 79.603 49.5295 77.0831 50.2166Z"/>
</mask>
<path d="M84 44.8329C84 41.6827 82.228 38.8005 79.4171 37.3785C81.2969 34.9798 81.7256 31.7492 80.5365 28.9433C79.3473 26.1373 76.7278 24.1986 73.6967 23.8811C74.9226 20.5209 73.8814 16.7529 71.1042 14.4988C68.3269 12.2448 64.4255 12.0012 61.3894 13.892L57.9033 10.0447C59.0615 8.27922 59.1017 6.00515 58.0069 4.19963L58.3905 3.81606C58.921 3.26677 58.9135 2.39347 58.3734 1.85354C57.8333 1.31344 56.9602 1.30589 56.4109 1.83647L56.0273 2.22005C55.1733 1.70736 54.1967 1.43501 53.2007 1.43189C50.1079 1.43189 47.6007 3.9391 47.6007 7.03185C47.6007 7.80508 48.2274 8.4318 49.0006 8.4318C49.7739 8.4318 50.4006 7.80508 50.4006 7.03185C50.4014 5.90047 51.0829 4.88082 52.128 4.44737C53.1731 4.01392 54.3762 4.25213 55.1774 5.05079C55.7105 5.58252 56.0058 6.30735 55.996 7.06023C55.9863 7.81312 55.6723 8.53007 55.1256 9.04785L55.113 9.05622C54.5983 9.55021 53.9138 9.82781 53.2005 9.83175C52.4273 9.83175 51.8005 10.4585 51.8005 11.2317C51.8005 12.0049 52.4273 12.6316 53.2005 12.6316C54.1235 12.6251 55.0303 12.3878 55.8381 11.9414L59.2821 15.7424C57.3396 18.1304 56.8602 21.3901 58.0335 24.236C59.2065 27.082 61.8436 29.0571 64.9046 29.3826C63.4577 33.3544 65.2096 37.7808 68.9828 39.6866C66.6066 42.705 66.6066 46.9582 68.9828 49.9766C66.1747 51.4018 64.4042 54.2824 64.4006 57.4316C60.2517 57.4365 56.7278 60.4697 56.1056 64.5716C55.6091 64.4804 55.1054 64.4335 54.6006 64.4317C51.8402 64.4366 49.2586 65.7973 47.6944 68.0717C46.1491 66.6303 44.1139 65.8295 42.0006 65.8318C39.8873 65.8298 37.8522 66.6305 36.3068 68.0717C34.7426 65.7973 32.1609 64.4366 29.4006 64.4317C28.8957 64.4337 28.3921 64.4804 27.8956 64.5716C27.2733 60.4697 23.7494 57.4365 19.6006 57.4316C19.5973 54.2824 17.8259 51.4018 15.017 49.9779C17.3951 46.9597 17.3951 42.7048 15.017 39.6864C18.7913 37.7817 20.5439 33.3546 19.0966 29.3825C22.1575 29.057 24.7947 27.0818 25.9677 24.2358C27.1408 21.3898 26.6615 18.13 24.719 15.7423L28.163 11.9413C28.9709 12.3877 29.8776 12.6249 30.8007 12.6315C33.3783 12.6461 35.6369 10.909 36.2843 8.41392C36.9317 5.91885 35.8026 3.3027 33.543 2.06222C31.2833 0.821745 28.47 1.27357 26.7125 3.15931C24.9551 5.04489 24.702 7.88301 26.0981 10.0499L22.6121 13.8915C19.5771 12.0018 15.6777 12.2453 12.9012 14.4977C10.1248 16.7501 9.08268 20.5155 10.3061 23.8749C7.27504 24.1917 4.65528 26.1297 3.4655 28.9355C2.27572 31.7412 2.70359 34.9717 4.58293 37.371C1.77188 38.7939 0 41.6763 0 44.8265C0 47.9767 1.77188 50.8591 4.5826 52.2815C2.60072 54.8079 2.237 58.2449 3.64613 61.1302C5.05527 64.0156 7.98937 65.8418 11.2004 65.8321C11.205 70.4694 14.9632 74.2275 19.6004 74.2321C20.1052 74.2303 20.6089 74.1834 21.1054 74.0922C21.5641 77.1653 23.6853 79.7323 26.6169 80.762C29.5484 81.7917 32.8091 81.1147 35.0886 79.0034C35.377 79.4216 35.7022 79.8134 36.0602 80.1738C37.6324 81.7538 39.7715 82.639 42.0004 82.6323C44.229 82.6386 46.3676 81.7528 47.9392 80.1725C48.3004 79.8122 48.6284 79.42 48.9191 79.0008C51.1986 81.108 54.4561 81.7826 57.3849 80.754C60.3138 79.7253 62.4341 77.1621 62.8955 74.0924C63.3919 74.1836 63.8956 74.2305 64.4004 74.2323C69.0376 74.2277 72.7958 70.4695 72.8004 65.8323C76.0097 65.8408 78.9418 64.0153 80.3503 61.1317C81.7589 58.2482 81.3963 54.8133 79.4167 52.2873C82.228 50.8652 84 47.9829 84 44.8329ZM28.2072 5.99563C28.6304 4.93349 29.657 4.2354 30.8005 4.23212C32.0594 4.22687 33.1668 5.06244 33.5075 6.27421C33.8483 7.48598 33.3384 8.77633 32.2613 9.42782C31.1842 10.0793 29.8046 9.93199 28.8895 9.06771L28.8769 9.05934C28.049 8.27052 27.784 7.05777 28.2072 5.99563ZM18.2005 15.432C21.2932 15.432 23.8004 17.9392 23.8004 21.032C23.8004 24.1247 21.2932 26.6319 18.2005 26.6319C17.9096 26.6229 17.6199 26.5914 17.3339 26.5381C16.3261 25.4466 15.0446 24.6442 13.6225 24.2141C12.9623 23.2839 12.6053 22.1726 12.6005 21.032C12.6005 17.9392 15.1077 15.432 18.2005 15.432ZM5.94022 30.2907C6.75217 28.0882 8.85299 26.6269 11.2006 26.6321C12.9001 26.6247 14.5087 27.3991 15.563 28.7321C15.5968 28.7744 15.6334 28.8146 15.6723 28.8525C16.7894 30.3319 17.0998 32.2691 16.5009 34.0235C15.9021 35.7778 14.4718 37.1208 12.6834 37.6082C11.1489 36.6795 9.34994 36.2856 7.56773 36.4882C5.77813 34.9685 5.12828 32.4933 5.94022 30.2907ZM2.80039 44.8321C2.79579 42.1259 4.73075 39.805 7.39382 39.323C8.87678 39.0343 10.4129 39.3739 11.6358 40.261C13.0459 41.257 13.9165 42.8492 13.9941 44.574C14.0717 46.2988 13.3473 47.9626 12.032 49.081C10.2511 48.8846 8.45498 49.278 6.91919 50.201C4.49237 49.5456 2.80498 47.346 2.80039 44.8321ZM11.7143 62.9748C11.5407 62.9902 11.3881 63.0322 11.2004 63.0322C8.10766 63.0322 5.60045 60.525 5.60045 57.4323C5.60373 55.6171 6.48327 53.9151 7.9623 52.8626C9.18571 51.9816 10.7172 51.6415 12.1987 51.9219C14.8652 52.401 16.8045 54.7231 16.8005 57.4323C16.7899 57.6049 16.7703 57.7768 16.7418 57.9474C14.4093 58.8042 12.571 60.6423 11.7143 62.9748ZM21.1853 71.176C20.6724 71.3387 20.1384 71.4252 19.6004 71.4322C18.1152 71.4322 16.6908 70.8423 15.6406 69.7921C14.5904 68.7419 14.0005 67.3176 14.0005 65.8323C13.9955 65.4082 14.0426 64.9851 14.1404 64.5723C14.6347 62.4874 16.2654 60.861 18.3516 60.3723C18.7606 60.2752 19.1799 60.2282 19.6004 60.2323C22.5892 60.2428 25.043 62.5986 25.1753 65.5845C23.1014 66.786 21.6469 68.8241 21.1853 71.176ZM33.844 76.216C32.7942 77.613 31.1478 78.4341 29.4004 78.4322C26.3076 78.4322 23.8004 75.9249 23.8004 72.8322C23.8013 72.6686 23.8134 72.5054 23.8369 72.3436C24.0042 70.3112 25.2698 68.5333 27.1353 67.7097C27.8477 67.3907 28.6201 67.228 29.4006 67.2322C31.586 67.2358 33.5699 68.5106 34.4811 70.4971C33.9016 71.6569 33.6001 72.9357 33.6006 74.2323C33.6035 74.9007 33.6852 75.5666 33.844 76.216ZM42.0006 79.8323C38.9078 79.8323 36.4006 77.3251 36.4006 74.2323C36.4006 71.1396 38.9078 68.6323 42.0006 68.6323C45.0933 68.6323 47.6005 71.1396 47.6005 74.2323C47.6005 77.3251 45.0933 79.8323 42.0006 79.8323ZM66.6671 26.5369C66.3813 26.5922 66.0914 26.6241 65.8005 26.6321C62.7078 26.6321 60.2006 24.1249 60.2006 21.0322C60.191 18.6176 61.7303 16.4689 64.0194 15.7009C66.3086 14.933 68.8322 15.7188 70.2807 17.6505C71.7293 19.5822 71.7767 22.2249 70.398 24.2073C68.9686 24.6361 67.68 25.4407 66.6671 26.5369ZM67.2006 32.2321C67.1983 31.0154 67.5914 29.8307 68.3207 28.8566C68.3601 28.8179 68.397 28.7767 68.4313 28.7334C69.2033 27.7597 70.2793 27.0726 71.4874 26.7819C71.5184 26.778 71.5493 26.7722 71.5798 26.7652C71.9804 26.6749 72.3899 26.6303 72.8006 26.6321C75.1457 26.6295 77.2434 28.0903 78.0545 30.2907C78.8657 32.4911 78.2179 34.9639 76.4323 36.4839C74.6514 36.2865 72.8549 36.6801 71.3194 37.604C68.8915 36.948 67.2039 34.7471 67.2006 32.2321ZM54.6006 78.4322C52.8528 78.4338 51.2061 77.6128 50.1556 76.216C50.6332 74.2945 50.4078 72.2654 49.5201 70.4956C50.4318 68.5098 52.4155 67.2355 54.6006 67.2322C55.3842 67.2281 56.1595 67.3924 56.8742 67.7138C58.7584 68.557 60.026 70.3685 60.1727 72.4276C60.192 72.5617 60.2014 72.6968 60.2007 72.8322C60.2006 75.9249 57.6934 78.4322 54.6006 78.4322ZM64.4006 71.4322C63.8618 71.4245 63.3269 71.3382 62.8129 71.176C62.3485 68.8261 60.896 66.7893 58.8257 65.5844C58.9579 62.5984 61.4117 60.2427 64.4006 60.2322C64.8247 60.2272 65.2478 60.2743 65.6606 60.3721C67.7455 60.8664 69.3718 62.4971 69.8606 64.5833C69.9577 64.9923 70.0046 65.4116 70.0005 65.8321C70.0005 68.925 67.4933 71.4322 64.4006 71.4322ZM78.1374 59.1297C77.3981 61.4538 75.2395 63.0322 72.8006 63.0321C72.628 63.0214 72.4561 63.0019 72.2854 62.9733C71.4287 60.641 69.5904 58.8027 67.258 57.946C67.2426 57.7724 67.2006 57.6198 67.2006 57.4321C67.196 54.7259 69.131 52.4051 71.7941 51.923C73.277 51.6341 74.8133 51.9737 76.0361 52.861C78.0268 54.2701 78.8767 56.8056 78.1374 59.1297ZM77.0831 50.2166V50.2096C75.5491 49.2795 73.7497 48.8856 71.9675 49.0895C70.6527 47.9709 69.9285 46.3075 70.0058 44.5829C70.083 42.8582 70.9527 41.2662 72.3624 40.2695C73.5853 39.3872 75.1173 39.0469 76.5988 39.3288C79.1697 39.7893 81.0784 41.9697 81.1944 44.5789C81.3105 47.1882 79.603 49.5295 77.0831 50.2166Z" fill="#1C1B1A" stroke="white" stroke-width="1.2" mask="url(#path-1-inside-1)"/>
</g>
</svg>
