<svg width="120" height="120" viewBox="0 0 120 120" fill="none" xmlns="http://www.w3.org/2000/svg">
<g opacity="0.5">
<path d="M120 64.0471C120 59.5468 117.469 55.4293 113.453 53.398C116.138 49.9712 116.751 45.3561 115.052 41.3476C113.353 37.3391 109.611 34.5694 105.281 34.1159C107.032 29.3157 105.545 23.9328 101.577 20.7127C97.6099 17.4926 92.0364 17.1446 87.6991 19.8457L82.7191 14.3496C84.3735 11.8275 84.4309 8.57884 82.867 5.99954L83.4149 5.45157C84.1729 4.66688 84.1621 3.4193 83.3906 2.64797C82.619 1.87641 81.3716 1.86562 80.587 2.62359L80.039 3.17156C78.8191 2.43914 77.4238 2.05008 76.0009 2.04562C71.5827 2.04562 68.001 5.62735 68.001 10.0456C68.001 11.1502 68.8963 12.0455 70.0009 12.0455C71.1055 12.0455 72.0008 11.1502 72.0008 10.0456C72.002 8.42931 72.9756 6.97267 74.4686 6.35345C75.9616 5.73423 77.6802 6.07454 78.8249 7.21548C79.5864 7.97509 80.0083 9.01056 79.9942 10.0861C79.9804 11.1617 79.5318 12.1859 78.7509 12.9256L78.7328 12.9375C77.9976 13.6432 77.0198 14.0398 76.0007 14.0454C74.8961 14.0454 74.0008 14.9407 74.0008 16.0453C74.0008 17.15 74.8961 18.0453 76.0007 18.0453C77.3193 18.0359 78.6147 17.697 79.7688 17.0592L84.6888 22.4893C81.9138 25.9006 81.2289 30.5574 82.9049 34.6229C84.5807 38.6886 88.3481 41.5102 92.7208 41.9752C90.6539 47.6492 93.1565 53.9727 98.5469 56.6952C95.1522 61.0072 95.1522 67.0832 98.5469 71.3952C94.5353 73.4312 92.006 77.5464 92.0008 82.0452C86.0739 82.0523 81.0398 86.3854 80.1508 92.2453C79.4416 92.1149 78.722 92.0479 78.0009 92.0453C74.0575 92.0524 70.3694 93.9963 68.1348 97.2454C65.9272 95.1862 63.0198 94.0422 60.0008 94.0455C56.9818 94.0427 54.0746 95.1864 51.8668 97.2454C49.6323 93.9963 45.9442 92.0524 42.0008 92.0453C41.2796 92.0481 40.5601 92.1149 39.8509 92.2453C38.9619 86.3854 33.9277 82.0523 28.0008 82.0452C27.9961 77.5464 25.4656 73.4312 21.4529 71.3971C24.8501 67.0853 24.8501 61.007 21.4529 56.695C26.8447 53.9739 29.3485 47.6495 27.2808 41.975C31.6536 41.51 35.4209 38.6884 37.0967 34.6226C38.7725 30.5569 38.0879 25.9001 35.3129 22.489L40.2329 17.059C41.387 17.6968 42.6824 18.0357 44.0009 18.045C47.6832 18.0659 50.9099 15.5843 51.8347 12.0199C52.7596 8.45556 51.1466 4.71821 47.9185 2.9461C44.6905 1.17398 40.6714 1.81945 38.1608 4.51336C35.6502 7.20704 35.2885 11.2615 37.283 14.3571L32.303 19.845C27.9673 17.1455 22.3967 17.4933 18.4303 20.7111C14.464 23.9288 12.9753 29.3079 14.723 34.107C10.3929 34.5596 6.6504 37.3283 4.95071 41.3366C3.25102 45.3446 3.86227 49.9597 6.54704 53.3872C2.53125 55.4199 0 59.5377 0 64.0379C0 68.5382 2.53125 72.6559 6.54658 74.688C3.71532 78.2971 3.19571 83.207 5.20876 87.329C7.22181 91.451 11.4134 94.0598 16.0006 94.046C16.0071 100.671 21.376 106.039 28.0006 106.046C28.7218 106.043 29.4413 105.976 30.1505 105.846C30.8058 110.236 33.8361 113.903 38.0241 115.374C42.212 116.845 46.8702 115.878 50.1266 112.862C50.5386 113.46 51.0031 114.019 51.5146 114.534C53.7606 116.791 56.8164 118.056 60.0006 118.046C63.1843 118.055 66.2394 116.79 68.4845 114.532C69.0006 114.018 69.4691 113.457 69.8844 112.858C73.1408 115.869 77.7944 116.832 81.9784 115.363C86.1625 113.893 89.1916 110.232 89.8506 105.846C90.5599 105.977 91.2794 106.044 92.0006 106.046C98.6252 106.04 103.994 100.671 104.001 94.0462C108.585 94.0584 112.774 91.4505 114.786 87.3311C116.798 83.2117 116.28 78.3048 113.452 74.6962C117.469 72.6646 120 68.5471 120 64.0471ZM40.2959 8.56525C40.9006 7.0479 42.3671 6.05063 44.0007 6.04594C45.7991 6.03844 47.3811 7.23212 47.8679 8.96322C48.3547 10.6943 47.6263 12.5377 46.0876 13.4684C44.5489 14.3991 42.5781 14.1886 41.2707 12.9539L41.2527 12.942C40.07 11.8151 39.6915 10.0826 40.2959 8.56525ZM26.0007 22.0458C30.4189 22.0458 34.0006 25.6275 34.0006 30.0458C34.0006 34.464 30.4189 38.0457 26.0007 38.0457C25.5851 38.0328 25.1712 37.9878 24.7627 37.9116C23.3229 36.3523 21.4922 35.206 19.4607 34.5917C18.5175 33.2628 18.0075 31.6751 18.0007 30.0458C18.0007 25.6275 21.5825 22.0458 26.0007 22.0458ZM8.48603 43.2725C9.64596 40.126 12.6471 38.0384 16.0008 38.0459C18.4287 38.0354 20.7268 39.1416 22.2329 41.0459C22.2811 41.1064 22.3334 41.1638 22.389 41.218C23.9848 43.3313 24.4283 46.0988 23.5728 48.605C22.7173 51.1112 20.674 53.0298 18.1191 53.7261C15.927 52.3993 13.3571 51.8366 10.811 52.126C8.25447 49.955 7.32611 46.419 8.48603 43.2725ZM4.00056 64.0459C3.99399 60.1799 6.75822 56.8644 10.5626 56.1758C12.6811 55.7633 14.8756 56.2485 16.6226 57.5157C18.6371 58.9386 19.8807 61.2132 19.9915 63.6772C20.1024 66.1412 19.0676 68.518 17.1886 70.1158C14.6445 69.8352 12.0785 70.3972 9.88455 71.7158C6.41767 70.7795 4.00712 67.6372 4.00056 64.0459ZM16.7346 89.9641C16.4867 89.9861 16.2687 90.0461 16.0006 90.0461C11.5824 90.0461 8.00064 86.4644 8.00064 82.0462C8.00533 79.453 9.26182 77.0216 11.3747 75.5181C13.1224 74.2595 15.3103 73.7737 17.4268 74.1742C21.2361 74.8586 24.0064 78.1759 24.0007 82.0462C23.9855 82.2927 23.9576 82.5384 23.9168 82.7821C20.5847 84.006 17.9586 86.632 16.7346 89.9641ZM30.2647 101.68C29.532 101.913 28.7691 102.036 28.0006 102.046C25.8788 102.046 23.844 101.203 22.3437 99.7031C20.8435 98.2028 20.0007 96.168 20.0007 94.0462C19.9936 93.4403 20.0609 92.8359 20.2006 92.2462C20.9068 89.2677 23.2362 86.9444 26.2165 86.2462C26.8008 86.1074 27.3999 86.0404 28.0006 86.0463C32.2702 86.0613 35.7758 89.4267 35.9647 93.6923C33.0019 95.4086 30.9242 98.3203 30.2647 101.68ZM48.3486 108.88C46.8488 110.876 44.4969 112.049 42.0005 112.046C37.5823 112.046 34.0006 108.464 34.0006 104.046C34.0018 103.812 34.0191 103.579 34.0526 103.348C34.2917 100.445 36.0997 97.9047 38.7648 96.7281C39.7824 96.2725 40.8859 96.04 42.0008 96.0461C45.1229 96.0513 47.957 97.8724 49.2587 100.71C48.4309 102.367 48.0001 104.194 48.0008 106.046C48.005 107.001 48.1217 107.952 48.3486 108.88ZM60.0008 114.046C55.5826 114.046 52.0009 110.464 52.0009 106.046C52.0009 101.628 55.5826 98.0463 60.0008 98.0463C64.419 98.0463 68.0008 101.628 68.0008 106.046C68.0008 110.464 64.419 114.046 60.0008 114.046ZM95.2387 37.91C94.8304 37.989 94.4163 38.0344 94.0007 38.0459C89.5825 38.0459 86.0008 34.4642 86.0008 30.046C85.9872 26.5967 88.1861 23.5271 91.4564 22.43C94.7266 21.3328 98.3318 22.4555 100.401 25.215C102.47 27.9746 102.538 31.7499 100.569 34.5819C98.5265 35.1945 96.6857 36.3439 95.2387 37.91ZM96.0009 46.0459C95.9976 44.3077 96.5592 42.6153 97.601 41.2238C97.6572 41.1685 97.71 41.1097 97.7589 41.0478C98.8619 39.6568 100.399 38.6752 102.125 38.2599C102.169 38.2543 102.213 38.2461 102.257 38.236C102.829 38.1071 103.414 38.0434 104.001 38.0459C107.351 38.0422 110.348 40.1291 111.506 43.2725C112.665 46.4159 111.74 49.9485 109.189 52.1199C106.645 51.838 104.078 52.4003 101.885 53.72C98.4164 52.783 96.0056 49.6388 96.0009 46.0459ZM78.0009 112.046C75.5041 112.048 73.1516 110.876 71.6509 108.88C72.3332 106.135 72.0112 103.236 70.743 100.708C72.0454 97.8712 74.8792 96.0508 78.0009 96.0461C79.1202 96.0403 80.2279 96.2749 81.2488 96.734C83.9406 97.9387 85.7514 100.526 85.9609 103.468C85.9886 103.66 86.002 103.853 86.001 104.046C86.0008 108.464 82.4191 112.046 78.0009 112.046ZM92.0008 102.046C91.2311 102.035 90.4671 101.912 89.7328 101.68C89.0692 98.3231 86.9943 95.4133 84.0367 93.6921C84.2256 89.4264 87.731 86.061 92.0008 86.046C92.6067 86.039 93.2111 86.1063 93.8008 86.2459C96.7793 86.9521 99.1026 89.2816 99.8008 92.2619C99.9396 92.8462 100.007 93.4453 100.001 94.046C100.001 98.4644 96.419 102.046 92.0008 102.046ZM111.625 84.471C110.569 87.7912 107.485 90.0461 104.001 90.0459C103.754 90.0306 103.509 90.0027 103.265 89.962C102.041 86.6301 99.4148 84.0039 96.0829 82.78C96.0609 82.532 96.0009 82.3141 96.0009 82.0459C95.9943 78.1799 98.7586 74.8644 102.563 74.1758C104.681 73.7631 106.876 74.2483 108.623 75.5158C111.467 77.5288 112.681 81.1509 111.625 84.471ZM110.119 71.7381V71.728C107.927 70.3994 105.357 69.8366 102.811 70.1279C100.932 68.53 99.8979 66.1536 100.008 63.6899C100.119 61.2261 101.361 58.9518 103.375 57.5279C105.122 56.2674 107.31 55.7814 109.427 56.184C113.1 56.8419 115.826 59.9567 115.992 63.6843C116.158 67.4118 113.719 70.7565 110.119 71.7381Z" fill="#1C1B1A"/>
</g>
</svg>
