<svg width="85" height="84" viewBox="0 0 85 84" fill="none" xmlns="http://www.w3.org/2000/svg">
<g opacity="0.5">
<path d="M21.2549 14.3073C21.8749 14.3073 22.3714 14.803 22.3714 15.4071C22.3714 16.0113 21.8749 16.5069 21.2549 16.5069C18.288 16.5069 15.8889 14.131 15.8889 11.2076C15.8889 10.6035 16.3855 10.1078 17.0053 10.1078C17.6252 10.1078 18.1218 10.6035 18.1218 11.2076C18.1218 12.9229 19.5279 14.3073 21.2549 14.3073Z" fill="#1C1B1A" stroke="white" stroke-width="0.6"/>
<path d="M24.3884 11.2076C24.3884 9.49227 22.9824 8.10782 21.2553 8.10782C20.6353 8.10782 20.1389 7.61214 20.1389 7.00802C20.1389 6.40389 20.6353 5.90822 21.2553 5.90822C24.2222 5.90822 26.6214 8.28418 26.6214 11.2076C26.6214 11.8117 26.1249 12.3074 25.5049 12.3074C24.8849 12.3074 24.3884 11.8117 24.3884 11.2076Z" fill="#1C1B1A" stroke="white" stroke-width="0.6"/>
<path d="M24.6279 37.7269L24.4164 37.8951L24.5618 38.123L37.3774 58.2096C40.2032 63.3531 40.0109 69.6011 36.8735 74.5658L36.8696 74.572L36.8659 74.5785C33.7055 80.1742 27.7428 83.6596 21.2551 83.7C14.7657 83.6587 8.80216 80.1711 5.64268 74.573L5.63896 74.5664L5.63492 74.56C2.50529 69.6146 2.30041 63.3911 5.09739 58.2555L17.9481 38.123L18.0935 37.8952L17.882 37.7269C16.3048 36.472 15.5814 34.4461 16.0103 32.4934C16.4395 30.5403 17.9484 28.9917 19.9119 28.4955L20.1384 28.4383V28.2047V22.3099V22.0449L19.8755 22.0122C14.0938 21.2924 9.88003 16.2563 10.2444 10.5166C10.6089 4.77657 15.4272 0.3 21.255 0.3C27.0828 0.3 31.9012 4.77657 32.2654 10.5166L32.5648 10.4976L32.2654 10.5166C32.6298 16.2563 28.4161 21.2924 22.6344 22.0122L22.3715 22.0449V22.3099V28.2047V28.4383L22.598 28.4955C24.5615 28.9917 26.0706 30.5404 26.4995 32.4934C26.9285 34.4461 26.2051 36.472 24.6279 37.7269ZM12.4559 11.2076V11.2079C12.4607 16.0134 16.4007 19.902 21.2547 19.9067H21.255C26.1113 19.9067 30.0541 16.0153 30.0541 11.2076C30.0541 6.39985 26.1113 2.50846 21.255 2.50846C16.3988 2.50846 12.4559 6.39985 12.4559 11.2076ZM24.3881 33.6072V33.6052C24.3881 31.8899 22.982 30.5055 21.255 30.5055C20.4253 30.5055 19.6288 30.8312 19.0409 31.4121C18.4529 31.9932 18.1219 32.782 18.1219 33.6052L18.1219 33.6072C18.1275 34.4473 18.4809 35.2479 19.0987 35.8225L19.3041 36.0135L19.5085 35.8214C20.4866 34.9025 22.0234 34.9025 23.0016 35.8214L23.206 36.0135L23.4113 35.8225C24.0292 35.2479 24.3826 34.4473 24.3881 33.6072ZM7.01541 59.3875L7.00906 59.3975L7.00352 59.4079C4.63284 63.8604 4.85118 69.2255 7.57484 73.4753C10.3408 78.3897 15.5653 81.4539 21.2526 81.5004L21.2575 81.5004C26.9445 81.4543 32.1694 78.392 34.938 73.4793C37.6679 69.2098 37.8725 63.8207 35.4734 59.3606L35.4681 59.3508L35.4621 59.3414L21.508 37.463L21.255 37.0665L21.0021 37.463L7.01541 59.3875Z" fill="#1C1B1A" stroke="white" stroke-width="0.6"/>
<path d="M22.2055 44.9255L32.5116 61.0783C32.9664 61.8787 33.2965 62.7419 33.4909 63.639C33.6797 64.5219 33.7472 65.4258 33.6916 66.3264C33.6335 67.2588 33.4602 68.1808 33.1756 69.0716L33.1754 69.072C32.8772 70.01 32.4732 70.912 31.9708 71.7608L31.97 71.7622C31.4075 72.7241 30.7267 73.6138 29.9428 74.4104C29.1845 75.1806 28.3293 75.8516 27.3982 76.4069C26.4796 76.9536 25.4907 77.3762 24.4583 77.6636L22.2055 44.9255ZM22.2055 44.9255C21.9858 44.6255 21.6327 44.4464 21.2551 44.4464C20.8776 44.4464 20.5245 44.6254 20.3049 44.9255L17.7344 48.9562C17.4349 49.4658 17.5957 50.1201 18.1039 50.4367C18.6141 50.7545 19.2861 50.6149 19.6239 50.1256L21.0023 47.9672L21.2552 47.5711L21.508 47.9672L30.5837 62.187L30.5885 62.1946L30.5928 62.2024C30.9249 62.7983 31.166 63.4397 31.3084 64.1053C31.3084 64.1054 31.3084 64.1054 31.3084 64.1054L22.2055 44.9255ZM32.229 71.9136C32.7429 71.0453 33.1562 70.1225 33.4613 69.1629C33.7535 68.2485 33.9314 67.3021 33.991 66.3449C34.0483 65.4169 33.9788 64.4856 33.7842 63.576C33.5829 62.6463 33.2404 61.7521 32.7686 60.9234L32.229 71.9136ZM18.0536 77.6636C17.0213 77.3761 16.0327 76.9535 15.1139 76.407C14.1825 75.8518 13.3273 75.1808 12.5691 74.4104L12.569 74.4103C11.784 73.6135 11.1022 72.7234 10.5391 71.7607L10.5383 71.7593C10.0359 70.9105 9.63191 70.0085 9.33369 69.0705L9.33361 69.0703C9.04964 68.1798 8.87727 67.2584 8.82035 66.3266L8.82032 66.3262C8.76394 65.4257 8.83094 64.5217 9.01957 63.6389C9.20693 62.7675 9.52277 61.9279 9.95713 61.1469L15.1479 52.995C15.1479 52.9949 15.148 52.9948 15.1481 52.9947C15.3603 52.6627 15.7371 52.4663 16.1373 52.482C16.5375 52.4977 16.8971 52.7232 17.0818 53.0706C17.2663 53.4177 17.2496 53.8353 17.0376 54.167L17.0376 54.1672L11.8787 62.2499L11.8726 62.2593L11.8673 62.2692C11.5586 62.8435 11.3329 63.4577 11.1965 64.094L11.1961 64.0956C11.0521 64.7856 11.0026 65.4918 11.0488 66.1948C11.0967 66.948 11.2367 67.6928 11.4661 68.4126L11.4661 68.4128C11.7158 69.1941 12.0528 69.9457 12.4708 70.6532C12.9434 71.4585 13.5139 72.2033 14.1698 72.8712L14.1699 72.8713C14.7942 73.5063 15.4986 74.0592 16.2658 74.5161C17.0138 74.9616 17.8187 75.3064 18.6589 75.5412L18.6597 75.5414C20.358 76.0104 22.1541 76.0104 23.8524 75.5414L23.8531 75.5412C24.6933 75.3069 25.4981 74.9626 26.2462 74.5176L26.2468 74.5172C27.0129 74.059 27.7171 73.506 28.342 72.8717C28.3419 72.8718 28.3419 72.8719 28.3418 72.8719L18.0536 77.6636ZM30.0451 70.6611C30.4638 69.9544 30.8009 69.2033 31.05 68.4219L30.0451 70.6611Z" fill="#1C1B1A" stroke="white" stroke-width="0.6"/>
<path d="M63.75 14.3073C64.37 14.3073 64.8665 14.803 64.8665 15.4071C64.8665 16.0113 64.37 16.5069 63.75 16.5069C60.7831 16.5069 58.384 14.131 58.384 11.2076C58.384 10.6034 58.8804 10.1078 59.5004 10.1078C60.1205 10.1078 60.6169 10.6034 60.6169 11.2076C60.6169 12.9229 62.023 14.3073 63.75 14.3073Z" fill="#1C1B1A" stroke="white" stroke-width="0.6"/>
<path d="M66.8835 11.2076C66.8835 9.49227 65.4775 8.10782 63.7505 8.10782C63.1304 8.10782 62.634 7.61214 62.634 7.00802C62.634 6.40389 63.1304 5.90822 63.7505 5.90822C66.7174 5.90822 69.1165 8.28418 69.1165 11.2076C69.1165 11.8117 68.62 12.3074 68 12.3074C67.3801 12.3074 66.8835 11.8117 66.8835 11.2076Z" fill="#1C1B1A" stroke="white" stroke-width="0.6"/>
<path d="M67.1234 37.7269L66.9119 37.8951L67.0572 38.123L79.8729 58.2097C82.6985 63.3532 82.5062 69.6011 79.3686 74.5657L79.3647 74.572L79.361 74.5785C76.2006 80.1742 70.2379 83.6596 63.7502 83.7C57.2608 83.6587 51.2973 80.1711 48.1378 74.573L48.1341 74.5664L48.13 74.56C45.0004 69.6146 44.7955 63.3911 47.5925 58.2555L60.4433 38.123L60.5888 37.8952L60.3772 37.7269C58.8001 36.472 58.0767 34.4461 58.5056 32.4934C58.9347 30.5403 60.4437 28.9917 62.4072 28.4955L62.6337 28.4383V28.2047V22.3099V22.0449L62.3707 22.0122C56.5891 21.2924 52.3753 16.2563 52.7397 10.5166C53.1042 4.77657 57.9225 0.3 63.7503 0.3C69.5781 0.3 74.3964 4.77657 74.7609 10.5166C75.1253 16.2563 70.9115 21.2924 65.1299 22.0122L64.8669 22.0449V22.3099V28.2047V28.4383L65.0934 28.4955C67.0569 28.9917 68.566 30.5404 68.995 32.4934C69.4239 34.4461 68.7005 36.472 67.1234 37.7269ZM54.9512 11.2076V11.2079C54.956 16.0134 58.896 19.902 63.75 19.9067H63.7503C68.6066 19.9067 72.5494 16.0153 72.5494 11.2076C72.5494 6.39985 68.6066 2.50846 63.7503 2.50846C58.894 2.50846 54.9512 6.39985 54.9512 11.2076ZM61.5362 31.4121L61.5361 31.4122C60.9484 31.9932 60.6172 32.782 60.6172 33.6052L60.6172 33.6072C60.6227 34.4473 60.9762 35.2479 61.594 35.8225L61.7994 36.0135L62.0037 35.8214C62.9819 34.9025 64.5187 34.9025 65.4969 35.8214L65.7012 36.0135L65.9066 35.8225C66.5245 35.2479 66.8779 34.4473 66.8834 33.6072V33.6052C66.8834 31.8899 65.4773 30.5055 63.7503 30.5055C62.9206 30.5055 62.124 30.8312 61.5362 31.4121ZM49.5105 59.3873L49.5042 59.3973L49.4987 59.4076C47.1262 63.8608 47.3438 69.2274 50.068 73.4783C52.8007 78.4273 58.049 81.5047 63.751 81.5047C69.453 81.5047 74.7013 78.4272 77.4341 73.4782C80.1632 69.2088 80.3676 63.8203 77.9685 59.3605L77.9632 59.3507L77.9572 59.3413L64.0031 37.4628L63.7502 37.0663L63.4972 37.4628L49.5105 59.3873Z" fill="#1C1B1A" stroke="white" stroke-width="0.6"/>
<path d="M72.6515 74.621C73.4528 73.8067 74.1489 72.8972 74.7239 71.9138C75.2378 71.0455 75.6511 70.1227 75.9562 69.163C76.2484 68.2487 76.4263 67.3023 76.4859 66.3451M72.6515 74.621L72.4378 74.4105C72.4377 74.4106 72.4377 74.4106 72.4377 74.4106M72.6515 74.621L72.4377 74.4106M72.6515 74.621C71.8752 75.4096 70.9997 76.0964 70.0465 76.6648M72.4377 74.4106C73.2216 73.614 73.9024 72.7243 74.4649 71.7623L74.4657 71.761C74.9681 70.9122 75.3721 70.0102 75.6703 69.0721L75.6705 69.0717C75.9551 68.1809 76.1284 67.259 76.1865 66.3266M72.4377 74.4106C71.6794 75.1808 70.8243 75.8517 69.8931 76.407M76.1865 66.3266L76.4859 66.3451M76.1865 66.3266C76.1865 66.3265 76.1865 66.3265 76.1865 66.3264L76.4859 66.3451M76.1865 66.3266C76.2421 65.4259 76.1746 64.5221 75.9858 63.6392M76.4859 66.3451C76.5432 65.4171 76.4737 64.4858 76.2791 63.5761M76.2791 63.5761L75.9859 63.6396C75.9859 63.6395 75.9858 63.6393 75.9858 63.6392M76.2791 63.5761C76.0779 62.6463 75.7355 61.7521 75.2637 60.9234M76.2791 63.5761L75.9857 63.6389C75.9858 63.639 75.9858 63.6391 75.9858 63.6392M75.9858 63.6392C75.7916 62.7419 75.4615 61.8787 75.0067 61.0783M75.2637 60.9234L75.0108 61.0847L75.0067 61.0783M75.2637 60.9234L75.003 61.0718C75.0042 61.074 75.0055 61.0761 75.0067 61.0783M75.2637 60.9234L57.4552 76.6648C58.3969 77.2251 59.4102 77.6581 60.4681 77.9528C62.615 78.5501 64.8868 78.5501 67.0337 77.9528C68.0916 77.6583 69.105 77.2252 70.0465 76.6648M75.0067 61.0783L64.7005 44.9255C64.4809 44.6255 64.1278 44.4464 63.7502 44.4464C63.3727 44.4464 63.0196 44.6254 62.7999 44.9255L60.2295 48.9562C59.93 49.4658 60.0908 50.1201 60.599 50.4367C61.1091 50.7545 61.7811 50.6149 62.119 50.1257L63.4974 47.9672L63.7503 47.5711L64.0031 47.9672L73.0787 62.187L73.0835 62.1946L73.0879 62.2024C73.42 62.7983 73.6611 63.4397 73.8035 64.1054L73.8039 64.1073C73.9467 64.7972 73.9963 65.5028 73.9511 66.2056C73.9037 66.9604 73.7626 67.7066 73.5307 68.4275C73.2817 69.2087 72.9447 69.9597 72.526 70.6664M72.526 70.6664C72.526 70.6665 72.5259 70.6666 72.5259 70.6667L72.2678 70.5138M72.526 70.6664C72.5262 70.6662 72.5263 70.666 72.5264 70.6658L72.2678 70.5138M72.526 70.6664C72.0559 71.4665 71.4888 72.207 70.8374 72.8712L70.8369 72.8717C70.212 73.506 69.5078 74.059 68.7417 74.5172L68.7411 74.5176C67.9931 74.9626 67.1882 75.3069 66.348 75.5412L66.3473 75.5414C64.649 76.0104 62.853 76.0104 61.1547 75.5414L61.1538 75.5412C60.3136 75.3064 59.5087 74.9616 58.7607 74.516C57.9935 74.0592 57.2891 73.5063 56.6648 72.8713L56.6647 72.8712C56.0088 72.2033 55.4383 71.4585 54.9657 70.6532C54.5477 69.9457 54.2107 69.1941 53.961 68.4128L53.961 68.4126C53.7316 67.6928 53.5916 66.948 53.5437 66.1948C53.4975 65.4918 53.547 64.7856 53.691 64.0956L53.6914 64.094C53.8278 63.4577 54.0535 62.8435 54.3622 62.2692L54.3675 62.2593L54.3736 62.2498L59.5325 54.1672L59.5325 54.167C59.7445 53.8353 59.7612 53.4177 59.5767 53.0706C59.392 52.7232 59.0324 52.4977 58.6322 52.482C58.2319 52.4663 57.855 52.6628 57.6428 52.995L52.4463 61.1414C52.012 61.9224 51.6962 62.7619 51.5088 63.6333C51.3202 64.5161 51.2532 65.4201 51.3096 66.3206L51.3096 66.321C51.3665 67.2523 51.5389 68.1734 51.8229 69.0633L51.8229 69.0635C52.1224 70.0041 52.5283 70.9085 53.0331 71.7592L53.034 71.7608C53.5971 72.7236 54.2789 73.6137 55.0639 74.4105L55.064 74.4106C55.8222 75.181 56.6774 75.852 57.6088 76.4072C58.5276 76.9537 59.5162 77.3762 60.5485 77.6637C62.6428 78.2464 64.859 78.2464 66.9533 77.6637M72.2678 70.5138C72.6751 69.8263 73.003 69.0956 73.2452 68.3356M72.2678 70.5138L73.2452 68.3356M66.9533 77.6637L67.0326 77.949L66.9532 77.6638C66.9532 77.6638 66.9532 77.6637 66.9533 77.6637ZM66.9533 77.6637C67.9856 77.3764 68.9745 76.9538 69.8931 76.407M69.8931 76.407C69.893 76.4071 69.893 76.4071 69.8929 76.4072L70.0465 76.6648M69.8931 76.407L70.0465 76.6648M73.2452 68.3356C73.4694 67.6384 73.6059 66.9168 73.6517 66.1868C73.6952 65.5107 73.6475 64.8319 73.5101 64.1682L73.2452 68.3356Z" fill="#1C1B1A" stroke="white" stroke-width="0.6"/>
</g>
</svg>
