<svg width="120" height="120" viewBox="0 0 120 120" fill="none" xmlns="http://www.w3.org/2000/svg">
<g opacity="0.5">
<path d="M32.0076 22.0102C32.0076 20.9057 31.1124 20.0105 30.0079 20.0105C27.7989 20.0105 26.0082 18.2198 26.0082 16.0108C26.0082 14.9063 25.1128 14.0111 24.0085 14.0111C22.9042 14.0111 22.0088 14.9063 22.0088 16.0108C22.0088 20.4286 25.5901 24.0099 30.0079 24.0099C31.1124 24.0099 32.0076 23.1147 32.0076 22.0102Z" fill="#1C1B1A"/>
<path d="M30.0075 12.0111C32.2165 12.0111 34.0072 13.8018 34.0072 16.0108C34.0072 17.1153 34.9024 18.0105 36.0069 18.0105C37.1114 18.0105 38.0066 17.1153 38.0066 16.0108C38.0066 11.5931 34.4253 8.01172 30.0075 8.01172C28.903 8.01172 28.0078 8.90694 28.0078 10.0114C28.0078 11.1159 28.903 12.0111 30.0075 12.0111Z" fill="#1C1B1A"/>
<path d="M35.0331 54.2309C37.3851 52.3373 38.4659 49.2779 37.8254 46.3272C37.1849 43.3764 34.9328 41.0404 32.0074 40.2924V31.8712C40.3878 30.8155 46.5034 23.4266 45.9745 14.9966C45.4458 6.56651 38.4544 0 30.0077 0C21.561 0 14.5696 6.56651 14.0407 14.9966C13.5118 23.4266 19.6274 30.8155 28.0078 31.8712V40.2924C25.0824 41.0404 22.8305 43.3764 22.1898 46.3272C21.5493 49.2779 22.6301 52.3373 24.9821 54.2309L6.83207 83.004C2.80241 90.4798 3.09488 99.5431 7.59793 106.743C12.1343 114.877 20.6951 119.941 30.0077 120C39.318 119.942 47.8777 114.881 52.4154 106.751C56.9295 99.5234 57.2039 90.4249 53.1332 82.9379L35.0331 54.2309ZM18.009 16.0108C18.009 9.38411 23.381 4.01208 30.0077 4.01208C36.6345 4.01208 42.0065 9.38411 42.0065 16.0108C42.0065 22.6376 36.6345 28.0096 30.0077 28.0096C23.3838 28.003 18.0155 22.6348 18.009 16.0108ZM27.1796 45.1793C27.9297 44.4292 28.9471 44.0078 30.0077 44.0078C32.2167 44.0078 34.0074 45.7985 34.0074 48.0075C34.0004 49.0887 33.5509 50.1201 32.7635 50.8611C31.2195 49.3934 28.7959 49.3934 27.252 50.8611C26.4646 50.1201 26.0151 49.0887 26.0081 48.0075C26.0081 46.9468 26.4294 45.9295 27.1796 45.1793ZM48.9618 104.75C45.1299 111.639 37.8906 115.936 30.0077 116.001C22.1246 115.935 14.8858 111.635 11.0576 104.744C7.28882 98.8013 6.9851 91.2972 10.2618 85.0698L30.0077 53.749L49.7077 85.0039C53.0238 91.2419 52.739 98.7795 48.9618 104.75Z" fill="#1C1B1A"/>
<path d="M46.2622 87.0334L31.6996 63.9379C31.3097 63.3909 30.6795 63.0663 30.0078 63.0663C29.3362 63.0663 28.706 63.3909 28.3161 63.9379L24.6764 69.7132C24.1306 70.6443 24.4221 71.8407 25.3351 72.4162C26.2482 72.9918 27.4532 72.7389 28.058 71.8449L30.0078 68.7552L42.8205 89.0692C43.2688 89.8833 43.5943 90.7596 43.7865 91.6689C43.9866 92.6135 44.0605 93.5805 44.0065 94.5446C43.9419 95.5874 43.7492 96.6183 43.4326 97.6143C43.0907 98.7001 42.6279 99.7439 42.0528 100.726C41.4008 101.843 40.6143 102.876 39.7111 103.802C38.8541 104.682 37.8884 105.449 36.8375 106.085C35.8136 106.702 34.712 107.179 33.5618 107.503C31.2379 108.153 28.7803 108.153 26.4565 107.503C25.3063 107.178 24.2046 106.7 23.1807 106.083C22.1287 105.449 21.163 104.682 20.3071 103.801C19.4053 102.872 18.621 101.836 17.9714 100.716C17.3972 99.7324 16.9343 98.6879 16.5915 97.6022C16.2782 96.6071 16.0869 95.5776 16.0216 94.5364C15.9587 93.5706 16.026 92.6006 16.2215 91.6527C16.4057 90.7832 16.7105 89.9438 17.1275 89.159L24.4106 77.6123C24.7921 77.0081 24.8224 76.2465 24.4901 75.614C24.1577 74.9814 23.513 74.5744 22.7992 74.546C22.0854 74.5177 21.4104 74.8722 21.0289 75.4764L13.6937 87.1332C13.057 88.2891 12.5942 89.5323 12.32 90.8229C12.0456 92.1223 11.9481 93.453 12.0301 94.7785C12.1126 96.145 12.3624 97.4962 12.7739 98.802C13.2047 100.173 13.7882 101.491 14.5137 102.732C15.3265 104.138 16.3105 105.438 17.4434 106.601C18.5392 107.728 19.7751 108.709 21.121 109.521C22.4505 110.321 23.881 110.94 25.3745 111.361C28.4053 112.214 31.6127 112.214 34.6435 111.361C36.137 110.94 37.5678 110.322 38.897 109.521C40.2426 108.709 41.4786 107.728 42.5747 106.601C43.7059 105.438 44.6885 104.139 45.5003 102.734C46.2258 101.493 46.8094 100.175 47.2401 98.8041C47.6526 97.4979 47.9038 96.1459 47.9879 94.7785C48.0688 93.4527 47.9706 92.1223 47.6959 90.8229C47.4117 89.4948 46.9282 88.2173 46.2622 87.0334Z" fill="#1C1B1A"/>
<path d="M92.0008 22.0102C92.0008 20.9057 91.1055 20.0105 90.001 20.0105C87.7921 20.0105 86.0014 18.2198 86.0014 16.0108C86.0014 14.9063 85.1062 14.0111 84.0017 14.0111C82.8972 14.0111 82.002 14.9063 82.002 16.0108C82.002 20.4286 85.5833 24.0099 90.001 24.0099C91.1055 24.0099 92.0008 23.1147 92.0008 22.0102Z" fill="#1C1B1A"/>
<path d="M90.0017 12.0111C92.2107 12.0111 94.0013 13.8018 94.0013 16.0108C94.0013 17.1153 94.8968 18.0105 96.0011 18.0105C97.1055 18.0105 98.0008 17.1153 98.0008 16.0108C98.0008 11.5931 94.4194 8.01172 90.0017 8.01172C88.8972 8.01172 88.002 8.90694 88.002 10.0114C88.002 11.1159 88.8972 12.0111 90.0017 12.0111Z" fill="#1C1B1A"/>
<path d="M113.127 82.9379L95.0268 54.2309C97.3787 52.3373 98.4595 49.2779 97.8191 46.3272C97.1786 43.3764 94.9265 41.0404 92.0011 40.2924V31.8712C100.381 30.8155 106.497 23.4266 105.968 14.9966C105.439 6.56651 98.4478 0 90.0011 0C81.5544 0 74.563 6.56651 74.0341 14.9966C73.5052 23.4266 79.6208 30.8155 88.0012 31.8712V40.2924C85.0758 41.0404 82.8239 43.3764 82.1832 46.3272C81.5427 49.2779 82.6235 52.3373 84.9755 54.2309L66.8252 83.004C62.7956 90.4798 63.088 99.5431 67.5911 106.743C72.1274 114.877 80.6883 119.941 90.0009 120C99.3112 119.942 107.871 114.881 112.409 106.751C116.923 99.5234 117.197 90.4249 113.127 82.9379ZM78.0024 16.0108C78.0024 9.38411 83.3744 4.01208 90.0011 4.01208C96.6279 4.01208 102 9.38411 102 16.0108C102 22.6376 96.6279 28.0096 90.0011 28.0096C83.3772 28.003 78.0089 22.6348 78.0024 16.0108ZM87.173 45.1793C87.9231 44.4292 88.9404 44.0078 90.0011 44.0078C92.2101 44.0078 94.0008 45.7985 94.0008 48.0075C93.9938 49.0887 93.5443 50.1201 92.7569 50.8611C91.2129 49.3934 88.7893 49.3934 87.2454 50.8611C86.458 50.1201 86.0085 49.0887 86.0015 48.0075C86.0015 46.9468 86.4231 45.9295 87.173 45.1793ZM108.955 104.75C105.174 111.689 97.9041 116.007 90.0021 116.007C82.1 116.007 74.8297 111.689 71.0489 104.75C67.2785 98.8053 66.9755 91.2984 70.255 85.0696L90.0009 53.7488L109.701 85.0037C113.017 91.2419 112.732 98.7795 108.955 104.75Z" fill="#1C1B1A"/>
<path d="M106.256 87.0334L91.6932 63.9379C91.3032 63.3909 90.673 63.0663 90.0014 63.0663C89.3297 63.0663 88.6996 63.3909 88.3096 63.9379L84.6699 69.7132C84.1241 70.6443 84.4156 71.8407 85.3287 72.4162C86.2417 72.9918 87.4467 72.7389 88.0516 71.8449L90.0014 68.7552L102.814 89.0692C103.262 89.8833 103.588 90.7596 103.78 91.6689C103.974 92.617 104.041 93.5868 103.98 94.5525C103.915 95.5954 103.723 96.6263 103.406 97.6223C103.064 98.7081 102.601 99.7518 102.026 100.734C101.38 101.847 100.6 102.877 99.7044 103.802C98.8474 104.682 97.8817 105.449 96.8308 106.085C95.807 106.702 94.7053 107.179 93.5551 107.503C91.2313 108.153 88.7736 108.153 86.4498 107.503C85.2996 107.178 84.1979 106.7 83.1741 106.083C82.1221 105.449 81.1563 104.682 80.3004 103.801C79.3987 102.872 78.6143 101.836 77.9647 100.716C77.3905 99.7324 76.9277 98.6879 76.5848 97.6022C76.2715 96.6071 76.0803 95.5776 76.0149 94.5364C75.9521 93.5706 76.0193 92.6006 76.2148 91.6527C76.399 90.7832 76.7039 89.9438 77.1208 89.159L84.4039 77.6123C84.7854 77.0081 84.8157 76.2465 84.4834 75.614C84.1511 74.9814 83.5064 74.5744 82.7925 74.546C82.0787 74.5177 81.4038 74.8722 81.0222 75.4764L73.6791 87.1253C73.0424 88.2811 72.5795 89.5243 72.3053 90.8149C72.0309 92.1144 71.9334 93.445 72.0154 94.7705C72.0979 96.1363 72.3478 97.4871 72.7593 98.7922C73.1919 100.167 73.778 101.489 74.5071 102.732C75.3198 104.138 76.3038 105.438 77.4367 106.601C78.5325 107.728 79.7685 108.709 81.1143 109.521C82.4438 110.322 83.8743 110.94 85.3678 111.361C88.3987 112.214 91.606 112.214 94.6368 111.361C96.1304 110.94 97.5611 110.322 98.8903 109.521C100.236 108.709 101.472 107.728 102.568 106.601C103.699 105.438 104.682 104.139 105.494 102.734C106.219 101.494 106.803 100.175 107.233 98.8044C107.646 97.4981 107.897 96.1461 107.981 94.7787C108.062 93.453 107.964 92.1226 107.689 90.8231C107.405 89.4948 106.922 88.2173 106.256 87.0334Z" fill="#1C1B1A"/>
</g>
</svg>
