<svg width="120" height="120" viewBox="0 0 120 120" fill="none" xmlns="http://www.w3.org/2000/svg">
<g opacity="0.5" clip-path="url(#clip0)">
<path d="M74.0819 24.007H45.918C45.3877 24.007 44.8791 24.218 44.5041 24.593L24.5859 44.509C24.2109 44.884 24 45.3926 24 45.923V74.0909C24 74.6213 24.2109 75.1298 24.5859 75.5048L44.5038 95.4209C44.8788 95.7959 45.3874 96.0068 45.9178 96.0068H74.0817C74.6121 96.0068 75.1207 95.7959 75.4957 95.4209L95.4136 75.5048C95.7886 75.1298 95.9995 74.6213 95.9995 74.0909V45.923C95.9995 45.3926 95.7886 44.884 95.4136 44.509L75.4957 24.593C75.1209 24.218 74.6123 24.007 74.0819 24.007ZM91.9999 73.2609L73.2539 92.007H46.7461L28.0001 73.2609V46.7529L46.7461 28.0069H73.2539L91.9999 46.7529V73.2609Z" fill="#1C1B1A"/>
<path d="M33.4691 51.1964C34.1682 51.3794 34.9119 51.1708 35.4142 50.651L50.6462 35.4211C51.4042 34.6364 51.3934 33.3888 50.6218 32.6175C49.8503 31.8459 48.6029 31.8351 47.8182 32.5931L32.5862 47.823C32.0664 48.3253 31.8578 49.0687 32.0408 49.7681C32.2239 50.4672 32.77 51.0133 33.4691 51.1964Z" fill="#1C1B1A"/>
<path d="M84.5858 69.3609L69.3559 84.5908C68.5745 85.3718 68.574 86.6383 69.3549 87.4197C70.1359 88.2011 71.4024 88.2016 72.1838 87.4207L87.4138 72.1886C88.1717 71.404 88.161 70.1564 87.3894 69.385C86.6181 68.6139 85.3707 68.6029 84.5858 69.3609Z" fill="#1C1B1A"/>
<path d="M35.4138 69.3609C34.6292 68.6029 33.3816 68.6137 32.6103 69.3853C31.8387 70.1568 31.8279 71.4042 32.5859 72.1889L47.8158 87.4209C48.3181 87.9408 49.0615 88.1493 49.7609 87.9663C50.4603 87.7833 51.0061 87.2372 51.1892 86.538C51.3722 85.8386 51.1636 85.0952 50.6438 84.5929L35.4138 69.3609Z" fill="#1C1B1A"/>
<path d="M69.3562 32.591C68.9807 32.9663 68.7695 33.4753 68.7695 34.0059C68.7695 34.5368 68.9805 35.0459 69.3562 35.4209L84.5861 50.6529C85.3708 51.4109 86.6184 51.4001 87.3897 50.6285C88.1613 49.857 88.172 48.6096 87.4141 47.8249L72.1841 32.591C71.4032 31.8103 70.1371 31.8103 69.3562 32.591Z" fill="#1C1B1A"/>
<path d="M119.852 35.2376L119.848 35.2177C119.848 35.1978 119.822 35.1858 119.812 35.1638C119.716 34.9412 119.581 34.738 119.412 34.5638L85.448 0.607568C85.073 0.224834 84.5599 0.00874023 84.0239 0.00756836H35.9761C35.4457 0.00756836 34.9371 0.218506 34.5621 0.593506L0.585938 34.5694C0.417187 34.7434 0.281484 34.9468 0.185859 35.1694C0.185859 35.1854 0.163828 35.1934 0.157969 35.2095V35.2294C0.0569531 35.4683 0.00328125 35.7242 0 35.9834V84.0315C0.00117187 84.2874 0.0513281 84.5405 0.147891 84.7775V84.7974C0.244453 85.0165 0.380156 85.2165 0.547969 85.3873C0.563906 85.4054 0.57 85.4293 0.585938 85.4452L34.552 119.408C34.927 119.783 35.4356 119.994 35.966 119.994H84.0239C84.5543 119.994 85.0629 119.783 85.4379 119.408L119.414 85.4455C119.43 85.4295 119.436 85.4054 119.452 85.3876C119.62 85.2167 119.755 85.0168 119.852 84.7976V84.7777C119.948 84.5408 119.999 84.2876 120 84.0317V35.9834C119.998 35.7277 119.948 35.4746 119.852 35.2376ZM84.7261 5.53952L114.474 35.2815L102.474 40.2514L79.7541 17.5393L84.7261 5.53952ZM100 43.4375V76.5774L76.5661 100.007H43.4339L19.9999 76.5774V43.4375L43.4339 20.0075H76.5659L100 43.4375ZM81.03 4.00765L76.058 16.0076H43.942L38.97 4.00765H81.03ZM35.2739 5.53765L40.2459 17.5376L17.532 40.2516L5.53195 35.2817L35.2739 5.53765ZM4.00008 38.9755L16.0001 43.9454V76.0693L4.00008 81.0392V38.9755ZM35.2739 114.476L5.53008 84.7334L17.5301 79.7635L40.2462 102.476L35.2739 114.476ZM38.97 116.007L43.942 104.007H76.058L81.03 116.007H38.97ZM84.7261 114.477L79.7541 102.477L102.468 79.7635L114.468 84.7334L84.7261 114.477ZM116 81.0394L104 76.0695V43.9456L116 38.9757V81.0394Z" fill="#1C1B1A"/>
</g>
<defs>
<clipPath id="clip0">
<rect width="120" height="120" fill="white"/>
</clipPath>
</defs>
</svg>
