<svg width="84" height="84" viewBox="0 0 84 84" fill="none" xmlns="http://www.w3.org/2000/svg">
<g opacity="0.5" clip-path="url(#clip0)">
<path d="M31.3648 17.4271L31.3648 17.4271C31.5711 17.2208 31.8508 17.1048 32.1424 17.1048H51.8572C52.1488 17.1048 52.4285 17.2208 52.6346 17.427L52.6347 17.4271L66.5772 31.3683C66.7835 31.5746 66.8995 31.8544 66.8995 32.146V51.8635C66.8995 52.1551 66.7835 52.4348 66.5772 52.6411L52.6347 66.5824L52.8468 66.7945L52.6347 66.5824C52.4283 66.7887 52.1486 66.9047 51.857 66.9047H32.1423C31.8507 66.9047 31.5709 66.7887 31.3646 66.5824L31.1525 66.7945L31.3646 66.5824L17.4221 52.6412C17.2158 52.4348 17.0998 52.1551 17.0998 51.8635V32.146C17.0998 31.8544 17.2158 31.5746 17.4221 31.3683L31.3648 17.4271ZM64.6119 51.4947L64.6997 51.4068V51.2826V32.7269V32.6027L64.6119 32.5148L51.4897 19.3926L51.4018 19.3047H51.2775H32.7221H32.5978L32.5099 19.3926L19.3877 32.5148L19.2999 32.6027V32.7269V51.2826V51.4068L19.3877 51.4947L32.5099 64.6169L32.5978 64.7048H32.7221H51.2775H51.4018L51.4897 64.6169L64.6119 51.4947Z" fill="#1C1B1A" stroke="white" stroke-width="0.6"/>
<path d="M24.5777 35.2435L24.5777 35.2435L35.2382 24.5845C35.6533 24.1528 35.6468 23.468 35.2231 23.0444L35.2231 23.0443C34.7993 22.6205 34.1145 22.6141 33.6829 23.0292L23.0224 33.6882L23.0187 33.6919L23.0187 33.6918C22.7327 33.9681 22.618 34.377 22.7187 34.7617L24.5777 35.2435ZM24.5777 35.2435L24.5741 35.2472M24.5777 35.2435L24.5741 35.2472M24.5741 35.2472C24.2978 35.5332 23.8887 35.6479 23.5043 35.5472M24.5741 35.2472L23.5043 35.5472M23.5043 35.5472C23.1197 35.4466 22.8194 35.1462 22.7187 34.7617L23.5043 35.5472Z" fill="#1C1B1A" stroke="white" stroke-width="0.6"/>
<path d="M48.7612 59.4257L48.7612 59.4256L59.4202 48.7666C59.8521 48.3515 60.5368 48.3581 60.9605 48.7816C61.3842 49.2052 61.3907 49.8901 60.9756 50.3218L50.3166 60.9822C50.3166 60.9822 50.3166 60.9822 50.3165 60.9823C49.8868 61.4117 49.1902 61.4114 48.7607 60.9817C48.3311 60.5519 48.3314 59.8552 48.7612 59.4257Z" fill="#1C1B1A" stroke="white" stroke-width="0.6"/>
<path d="M23.0392 48.7817L23.0392 48.7817C23.4629 48.358 24.1477 48.3514 24.5794 48.7666L35.2384 59.4271L35.2384 59.4271L35.2421 59.4307C35.5281 59.707 35.6428 60.1159 35.5421 60.5005C35.4414 60.8851 35.1412 61.1854 34.7566 61.2861C34.3719 61.3868 33.963 61.2721 33.6867 60.9861L33.6867 60.9861L33.6831 60.9824L23.0241 50.3219C22.6089 49.8903 22.6154 49.2055 23.0392 48.7817Z" fill="#1C1B1A" stroke="white" stroke-width="0.6"/>
<path d="M48.7614 23.0258L48.7614 23.0258C49.1909 22.5964 49.8872 22.5964 50.3167 23.0257C50.3168 23.0257 50.3168 23.0257 50.3168 23.0258L60.9758 33.6875C61.3909 34.1192 61.3844 34.8039 60.9607 35.2277L60.9606 35.2277C60.537 35.6515 59.8522 35.658 59.4205 35.2428L48.7615 24.5824L48.7613 24.5821C48.5547 24.376 48.4387 24.0961 48.4387 23.804C48.4387 23.5123 48.5548 23.2323 48.7614 23.0258Z" fill="#1C1B1A" stroke="white" stroke-width="0.6"/>
<path d="M83.5956 24.7395C83.6036 24.757 83.6124 24.7722 83.6208 24.7849C83.6721 24.9135 83.699 25.0507 83.7 25.1893C83.7 25.1897 83.7 25.19 83.7 25.1904V58.8206C83.7 58.821 83.7 58.8215 83.7 58.8219C83.6991 58.9625 83.6714 59.1014 83.6186 59.2315L83.5965 59.2858V59.2911C83.5459 59.3905 83.4805 59.4816 83.4024 59.5612L83.4022 59.5609L83.3928 59.5714C83.375 59.5913 83.3623 59.6101 83.3542 59.6233L59.5944 83.3732L59.8065 83.5854L59.5944 83.3732C59.3881 83.5796 59.1083 83.6955 58.8167 83.6955H25.1762C24.8846 83.6955 24.6049 83.5796 24.3986 83.3732L0.645739 59.623C0.637727 59.6101 0.62553 59.592 0.608426 59.5726L0.603172 59.5667L0.597611 59.561C0.519376 59.4813 0.453903 59.3902 0.403523 59.291V59.2855L0.38134 59.2311C0.328317 59.101 0.300726 58.962 0.3 58.8214V25.1905C0.302027 25.0486 0.331515 24.9084 0.38688 24.7775L0.387433 24.7762C0.39656 24.7605 0.405601 24.7419 0.41299 24.7206C0.464703 24.6055 0.536126 24.5 0.623953 24.4092L24.4056 0.62766C24.6119 0.42135 24.8917 0.305371 25.1833 0.305371H58.8164C59.1112 0.306098 59.3932 0.424966 59.5993 0.635338L59.6015 0.637527L83.3729 24.4035C83.3734 24.404 83.3739 24.4045 83.3744 24.405C83.4665 24.5004 83.5405 24.6116 83.5929 24.7334L83.5928 24.7334L83.5956 24.7395ZM83.3388 59.6502C83.3379 59.6519 83.3383 59.6512 83.339 59.6499L83.3388 59.6502ZM0.660989 59.6498L0.660756 59.6494C0.661494 59.6507 0.66185 59.6514 0.660989 59.6498ZM59.5204 3.66558L59.2029 3.34821L59.0311 3.7629L55.5507 12.1627L55.4739 12.348L55.6157 12.4897L71.5198 28.3882L71.6615 28.5299L71.8467 28.4532L80.2467 24.9743L80.6616 24.8024L80.344 24.485L59.5204 3.66558ZM70.3001 30.4063V30.282L70.2122 30.1942L53.8082 13.7932L53.7203 13.7053H53.5961H30.4037H30.2795L30.1916 13.7932L13.7878 30.1942L13.6999 30.282V30.4063V53.6043V53.7285L13.7878 53.8164L30.1916 70.2174L30.2795 70.3053H30.4037H53.5963H53.7205L53.8084 70.2174L70.2122 53.8164L70.3001 53.7285V53.6043V30.4063ZM56.9982 2.92026L57.17 2.50543H56.721H27.279H26.83L27.0019 2.92026L30.4823 11.3203L30.559 11.5054H30.7594H53.2406H53.441L53.5177 11.3203L56.9982 2.92026ZM24.9689 3.76159L24.797 3.34684L24.4796 3.6643L3.66023 24.4851L3.34276 24.8026L3.75758 24.9744L12.1576 28.4534L12.3428 28.5301L12.4845 28.3883L28.3843 12.4886L28.526 12.3468L28.4493 12.1616L24.9689 3.76159ZM2.91485 27.0057L2.50005 26.8339V27.2829V56.7275V57.1765L2.91485 57.0047L11.3148 53.5257L11.5001 53.449V53.2486V30.7618V30.5614L11.3148 30.4847L2.91485 27.0057ZM24.4796 80.3451L24.797 80.6626L24.9689 80.2478L28.4495 71.8478L28.5262 71.6626L28.3844 71.5209L12.4832 55.6224L12.3414 55.4807L12.1563 55.5574L3.75626 59.0363L3.34142 59.2081L3.65893 59.5256L24.4796 80.3451ZM27.0019 81.0905L26.83 81.5053H27.279H56.721H57.17L56.9982 81.0905L53.5177 72.6905L53.441 72.5053H53.2406H30.7594H30.559L30.4823 72.6905L27.0019 81.0905ZM59.0311 80.2492L59.203 80.6639L59.5204 80.3464L80.3398 59.5256L80.6572 59.2081L80.2424 59.0363L71.8424 55.5574L71.6572 55.4807L71.5155 55.6224L55.6157 71.5222L55.474 71.6639L55.5507 71.8492L59.0311 80.2492ZM81.0852 57.0049L81.5 57.1766V56.7277V27.2831V26.8341L81.0852 27.0059L72.6852 30.4848L72.4999 30.5615V30.762V53.2487V53.4492L72.6852 53.5259L81.0852 57.0049Z" fill="#1C1B1A" stroke="white" stroke-width="0.6"/>
</g>
<defs>
<clipPath id="clip0">
<rect width="84" height="84" fill="white"/>
</clipPath>
</defs>
</svg>
