<svg width="104" height="84" viewBox="0 0 104 84" fill="none" xmlns="http://www.w3.org/2000/svg">
<path fill-rule="evenodd" clip-rule="evenodd" d="M83 41.9998L82.9938 41.9999L82.9754 42.0002L82.9447 42.001L82.9017 42.0025L82.8465 42.005L82.7791 42.0087L82.6995 42.0139L82.6079 42.0208L82.5042 42.0296L82.3886 42.0406L82.2611 42.0541L82.1218 42.0702L81.9708 42.0892L81.8083 42.1112L81.6343 42.1367L81.4489 42.1656L81.2524 42.1984L81.0447 42.2351L80.8261 42.276L80.5967 42.3213L80.3567 42.3713L80.1063 42.426L79.8455 42.4856L79.5746 42.5505L79.2939 42.6207L79.0033 42.6965L78.7033 42.7779L78.3939 42.8652L78.0755 42.9585L77.7481 43.058L77.412 43.1638L77.0676 43.2761L76.7149 43.3949L76.3542 43.5205L75.9858 43.6529L75.6099 43.7922L75.2268 43.9386L74.8368 44.0922L74.44 44.253L74.0368 44.4211L73.6274 44.5966L73.2121 44.7796L72.7912 44.9701L72.3649 45.1682L71.9335 45.3739L71.4974 45.5873L71.0568 45.8083L70.6119 46.0371L70.1631 46.2736L69.7107 46.5179L69.2549 46.7698L68.7961 47.0295L68.3345 47.2969L67.8704 47.572L67.4041 47.8546L66.9359 48.1449L66.4662 48.4427L65.9951 48.748L65.523 49.0607L65.0502 49.3807L64.577 49.708L64.1035 50.0424L63.6303 50.3839L63.1574 50.7323L62.6852 51.0875L62.214 51.4495L61.744 51.818L61.2755 52.193L60.8088 52.5743L60.3442 52.9617L59.8818 53.3551L59.4221 53.7543L58.9651 54.1591L58.5112 54.5695L58.0606 54.985L57.6136 55.4057L57.1703 55.8313L56.731 56.2615L56.296 56.6962L55.8654 57.1351L55.4395 57.5781L55.0184 58.0248L54.6024 58.4752L54.1917 58.9288L53.7864 59.3855L53.3867 59.8451L52.9929 60.3072L52.605 60.7717L52.2232 61.2383L51.8477 61.7066L51.4787 62.1765L51.1162 62.6476L50.7604 63.1197L50.4114 63.5926L50.0694 64.0658L49.7344 64.5392L49.4065 65.0125L49.086 65.4854L48.7727 65.9575L48.4668 66.4287L48.1684 66.8986L47.8775 67.3669L47.5942 67.8333L47.3186 68.2976L47.0506 68.7594L46.7903 69.2185L46.5377 69.6745L46.2929 70.1272L46.0557 70.5763L45.8263 71.0215L45.6047 71.4625L45.3907 71.899L45.1843 72.3307L44.9856 72.7574L44.7945 73.1788L44.6109 73.5945L44.4348 74.0044L44.2661 74.4081L44.1048 74.8054L43.9507 75.196L43.8037 75.5797L43.6638 75.9562L43.5308 76.3252L43.4047 76.6864L43.2854 77.0398L43.1726 77.3849L43.0663 77.7217L42.9663 78.0497L42.8725 78.3689L42.7847 78.679L42.7028 78.9798L42.6266 79.2711L42.556 79.5527L42.4907 79.8243L42.4306 80.0859L42.3755 80.3372L42.3252 80.578L42.2796 80.8083L42.2383 81.0277L42.2012 81.2363L42.1682 81.4337L42.1389 81.62L42.1132 81.7949L42.0909 81.9584L42.0717 82.1102L42.0553 82.2505L42.0417 82.3789L42.0305 82.4955L42.0215 82.6001L42.0144 82.6927L42.0091 82.7732L42.0053 82.8416L42.0027 82.8978L42.0011 82.9417L42.0003 82.9734L42 82.9929L41.9999 83L41.9999 82.9948L41.9996 82.9774L41.9989 82.9476L41.9975 82.9056L41.995 82.8514L41.9914 82.7849L41.9864 82.7063L41.9796 82.6156L41.9709 82.5129L41.9601 82.3983L41.9468 82.2717L41.931 82.1334L41.9122 81.9833L41.8904 81.8217L41.8652 81.6486L41.8366 81.4641L41.8041 81.2685L41.7677 81.0617L41.7272 80.8439L41.6822 80.6154L41.6327 80.3763L41.5783 80.1266L41.5191 79.8667L41.4546 79.5966L41.3848 79.3166L41.3095 79.0269L41.2286 78.7276L41.1417 78.4189L41.0489 78.1012L40.9499 77.7745L40.8446 77.4391L40.7329 77.0953L40.6146 76.7433L40.4895 76.3832L40.3577 76.0154L40.2189 75.6401L40.0731 75.2576L39.9201 74.8681L39.7599 74.4718L39.5924 74.0691L39.4174 73.6602L39.2351 73.2454L39.0451 72.8249L38.8477 72.399L38.6426 71.9681L38.4298 71.5323L38.2093 71.092L37.9812 70.6475L37.7453 70.199L37.5016 69.7469L37.2503 69.2913L36.9912 68.8327L36.7244 68.3713L36.45 67.9074L36.1679 67.4413L35.8783 66.9733L35.5811 66.5036L35.2764 66.0327L34.9643 65.5606L34.6448 65.0879L34.3181 64.6146L33.9843 64.1412L33.6434 63.6679L33.2955 63.195L32.9408 62.7227L32.5794 62.2514L32.2113 61.7813L31.8369 61.3127L31.4561 60.8459L31.0692 60.3811L30.6763 59.9185L30.2775 59.4585L29.8731 59.0013L29.4632 58.5472L29.048 58.0963L28.6278 57.649L28.2026 57.2054L27.7727 56.7658L27.3384 56.3304L26.8998 55.8995L26.4571 55.4732L26.0107 55.0517L25.5606 54.6353L25.1072 54.2241L24.6508 53.8184L24.1914 53.4183L23.7295 53.024L23.2652 52.6356L22.7988 52.2533L22.3306 51.8773L21.8608 51.5077L21.3898 51.1447L20.9177 50.7884L20.4449 50.4389L19.9717 50.0963L19.4983 49.7607L19.025 49.4323L18.5521 49.1112L18.0799 48.7973L17.6086 48.4908L17.1386 48.1918L16.6702 47.9004L16.2036 47.6165L15.7391 47.3402L15.2771 47.0716L14.8178 46.8107L14.3615 46.5575L13.9085 46.312L13.4592 46.0743L13.0136 45.8443L12.5723 45.622L12.1354 45.4074L11.7033 45.2004L11.2762 45.0011L10.8544 44.8094L10.4382 44.6252L10.0279 44.4485L9.62365 44.2792L9.22583 44.1173L8.83468 43.9626L8.45045 43.8151L8.07341 43.6746L7.70381 43.5411L7.3419 43.4145L6.98792 43.2945L6.6421 43.1812L6.3047 43.0744L5.97593 42.9739L5.65602 42.8796L5.34519 42.7914L5.04365 42.709L4.75161 42.6324L4.46926 42.5613L4.1968 42.4956L3.93443 42.4351L3.68231 42.3796L3.44063 42.329L3.20955 42.2829L2.98923 42.2413L2.77982 42.204L2.58147 42.1706L2.39432 42.141L2.21849 42.1151L2.05411 42.0925L1.9013 42.073L1.76016 42.0565L1.63078 42.0426L1.51326 42.0312L1.40769 42.022L1.31412 42.0148L1.23264 42.0094L1.16329 42.0055L1.10613 42.0028L1.06119 42.0011L1.02851 42.0003L1.00811 41.9999L1 41.9998L1.00419 41.9998L1.02068 41.9996L1.04945 41.9989L1.09049 41.9975L1.14376 41.9952L1.20923 41.9917L1.28685 41.9867L1.37658 41.9801L1.47833 41.9716L1.59206 41.961L1.71766 41.9479L1.85507 41.9323L2.00418 41.9137L2.16488 41.8922L2.33708 41.8673L2.52063 41.8389L2.71543 41.8068L2.92133 41.7707L3.13819 41.7305L3.36586 41.6859L3.60419 41.6367L3.853 41.5828L4.11213 41.5239L4.38139 41.4599L4.66061 41.3905L4.94958 41.3157L5.24812 41.2351L5.55602 41.1488L5.87306 41.0564L6.19903 40.958L6.53371 40.8532L6.87687 40.7419L7.22827 40.6242L7.58768 40.4997L7.95486 40.3684L8.32956 40.2301L8.71152 40.0849L9.1005 39.9325L9.49622 39.7728L9.89843 39.6059L10.3069 39.4316L10.7212 39.2498L11.1413 39.0605L11.5667 38.8636L11.9973 38.6591L12.4327 38.4469L12.8726 38.2271L13.3168 37.9995L13.765 37.7642L14.2169 37.5212L14.6721 37.2705L15.1305 37.012L15.5917 36.7459L16.0554 36.472L16.5213 36.1906L16.9892 35.9015L17.4587 35.6049L17.9296 35.3008L18.4016 34.9893L18.8743 34.6704L19.3475 34.3443L19.8209 34.011L20.2942 33.6707L20.7672 33.3234L21.2395 32.9692L21.7109 32.6083L22.1811 32.2408L22.6498 31.8668L23.1168 31.4865L23.5818 31.1001L24.0445 30.7076L24.5047 30.3094L24.9622 29.9054L25.4166 29.4959L25.8677 29.0812L26.3153 28.6613L26.7592 28.2365L27.1991 27.807L27.6349 27.373L28.0662 26.9348L28.4929 26.4924L28.9147 26.0462L29.3315 25.5965L29.7431 25.1433L30.1493 24.6871L30.5499 24.228L30.9447 23.7662L31.3335 23.3021L31.7163 22.8359L32.0928 22.3678L32.4628 21.8981L32.8264 21.4272L33.1833 20.9552L33.5333 20.4825L33.8765 20.0093L34.2126 19.5358L34.5416 19.0625L34.8633 18.5896L35.1778 18.1173L35.4848 17.6459L35.7844 17.1758L36.0765 16.7073L36.361 16.2405L36.6379 15.7759L36.9071 15.3137L37.1686 14.8541L37.4224 14.3976L37.6685 13.9443L37.9069 13.4946L38.1375 13.0488L38.3604 12.6071L38.5756 12.1699L38.7832 11.7374L38.9831 11.3099L39.1754 10.8876L39.3602 10.471L39.5374 10.0602L39.7073 9.65543L39.8699 9.2571L40.0251 8.8654L40.1732 8.48061L40.3142 8.10299L40.4483 7.73279L40.5755 7.37025L40.6959 7.01563L40.8097 6.66916L40.9171 6.33108L41.0181 6.00161L41.1128 5.68099L41.2016 5.36942L41.2844 5.06713L41.3615 4.77432L41.433 4.4912L41.4991 4.21795L41.56 3.95476L41.6159 3.70182L41.6669 3.4593L41.7133 3.22737L41.7553 3.00618L41.793 2.7959L41.8267 2.59667L41.8565 2.40862L41.8828 2.23188L41.9056 2.06659L41.9253 1.91285L41.9421 1.77077L41.9561 1.64046L41.9677 1.52199L41.9771 1.41546L41.9844 1.32094L41.99 1.23849L41.994 1.16817L41.9968 1.11004L41.9985 1.06413L41.9995 1.03047L41.9998 1.00909L41.9999 1L41.9999 1.00321L42.0001 1.01872L42.0008 1.04651L42.0021 1.08657L42.0043 1.13887L42.0077 1.20338L42.0126 1.28003L42.019 1.36879L42.0274 1.4696L42.0379 1.58237L42.0507 1.70704L42.0662 1.84351L42.0844 1.99169L42.1058 2.15147L42.1304 2.32275L42.1585 2.50541L42.1903 2.69932L42.226 2.90434L42.2659 3.12034L42.3102 3.34715L42.359 3.58463L42.4125 3.83262L42.471 4.09093L42.5346 4.3594L42.6035 4.63783L42.6779 4.92604L42.758 5.22382L42.8439 5.53098L42.9357 5.8473L43.0337 6.17257L43.138 6.50656L43.2487 6.84906L43.366 7.19981L43.4899 7.5586L43.6207 7.92517L43.7584 8.29928L43.9031 8.68067L44.0549 9.0691L44.214 9.4643L44.3803 9.866L44.554 10.2739L44.7352 10.6879L44.9239 11.1075L45.1202 11.5325L45.3241 11.9626L45.5357 12.3977L45.7549 12.8372L45.9818 13.2811L46.2165 13.729L46.4589 14.1806L46.709 14.6356L46.9669 15.0937L47.2324 15.5547L47.5056 16.0182L47.7865 16.484L48.0749 16.9517L48.3709 17.4212L48.6744 17.8919L48.9854 18.3638L49.3036 18.8365L49.6292 19.3097L49.9619 19.7831L50.3017 20.2564L50.6485 20.7294L51.0021 21.2018L51.3625 21.6733L51.7294 22.1436L52.1029 22.6124L52.4827 23.0796L52.8686 23.5447L53.2606 24.0076L53.6585 24.4681L54.062 24.9257L54.471 25.3804L54.8853 25.8318L55.3048 26.2797L55.7292 26.7239L56.1583 27.1641L56.592 27.6002L57.0299 28.0319L57.4719 28.4589L57.9178 28.8812L58.3673 29.2984L58.8202 29.7104L59.2762 30.117L59.7351 30.5181L60.1967 30.9133L60.6606 31.3027L61.1267 31.6859L61.5946 32.0629L62.0641 32.4335L62.535 32.7976L63.0069 33.155L63.4796 33.5056L63.9528 33.8493L64.4262 34.186L64.8995 34.5155L65.3725 34.8379L65.8448 35.1529L66.3163 35.4605L66.7865 35.7607L67.2552 36.0534L67.7221 36.3385L68.1869 36.616L68.6493 36.8858L69.1091 37.148L69.5659 37.4024L70.0194 37.6491L70.4694 37.8881L70.9155 38.1193L71.3575 38.3428L71.7951 38.5587L72.228 38.7668L72.6559 38.9673L73.0786 39.1603L73.4957 39.3456L73.907 39.5235L74.3122 39.694L74.7111 39.8571L75.1033 40.0129L75.4887 40.1616L75.8669 40.3032L76.2377 40.4378L76.6008 40.5655L76.9561 40.6865L77.3032 40.8008L77.642 40.9087L77.9721 41.0102L78.2935 41.1054L78.6058 41.1946L78.9088 41.2779L79.2024 41.3554L79.4863 41.4274L79.7603 41.4939L80.0243 41.5553L80.2781 41.6115L80.5214 41.663L80.7542 41.7097L80.9763 41.752L81.1874 41.79L81.3875 41.824L81.5765 41.8542L81.7541 41.8807L81.9203 41.9038L82.075 41.9238L82.218 41.9408L82.3492 41.955L82.4687 41.9668L82.5761 41.9763L82.6716 41.9838L82.755 41.9895L82.8263 41.9937L82.8854 41.9965L82.9323 41.9983L82.9669 41.9993L82.9893 41.9997L82.9994 41.9998L83 41.9998Z" stroke="#1C1B1A"/>
<path fill-rule="evenodd" clip-rule="evenodd" d="M103 41.9998L102.994 41.9999L102.975 42.0002L102.945 42.001L102.902 42.0025L102.846 42.005L102.779 42.0087L102.7 42.0139L102.608 42.0208L102.504 42.0296L102.389 42.0406L102.261 42.0541L102.122 42.0702L101.971 42.0892L101.808 42.1112L101.634 42.1367L101.449 42.1656L101.252 42.1984L101.045 42.2351L100.826 42.276L100.597 42.3213L100.357 42.3713L100.106 42.426L99.8455 42.4856L99.5746 42.5505L99.2939 42.6207L99.0033 42.6965L98.7033 42.7779L98.3939 42.8652L98.0755 42.9585L97.7481 43.058L97.412 43.1638L97.0676 43.2761L96.7149 43.3949L96.3542 43.5205L95.9858 43.6529L95.6099 43.7922L95.2268 43.9386L94.8368 44.0922L94.44 44.253L94.0368 44.4211L93.6274 44.5966L93.2121 44.7796L92.7912 44.9701L92.3649 45.1682L91.9335 45.3739L91.4974 45.5873L91.0568 45.8083L90.6119 46.0371L90.1631 46.2736L89.7107 46.5179L89.2549 46.7698L88.7961 47.0295L88.3345 47.2969L87.8704 47.572L87.4041 47.8546L86.9359 48.1449L86.4662 48.4427L85.9951 48.748L85.523 49.0607L85.0502 49.3807L84.577 49.708L84.1035 50.0424L83.6303 50.3839L83.1574 50.7323L82.6852 51.0875L82.214 51.4495L81.744 51.818L81.2755 52.193L80.8088 52.5743L80.3442 52.9617L79.8818 53.3551L79.4221 53.7543L78.9651 54.1591L78.5112 54.5695L78.0606 54.985L77.6136 55.4057L77.1703 55.8313L76.731 56.2615L76.296 56.6962L75.8654 57.1351L75.4395 57.5781L75.0184 58.0248L74.6024 58.4752L74.1917 58.9288L73.7864 59.3855L73.3867 59.8451L72.9929 60.3072L72.605 60.7717L72.2232 61.2383L71.8477 61.7066L71.4787 62.1765L71.1162 62.6476L70.7604 63.1197L70.4114 63.5926L70.0694 64.0658L69.7344 64.5392L69.4065 65.0125L69.086 65.4854L68.7727 65.9575L68.4668 66.4287L68.1684 66.8986L67.8775 67.3669L67.5942 67.8333L67.3186 68.2976L67.0506 68.7594L66.7903 69.2185L66.5377 69.6745L66.2929 70.1272L66.0557 70.5763L65.8263 71.0215L65.6047 71.4625L65.3907 71.899L65.1843 72.3307L64.9856 72.7574L64.7945 73.1788L64.6109 73.5945L64.4348 74.0044L64.2661 74.4081L64.1048 74.8054L63.9507 75.196L63.8037 75.5797L63.6638 75.9562L63.5308 76.3252L63.4047 76.6864L63.2854 77.0398L63.1726 77.3849L63.0663 77.7217L62.9663 78.0497L62.8725 78.3689L62.7847 78.679L62.7028 78.9798L62.6266 79.2711L62.556 79.5527L62.4907 79.8243L62.4306 80.0859L62.3755 80.3372L62.3252 80.578L62.2796 80.8083L62.2383 81.0277L62.2012 81.2363L62.1682 81.4337L62.1389 81.62L62.1132 81.7949L62.0909 81.9584L62.0717 82.1102L62.0553 82.2505L62.0417 82.3789L62.0305 82.4955L62.0215 82.6001L62.0144 82.6927L62.0091 82.7732L62.0053 82.8416L62.0027 82.8978L62.0011 82.9417L62.0003 82.9734L62 82.9929L61.9999 83L61.9999 82.9948L61.9996 82.9774L61.9989 82.9476L61.9975 82.9056L61.995 82.8514L61.9914 82.7849L61.9864 82.7063L61.9796 82.6156L61.9709 82.5129L61.9601 82.3983L61.9468 82.2717L61.931 82.1334L61.9122 81.9833L61.8904 81.8217L61.8652 81.6486L61.8366 81.4641L61.8041 81.2685L61.7677 81.0617L61.7272 80.8439L61.6822 80.6154L61.6327 80.3763L61.5783 80.1266L61.5191 79.8667L61.4546 79.5966L61.3848 79.3166L61.3095 79.0269L61.2286 78.7276L61.1417 78.4189L61.0489 78.1012L60.9499 77.7745L60.8446 77.4391L60.7329 77.0953L60.6146 76.7433L60.4895 76.3832L60.3577 76.0154L60.2189 75.6401L60.0731 75.2576L59.9201 74.8681L59.7599 74.4718L59.5924 74.0691L59.4174 73.6602L59.2351 73.2454L59.0451 72.8249L58.8477 72.399L58.6426 71.9681L58.4298 71.5323L58.2093 71.092L57.9812 70.6475L57.7453 70.199L57.5016 69.7469L57.2503 69.2913L56.9912 68.8327L56.7244 68.3713L56.45 67.9074L56.1679 67.4413L55.8783 66.9733L55.5811 66.5036L55.2764 66.0327L54.9643 65.5606L54.6448 65.0879L54.3181 64.6146L53.9843 64.1412L53.6434 63.6679L53.2955 63.195L52.9408 62.7227L52.5794 62.2514L52.2113 61.7813L51.8369 61.3127L51.4561 60.8459L51.0692 60.3811L50.6763 59.9185L50.2775 59.4585L49.8731 59.0013L49.4632 58.5472L49.048 58.0963L48.6278 57.649L48.2026 57.2054L47.7727 56.7658L47.3384 56.3304L46.8998 55.8995L46.4571 55.4732L46.0107 55.0517L45.5606 54.6353L45.1072 54.2241L44.6508 53.8184L44.1914 53.4183L43.7295 53.024L43.2652 52.6356L42.7988 52.2533L42.3306 51.8773L41.8608 51.5077L41.3898 51.1447L40.9177 50.7884L40.4449 50.4389L39.9717 50.0963L39.4983 49.7607L39.025 49.4323L38.5521 49.1112L38.0799 48.7973L37.6086 48.4908L37.1386 48.1918L36.6702 47.9004L36.2036 47.6165L35.7391 47.3402L35.2771 47.0716L34.8178 46.8107L34.3615 46.5575L33.9085 46.312L33.4592 46.0743L33.0136 45.8443L32.5723 45.622L32.1354 45.4074L31.7033 45.2004L31.2762 45.0011L30.8544 44.8094L30.4382 44.6252L30.0279 44.4485L29.6236 44.2792L29.2258 44.1173L28.8347 43.9626L28.4505 43.8151L28.0734 43.6746L27.7038 43.5411L27.3419 43.4145L26.9879 43.2945L26.6421 43.1812L26.3047 43.0744L25.9759 42.9739L25.656 42.8796L25.3452 42.7914L25.0436 42.709L24.7516 42.6324L24.4693 42.5613L24.1968 42.4956L23.9344 42.4351L23.6823 42.3796L23.4406 42.329L23.2095 42.2829L22.9892 42.2413L22.7798 42.204L22.5815 42.1706L22.3943 42.141L22.2185 42.1151L22.0541 42.0925L21.9013 42.073L21.7602 42.0565L21.6308 42.0426L21.5133 42.0312L21.4077 42.022L21.3141 42.0148L21.2326 42.0094L21.1633 42.0055L21.1061 42.0028L21.0612 42.0011L21.0285 42.0003L21.0081 41.9999L21 41.9998L21.0042 41.9998L21.0207 41.9996L21.0494 41.9989L21.0905 41.9975L21.1438 41.9952L21.2092 41.9917L21.2869 41.9867L21.3766 41.9801L21.4783 41.9716L21.5921 41.961L21.7177 41.9479L21.8551 41.9323L22.0042 41.9137L22.1649 41.8922L22.3371 41.8673L22.5206 41.8389L22.7154 41.8068L22.9213 41.7707L23.1382 41.7305L23.3659 41.6859L23.6042 41.6367L23.853 41.5828L24.1121 41.5239L24.3814 41.4599L24.6606 41.3905L24.9496 41.3157L25.2481 41.2351L25.556 41.1488L25.8731 41.0564L26.199 40.958L26.5337 40.8532L26.8769 40.7419L27.2283 40.6242L27.5877 40.4997L27.9549 40.3684L28.3296 40.2301L28.7115 40.0849L29.1005 39.9325L29.4962 39.7728L29.8984 39.6059L30.3069 39.4316L30.7212 39.2498L31.1413 39.0605L31.5667 38.8636L31.9973 38.6591L32.4327 38.4469L32.8726 38.2271L33.3168 37.9995L33.765 37.7642L34.2169 37.5212L34.6721 37.2705L35.1305 37.012L35.5917 36.7459L36.0554 36.472L36.5213 36.1906L36.9892 35.9015L37.4587 35.6049L37.9296 35.3008L38.4016 34.9893L38.8743 34.6704L39.3475 34.3443L39.8209 34.011L40.2942 33.6707L40.7672 33.3234L41.2395 32.9692L41.7109 32.6083L42.1811 32.2408L42.6498 31.8668L43.1168 31.4865L43.5818 31.1001L44.0445 30.7076L44.5047 30.3094L44.9622 29.9054L45.4166 29.4959L45.8677 29.0812L46.3153 28.6613L46.7592 28.2365L47.1991 27.807L47.6349 27.373L48.0662 26.9348L48.4929 26.4924L48.9147 26.0462L49.3315 25.5965L49.7431 25.1433L50.1493 24.6871L50.5499 24.228L50.9447 23.7662L51.3335 23.3021L51.7163 22.8359L52.0928 22.3678L52.4628 21.8981L52.8264 21.4272L53.1833 20.9552L53.5333 20.4825L53.8765 20.0093L54.2126 19.5358L54.5416 19.0625L54.8633 18.5896L55.1778 18.1173L55.4848 17.6459L55.7844 17.1758L56.0765 16.7073L56.361 16.2405L56.6379 15.7759L56.9071 15.3137L57.1686 14.8541L57.4224 14.3976L57.6685 13.9443L57.9069 13.4946L58.1375 13.0488L58.3604 12.6071L58.5756 12.1699L58.7832 11.7374L58.9831 11.3099L59.1754 10.8876L59.3602 10.471L59.5374 10.0602L59.7073 9.65543L59.8699 9.2571L60.0251 8.8654L60.1732 8.48061L60.3142 8.10299L60.4483 7.73279L60.5755 7.37025L60.6959 7.01563L60.8097 6.66916L60.9171 6.33108L61.0181 6.00161L61.1128 5.68099L61.2016 5.36942L61.2844 5.06713L61.3615 4.77432L61.433 4.4912L61.4991 4.21795L61.56 3.95476L61.6159 3.70182L61.6669 3.4593L61.7133 3.22737L61.7553 3.00618L61.793 2.7959L61.8267 2.59667L61.8565 2.40862L61.8828 2.23188L61.9056 2.06659L61.9253 1.91285L61.9421 1.77077L61.9561 1.64046L61.9677 1.52199L61.9771 1.41546L61.9844 1.32094L61.99 1.23849L61.994 1.16817L61.9968 1.11004L61.9985 1.06413L61.9995 1.03047L61.9998 1.00909L61.9999 1L61.9999 1.00321L62.0001 1.01872L62.0008 1.04651L62.0021 1.08657L62.0043 1.13887L62.0077 1.20338L62.0126 1.28003L62.019 1.36879L62.0274 1.4696L62.0379 1.58237L62.0507 1.70704L62.0662 1.84351L62.0844 1.99169L62.1058 2.15147L62.1304 2.32275L62.1585 2.50541L62.1903 2.69932L62.226 2.90434L62.2659 3.12034L62.3102 3.34715L62.359 3.58463L62.4125 3.83262L62.471 4.09093L62.5346 4.3594L62.6035 4.63783L62.6779 4.92604L62.758 5.22382L62.8439 5.53098L62.9357 5.8473L63.0337 6.17257L63.138 6.50656L63.2487 6.84906L63.366 7.19981L63.4899 7.5586L63.6207 7.92517L63.7584 8.29928L63.9031 8.68067L64.0549 9.0691L64.214 9.4643L64.3803 9.866L64.554 10.2739L64.7352 10.6879L64.9239 11.1075L65.1202 11.5325L65.3241 11.9626L65.5357 12.3977L65.7549 12.8372L65.9818 13.2811L66.2165 13.729L66.4589 14.1806L66.709 14.6356L66.9669 15.0937L67.2324 15.5547L67.5056 16.0182L67.7865 16.484L68.0749 16.9517L68.3709 17.4212L68.6744 17.8919L68.9854 18.3638L69.3036 18.8365L69.6292 19.3097L69.9619 19.7831L70.3017 20.2564L70.6485 20.7294L71.0021 21.2018L71.3625 21.6733L71.7294 22.1436L72.1029 22.6124L72.4827 23.0796L72.8686 23.5447L73.2606 24.0076L73.6585 24.4681L74.062 24.9257L74.471 25.3804L74.8853 25.8318L75.3048 26.2797L75.7292 26.7239L76.1583 27.1641L76.592 27.6002L77.0299 28.0319L77.4719 28.4589L77.9178 28.8812L78.3673 29.2984L78.8202 29.7104L79.2762 30.117L79.7351 30.5181L80.1967 30.9133L80.6606 31.3027L81.1267 31.6859L81.5946 32.0629L82.0641 32.4335L82.535 32.7976L83.0069 33.155L83.4796 33.5056L83.9528 33.8493L84.4262 34.186L84.8995 34.5155L85.3725 34.8379L85.8448 35.1529L86.3163 35.4605L86.7865 35.7607L87.2552 36.0534L87.7221 36.3385L88.1869 36.616L88.6493 36.8858L89.1091 37.148L89.5659 37.4024L90.0194 37.6491L90.4694 37.8881L90.9155 38.1193L91.3575 38.3428L91.7951 38.5587L92.228 38.7668L92.6559 38.9673L93.0786 39.1603L93.4957 39.3456L93.907 39.5235L94.3122 39.694L94.7111 39.8571L95.1033 40.0129L95.4887 40.1616L95.8669 40.3032L96.2377 40.4378L96.6008 40.5655L96.9561 40.6865L97.3032 40.8008L97.642 40.9087L97.9721 41.0102L98.2935 41.1054L98.6058 41.1946L98.9088 41.2779L99.2024 41.3554L99.4863 41.4274L99.7603 41.4939L100.024 41.5553L100.278 41.6115L100.521 41.663L100.754 41.7097L100.976 41.752L101.187 41.79L101.388 41.824L101.576 41.8542L101.754 41.8807L101.92 41.9038L102.075 41.9238L102.218 41.9408L102.349 41.955L102.469 41.9668L102.576 41.9763L102.672 41.9838L102.755 41.9895L102.826 41.9937L102.885 41.9965L102.932 41.9983L102.967 41.9993L102.989 41.9997L102.999 41.9998L103 41.9998Z" stroke="#1C1B1A"/>
</svg>
