<svg width="32" height="32" viewBox="0 0 32 32" fill="none" xmlns="http://www.w3.org/2000/svg">
<g clip-path="url(#clip0)">
<path d="M29.8784 30.9482L27.4463 7.78734C27.3953 7.30248 26.9866 6.93431 26.499 6.93431H21.9277V5.89208C21.9277 2.64331 19.2844 0 16.0357 0C12.7866 0 10.1433 2.64331 10.1433 5.89208V6.93431H5.57206C5.08451 6.93431 4.67582 7.30248 4.62479 7.78734L2.19267 30.9482C2.16459 31.2165 2.25175 31.4843 2.43217 31.685C2.61284 31.8854 2.87016 31.9999 3.13993 31.9999H28.9309C29.2009 31.9999 29.4582 31.8854 29.6387 31.685C29.8196 31.4843 29.9065 31.2165 29.8784 30.9482ZM12.0481 5.89208C12.0481 3.6936 13.8369 1.90478 16.0357 1.90478C18.2341 1.90478 20.023 3.6936 20.023 5.89208V6.93431H12.0481V5.89208ZM4.19755 30.0952L6.42972 8.83909H10.1433V10.938C10.1433 11.4638 10.5699 11.8904 11.0957 11.8904C11.6216 11.8904 12.0481 11.4638 12.0481 10.938V8.83909H20.023V10.938C20.023 11.4638 20.4495 11.8904 20.9753 11.8904C21.5012 11.8904 21.9277 11.4638 21.9277 10.938V8.83909H25.6414L27.8735 30.0952H4.19755Z" fill="#1C1B1A"/>
</g>
<defs>
<clipPath id="clip0">
<rect width="32" height="32" fill="white"/>
</clipPath>
</defs>
</svg>
