<svg width="64" height="52" viewBox="0 0 64 52" fill="none" xmlns="http://www.w3.org/2000/svg">
<path fill-rule="evenodd" clip-rule="evenodd" d="M57.4615 26L57.4577 26L57.4464 26.0002L57.4275 26.0007L57.401 26.0016L57.3671 26.0032L57.3256 26.0055L57.2766 26.0087L57.2202 26.013L57.1564 26.0184L57.0853 26.0252L57.0068 26.0336L56.9211 26.0436L56.8282 26.0553L56.7282 26.0689L56.6211 26.0847L56.507 26.1026L56.3861 26.1229L56.2583 26.1456L56.1238 26.1709L55.9826 26.199L55.8349 26.2299L55.6808 26.2638L55.5203 26.3007L55.3536 26.3409L55.1809 26.3843L55.002 26.4313L54.8174 26.4816L54.627 26.5357L54.4311 26.5934L54.2296 26.655L54.0228 26.7205L53.8108 26.7901L53.5938 26.8636L53.3718 26.9414L53.1451 27.0233L52.9138 27.1095L52.678 27.2002L52.438 27.2953L52.1938 27.3948L51.9457 27.4989L51.6938 27.6075L51.4382 27.7208L51.1792 27.8387L50.9169 27.9614L50.6514 28.0887L50.383 28.2208L50.1119 28.3576L49.8381 28.4993L49.5619 28.6457L49.2835 28.7969L49.003 28.9528L48.7207 29.1136L48.4366 29.2791L48.151 29.4494L47.8641 29.6244L47.5759 29.8041L47.2869 29.9884L46.997 30.1774L46.7065 30.371L46.4155 30.5691L46.1243 30.7717L45.8329 30.9787L45.5417 31.1901L45.2507 31.4058L44.9601 31.6257L44.6702 31.8498L44.3809 32.0779L44.0926 32.31L43.8054 32.5461L43.5195 32.7859L43.235 33.0294L42.9521 33.2766L42.6708 33.5272L42.3915 33.7812L42.1142 34.0384L41.8391 34.2989L41.5663 34.5623L41.296 34.8286L41.0283 35.0977L40.7633 35.3694L40.5012 35.6437L40.2421 35.9202L39.9861 36.199L39.7334 36.4798L39.4839 36.7625L39.238 37.0471L38.9956 37.3331L38.7569 37.6207L38.522 37.9095L38.2909 38.1994L38.0638 38.4903L37.8407 38.7819L37.6218 39.0742L37.407 39.3669L37.1966 39.6599L36.9904 39.9529L36.7886 40.2459L36.5914 40.5387L36.3986 40.8309L36.2103 41.1226L36.0267 41.4135L35.8477 41.7034L35.6734 41.9921L35.5038 42.2796L35.3388 42.5654L35.1786 42.8496L35.0232 43.1319L34.8726 43.4122L34.7266 43.6902L34.5854 43.9658L34.449 44.2388L34.3174 44.509L34.1903 44.7762L34.0681 45.0404L33.9505 45.3013L33.8375 45.5586L33.7291 45.8123L33.6253 46.0622L33.526 46.3082L33.4312 46.55L33.3407 46.7875L33.2546 47.0206L33.1728 47.249L33.0952 47.4726L33.0218 47.6914L32.9524 47.905L32.887 48.1135L32.8254 48.3166L32.7677 48.5142L32.7137 48.7061L32.6633 48.8923L32.6164 49.0727L32.5729 49.247L32.5327 49.4151L32.4958 49.5771L32.4618 49.7326L32.4309 49.8817L32.4028 50.0243L32.3774 50.1601L32.3546 50.2892L32.3343 50.4114L32.3162 50.5268L32.3004 50.635L32.2867 50.7362L32.2749 50.8302L32.2648 50.9171L32.2564 50.9966L32.2495 51.0687L32.244 51.1335L32.2396 51.1908L32.2364 51.2406L32.234 51.283L32.2324 51.3178L32.2314 51.345L32.231 51.3646L32.2308 51.3766L32.2307 51.381V51.3778L32.2305 51.3671L32.2301 51.3486L32.2292 51.3226L32.2277 51.2891L32.2255 51.2479L32.2224 51.1992L32.2182 51.1431L32.2129 51.0795L32.2062 51.0086L32.198 50.9302L32.1883 50.8446L32.1767 50.7517L32.1633 50.6516L32.1478 50.5445L32.1302 50.4302L32.1102 50.3092L32.0878 50.1811L32.0629 50.0463L32.0352 49.9049L32.0047 49.7568L31.9713 49.6023L31.9348 49.4414L31.8951 49.2742L31.8522 49.1008L31.8058 48.9215L31.7561 48.7362L31.7026 48.5451L31.6455 48.3484L31.5846 48.1462L31.5198 47.9386L31.451 47.7257L31.3782 47.5078L31.3012 47.2849L31.2201 47.0572L31.1347 46.8249L31.045 46.5881L30.9508 46.347L30.8522 46.1017L30.7492 45.8524L30.6415 45.5993L30.5293 45.3425L30.4124 45.0822L30.2909 44.8185L30.1647 44.5518L30.0337 44.282L29.898 44.0094L29.7577 43.7343L29.6125 43.4566L29.4625 43.1767L29.3079 42.8947L29.1484 42.6108L28.9842 42.3252L28.8154 42.038L28.6418 41.7495L28.4636 41.4598L28.2807 41.169L28.0932 40.8775L27.9011 40.5852L27.7045 40.2926L27.5034 39.9996L27.298 39.7065L27.0882 39.4136L26.8742 39.1208L26.6559 38.8284L26.4335 38.5367L26.207 38.2457L25.9766 37.9556L25.7422 37.6666L25.5041 37.3789L25.2623 37.0925L25.0169 36.8077L24.7681 36.5247L24.5158 36.2436L24.2603 35.9645L24.0017 35.6876L23.7401 35.413L23.4755 35.1408L23.2082 34.8713L22.9383 34.6045L22.6659 34.3406L22.3912 34.0797L22.1142 33.8219L21.8352 33.5674L21.5543 33.3162L21.2716 33.0686L20.9874 32.8245L20.7017 32.584L20.4146 32.3474L20.1265 32.1146L19.8374 31.8858L19.5476 31.6611L19.257 31.4405L18.9661 31.2242L18.6749 31.0121L18.3836 30.8043L18.0923 30.601L17.8013 30.4023L17.5107 30.2079L17.2207 30.0182L16.9314 29.8331L16.6432 29.6527L16.3561 29.477L16.0702 29.3059L15.7859 29.1397L15.5033 28.9781L15.2225 28.8214L14.9437 28.6694L14.6672 28.5223L14.393 28.3799L14.1214 28.2423L13.8526 28.1094L13.5866 27.9813L13.3238 27.8579L13.0642 27.7392L12.8081 27.6252L12.5556 27.5158L12.3069 27.411L12.062 27.3108L11.8213 27.215L11.5849 27.1237L11.3529 27.0367L11.1254 26.9541L10.9027 26.8757L10.6849 26.8014L10.4721 26.7313L10.2644 26.6652L10.0621 26.603L9.86524 26.5446L9.67396 26.49L9.4884 26.439L9.30868 26.3916L9.13493 26.3476L8.96726 26.3069L8.8058 26.2694L8.65065 26.2351L8.50193 26.2038L8.35972 26.1752L8.22414 26.1495L8.09527 26.1264L7.97321 26.1057L7.85804 26.0874L7.74984 26.0713L7.64868 26.0574L7.55465 26.0453L7.46779 26.0351L7.38817 26.0265L7.31585 26.0194L7.25089 26.0137L7.1933 26.0093L7.14316 26.0059L7.10049 26.0035L7.06531 26.0018L7.03766 26.0008L7.01754 26.0003L7.00499 26L7 26H7.00258L7.01273 25.9998L7.03043 25.9994L7.05569 25.9985L7.08847 25.9971L7.12876 25.995L7.17652 25.9919L7.23174 25.9878L7.29436 25.9825L7.36434 25.9759L7.44164 25.9678L7.5262 25.9582L7.61796 25.9467L7.71685 25.9334L7.82282 25.9179L7.93577 25.9004L8.05565 25.8805L8.18236 25.8581L8.31581 25.8333L8.45591 25.8056L8.60258 25.7752L8.75569 25.7418L8.91516 25.7054L9.08086 25.6657L9.25268 25.6228L9.43051 25.5765L9.61423 25.5266L9.8037 25.4732L9.99881 25.416L10.1994 25.355L10.4054 25.2902L10.6165 25.2213L10.8328 25.1484L11.054 25.0713L11.2799 24.9901L11.5105 24.9044L11.7456 24.8146L11.9849 24.7202L12.2284 24.6213L12.476 24.518L12.7273 24.4101L12.9823 24.2976L13.2408 24.1804L13.5026 24.0585L13.7676 23.9319L14.0355 23.8006L14.3062 23.6645L14.5796 23.5236L14.8554 23.3779L15.1335 23.2275L15.4136 23.0723L15.6957 22.9123L15.9795 22.7476L16.2649 22.578L16.5516 22.4038L16.8395 22.2248L17.1284 22.0412L17.4182 21.853L17.7087 21.6601L17.9996 21.4627L18.2908 21.2608L18.5821 21.0545L18.8734 20.8439L19.1644 20.6289L19.4551 20.4096L19.7452 20.1862L20.0345 19.9587L20.323 19.7272L20.6103 19.4917L20.8965 19.2525L21.1812 19.0096L21.4644 18.7631L21.746 18.513L22.0256 18.2595L22.3032 18.0027L22.5786 17.7428L22.8518 17.4798L23.1225 17.2139L23.3907 16.9453L23.6561 16.674L23.9187 16.4001L24.1783 16.1239L24.4348 15.8455L24.6881 15.565L24.938 15.2826L25.1846 14.9984L25.4275 14.7125L25.6668 14.4252L25.9023 14.1366L26.134 13.8468L26.3617 13.5561L26.5855 13.2645L26.8051 12.9724L27.0205 12.6797L27.2317 12.3868L27.4385 12.0937L27.641 11.8007L27.839 11.5079L28.0325 11.2156L28.2214 10.9237L28.4058 10.6327L28.5855 10.3427L28.7606 10.0537L28.931 9.76613L29.0967 9.48L29.2576 9.19549L29.4138 8.91289L29.5652 8.63228L29.7119 8.35389L29.8538 8.07792L29.991 7.80449L30.1234 7.53384L30.2512 7.2661L30.3742 7.00146L30.4926 6.74004L30.6063 6.48214L30.7153 6.22784L30.8199 5.97726L30.9199 5.73068L31.0154 5.4882L31.1066 5.24999L31.1934 5.01623L31.2759 4.78706L31.3542 4.56263L31.4282 4.3431L31.4983 4.12862L31.5644 3.91933L31.6265 3.71538L31.6848 3.5169L31.7394 3.32402L31.7904 3.13689L31.8378 2.95562L31.8818 2.78036L31.9225 2.6112L31.96 2.44828L31.9944 2.2917L32.0258 2.14156L32.0543 1.99799L32.0802 1.86106L32.1034 1.73089L32.1241 1.60756L32.1425 1.49114L32.1586 1.38173L32.1727 1.27941L32.1848 1.18424L32.1951 1.09628L32.2038 1.01562L32.2109 0.942277L32.2167 0.87633L32.2212 0.817818L32.2246 0.766777L32.2271 0.723246L32.2288 0.687261L32.2298 0.65884L32.2305 0.638003L32.2306 0.624768L32.2307 0.619141V0.621128L32.2308 0.630729L32.2313 0.647933L32.2321 0.672732L32.2334 0.705108L32.2355 0.745043L32.2385 0.792493L32.2425 0.847439L32.2476 0.909845L32.2541 0.979655L32.262 1.05683L32.2715 1.14131L32.2827 1.23304L32.2959 1.33196L32.311 1.43799L32.3283 1.55106L32.3479 1.6711L32.3698 1.79802L32.3944 1.93173L32.4217 2.07214L32.4517 2.21915L32.4846 2.37267L32.5206 2.53257L32.5598 2.69877L32.6022 2.87113L32.6479 3.04955L32.6972 3.23389L32.7501 3.42403L32.8066 3.61985L32.8669 3.82121L32.9311 4.02796L32.9992 4.23999L33.0714 4.45712L33.1476 4.67923L33.2281 4.90615L33.3129 5.13774L33.4019 5.37384L33.4953 5.6143L33.5932 5.85895L33.6956 6.10762L33.8025 6.36013L33.914 6.61641L34.0301 6.87616L34.1509 7.13926L34.2764 7.40551L34.4066 7.67486L34.5415 7.94693L34.6811 8.22173L34.8255 8.499L34.9747 8.77856L35.1286 9.06023L35.2873 9.34381L35.4507 9.62919L35.6188 9.91612L35.7917 10.2045L35.9692 10.494L36.1513 10.7846L36.3381 11.076L36.5295 11.3682L36.7253 11.6608L36.9257 11.9537L37.1304 12.2468L37.3395 12.5398L37.5529 12.8326L37.7705 13.125L37.9923 13.4169L38.2181 13.708L38.4479 13.9982L38.6817 14.2875L38.9191 14.5754L39.1604 14.8619L39.4052 15.147L39.6535 15.4303L39.9052 15.7118L40.1602 15.9912L40.4183 16.2685L40.6795 16.5435L40.9436 16.816L41.2105 17.0859L41.4799 17.3532L41.7519 17.6175L42.0263 17.8789L42.303 18.1372L42.5817 18.3922L42.8623 18.6439L43.1447 18.8923L43.4287 19.1369L43.7142 19.378L44.001 19.6152L44.289 19.8486L44.5779 20.078L44.8677 20.3034L45.1581 20.5246L45.449 20.7417L45.7402 20.9544L46.0315 21.1629L46.3228 21.3668L46.6138 21.5664L46.9045 21.7614L47.1946 21.9518L47.484 22.1377L47.7724 22.3189L48.0597 22.4954L48.3458 22.6671L48.6303 22.8342L48.9133 22.9965L49.1944 23.154L49.4735 23.3067L49.7504 23.4546L50.0249 23.5978L50.2969 23.7361L50.5662 23.8698L50.8326 23.9986L51.0959 24.1227L51.3561 24.2422L51.6127 24.3569L51.8658 24.467L52.1152 24.5726L52.3607 24.6735L52.602 24.77L52.8392 24.862L53.0719 24.9497L53.3001 25.033L53.5236 25.1121L53.7422 25.187L53.9558 25.2577L54.1643 25.3245L54.3674 25.3874L54.5652 25.4463L54.7574 25.5015L54.9439 25.5531L55.1245 25.6011L55.2993 25.6456L55.4679 25.6868L55.6303 25.7248L55.7865 25.7596L55.9362 25.7915L56.0795 25.8204L56.2162 25.8466L56.3461 25.8701L56.4692 25.8911L56.5855 25.9098L56.6948 25.9262L56.7971 25.9405L56.8923 25.9529L56.9803 25.9634L57.061 25.9722L57.1346 25.9795L57.2007 25.9854L57.2594 25.9901L57.3108 25.9936L57.3546 25.9962L57.391 25.9979L57.4199 25.999L57.4412 25.9997L57.455 25.9999L57.4612 26H57.4615Z" fill="#1C1B1A"/>
</svg>
