<svg width="84" height="84" viewBox="0 0 84 84" fill="none" xmlns="http://www.w3.org/2000/svg">
<mask id="path-1-inside-1" fill="white">
<path d="M84 44.8326C84 41.6825 82.228 38.8002 79.4171 37.3783C81.2969 34.9795 81.7256 31.7489 80.5365 28.943C79.3473 26.137 76.7278 24.1983 73.6967 23.8808C74.9226 20.5207 73.8814 16.7526 71.1042 14.4986C68.3269 12.2445 64.4255 12.0009 61.3894 13.8917L57.9033 10.0444C59.0615 8.27894 59.1017 6.00487 58.0069 4.19936L58.3905 3.81578C58.921 3.2665 58.9135 2.39319 58.3734 1.85326C57.8333 1.31317 56.9602 1.30562 56.4109 1.8362L56.0273 2.21978C55.1733 1.70708 54.1967 1.43474 53.2007 1.43162C50.1079 1.43162 47.6007 3.93883 47.6007 7.03158C47.6007 7.8048 48.2274 8.43152 49.0006 8.43152C49.7739 8.43152 50.4006 7.8048 50.4006 7.03158C50.4014 5.9002 51.0829 4.88055 52.128 4.44709C53.1731 4.01364 54.3762 4.25186 55.1774 5.05052C55.7105 5.58224 56.0058 6.30707 55.996 7.05996C55.9863 7.81284 55.6723 8.5298 55.1256 9.04758L55.113 9.05595C54.5983 9.54994 53.9138 9.82753 53.2005 9.83147C52.4273 9.83147 51.8005 10.4582 51.8005 11.2314C51.8005 12.0046 52.4273 12.6314 53.2005 12.6314C54.1235 12.6248 55.0303 12.3876 55.8381 11.9412L59.2821 15.7422C57.3396 18.1301 56.8602 21.3899 58.0335 24.2357C59.2065 27.0817 61.8436 29.0568 64.9046 29.3823C63.4577 33.3541 65.2096 37.7806 68.9828 39.6863C66.6066 42.7047 66.6066 46.9579 68.9828 49.9763C66.1747 51.4015 64.4042 54.2821 64.4006 57.4313C60.2517 57.4363 56.7278 60.4695 56.1056 64.5714C55.6091 64.4801 55.1054 64.4332 54.6006 64.4314C51.8402 64.4363 49.2586 65.7971 47.6944 68.0715C46.1491 66.63 44.1139 65.8292 42.0006 65.8315C39.8873 65.8295 37.8522 66.6302 36.3068 68.0715C34.7426 65.7971 32.1609 64.4363 29.4006 64.4314C28.8957 64.4334 28.3921 64.4801 27.8956 64.5714C27.2733 60.4695 23.7494 57.4363 19.6006 57.4313C19.5973 54.2821 17.8259 51.4015 15.017 49.9776C17.3951 46.9594 17.3951 42.7046 15.017 39.6861C18.7913 37.7814 20.5439 33.3543 19.0966 29.3822C22.1575 29.0567 24.7947 27.0815 25.9677 24.2355C27.1408 21.3895 26.6615 18.1298 24.719 15.742L28.163 11.941C28.9709 12.3874 29.8776 12.6246 30.8007 12.6312C33.3783 12.6458 35.6369 10.9087 36.2843 8.41364C36.9317 5.91857 35.8026 3.30243 33.543 2.06195C31.2833 0.82147 28.47 1.2733 26.7125 3.15904C24.9551 5.04461 24.702 7.88273 26.0981 10.0497L22.6121 13.8912C19.5771 12.0015 15.6777 12.245 12.9012 14.4974C10.1248 16.7498 9.08268 20.5152 10.3061 23.8746C7.27504 24.1914 4.65528 26.1295 3.4655 28.9353C2.27572 31.7409 2.70359 34.9715 4.58293 37.3707C1.77188 38.7936 0 41.6761 0 44.8262C0 47.9764 1.77188 50.8588 4.5826 52.2812C2.60072 54.8076 2.237 58.2446 3.64613 61.13C5.05527 64.0153 7.98937 65.8415 11.2004 65.8318C11.205 70.4691 14.9632 74.2273 19.6004 74.2319C20.1052 74.2301 20.6089 74.1831 21.1054 74.0919C21.5641 77.165 23.6853 79.7321 26.6169 80.7617C29.5484 81.7914 32.8091 81.1145 35.0886 79.0031C35.377 79.4213 35.7022 79.8131 36.0602 80.1736C37.6324 81.7535 39.7715 82.6388 42.0004 82.632C44.229 82.6383 46.3676 81.7525 47.9392 80.1722C48.3004 79.812 48.6284 79.4197 48.9191 79.0005C51.1986 81.1077 54.4561 81.7824 57.3849 80.7537C60.3138 79.725 62.4341 77.1619 62.8955 74.0921C63.3919 74.1833 63.8956 74.2302 64.4004 74.232C69.0376 74.2274 72.7958 70.4692 72.8004 65.832C76.0096 65.8405 78.9418 64.015 80.3503 61.1314C81.7589 58.2479 81.3963 54.8131 79.4167 52.287C82.228 50.8649 84 47.9826 84 44.8326ZM28.2072 5.99535C28.6304 4.93321 29.657 4.23512 30.8005 4.23184C32.0594 4.22659 33.1668 5.06217 33.5075 6.27393C33.8483 7.4857 33.3384 8.77606 32.2613 9.42755C31.1842 10.079 29.8046 9.93171 28.8895 9.06743L28.8769 9.05906C28.049 8.27025 27.784 7.0575 28.2072 5.99535ZM18.2005 15.4318C21.2932 15.4318 23.8004 17.939 23.8004 21.0317C23.8004 24.1245 21.2932 26.6317 18.2005 26.6317C17.9096 26.6226 17.6199 26.5911 17.3339 26.5378C16.3261 25.4463 15.0446 24.6439 13.6225 24.2139C12.9623 23.2836 12.6053 22.1723 12.6005 21.0317C12.6005 17.939 15.1077 15.4318 18.2005 15.4318ZM5.94022 30.2904C6.75217 28.0879 8.85299 26.6266 11.2006 26.6318C12.9001 26.6244 14.5087 27.3988 15.563 28.7318C15.5968 28.7742 15.6334 28.8144 15.6723 28.8523C16.7894 30.3316 17.0998 32.2689 16.5009 34.0232C15.9021 35.7775 14.4718 37.1205 12.6834 37.608C11.1489 36.6792 9.34994 36.2853 7.56773 36.4879C5.77813 34.9682 5.12828 32.493 5.94022 30.2904ZM2.80039 44.8318C2.79579 42.1256 4.73075 39.8048 7.39382 39.3227C8.87678 39.034 10.4129 39.3736 11.6358 40.2607C13.0459 41.2567 13.9165 42.8489 13.9941 44.5737C14.0717 46.2985 13.3473 47.9623 12.032 49.0807C10.2511 48.8843 8.45498 49.2777 6.91919 50.2008C4.49237 49.5453 2.80498 47.3457 2.80039 44.8318ZM11.7143 62.9745C11.5407 62.9899 11.3881 63.032 11.2004 63.032C8.10766 63.032 5.60045 60.5247 5.60045 57.432C5.60373 55.6168 6.48327 53.9148 7.9623 52.8624C9.18571 51.9813 10.7172 51.6412 12.1987 51.9216C14.8652 52.4007 16.8045 54.7228 16.8005 57.432C16.7899 57.6046 16.7703 57.7765 16.7418 57.9472C14.4093 58.8039 12.571 60.642 11.7143 62.9745ZM21.1853 71.1757C20.6724 71.3385 20.1384 71.4249 19.6004 71.432C18.1152 71.432 16.6908 70.842 15.6406 69.7918C14.5904 68.7417 14.0005 67.3173 14.0005 65.832C13.9955 65.4079 14.0426 64.9848 14.1404 64.572C14.6347 62.4871 16.2654 60.8607 18.3516 60.372C18.7606 60.2749 19.1799 60.228 19.6004 60.2321C22.5892 60.2426 25.043 62.5983 25.1753 65.5843C23.1014 66.7857 21.6469 68.8239 21.1853 71.1757ZM33.844 76.2157C32.7942 77.6127 31.1478 78.4338 29.4004 78.4319C26.3076 78.4319 23.8004 75.9247 23.8004 72.8319C23.8013 72.6683 23.8134 72.5051 23.8369 72.3433C24.0042 70.3109 25.2698 68.533 27.1353 67.7094C27.8477 67.3904 28.6201 67.2277 29.4006 67.232C31.586 67.2356 33.5699 68.5103 34.4811 70.4968C33.9016 71.6566 33.6001 72.9354 33.6006 74.232C33.6035 74.9004 33.6852 75.5663 33.844 76.2157ZM42.0006 79.832C38.9078 79.832 36.4006 77.3248 36.4006 74.232C36.4006 71.1393 38.9078 68.6321 42.0006 68.6321C45.0933 68.6321 47.6005 71.1393 47.6005 74.232C47.6005 77.3248 45.0933 79.832 42.0006 79.832ZM66.6671 26.5367C66.3813 26.592 66.0914 26.6238 65.8005 26.6318C62.7078 26.6318 60.2006 24.1246 60.2006 21.0319C60.191 18.6174 61.7303 16.4686 64.0195 15.7007C66.3086 14.9327 68.8322 15.7185 70.2807 17.6502C71.7293 19.5819 71.7767 22.2246 70.398 24.207C68.9686 24.6358 67.68 25.4404 66.6671 26.5367ZM67.2006 32.2318C67.1983 31.0151 67.5914 29.8304 68.3207 28.8564C68.3601 28.8176 68.397 28.7765 68.4313 28.7331C69.2033 27.7594 70.2793 27.0723 71.4874 26.7816C71.5184 26.7777 71.5493 26.7719 71.5798 26.7649C71.9804 26.6747 72.3899 26.63 72.8006 26.6318C75.1457 26.6292 77.2434 28.09 78.0545 30.2904C78.8657 32.4908 78.2179 34.9636 76.4323 36.4836C74.6514 36.2863 72.8549 36.6799 71.3194 37.6037C68.8915 36.9478 67.2039 34.7469 67.2006 32.2318ZM54.6006 78.4319C52.8528 78.4335 51.2061 77.6125 50.1556 76.2157C50.6332 74.2942 50.4078 72.2651 49.5201 70.4953C50.4318 68.5095 52.4154 67.2352 54.6006 67.232C55.3842 67.2279 56.1595 67.3921 56.8742 67.7135C58.7584 68.5568 60.026 70.3682 60.1727 72.4273C60.192 72.5614 60.2014 72.6966 60.2007 72.8319C60.2006 75.9247 57.6934 78.4319 54.6006 78.4319ZM64.4006 71.432C63.8618 71.4243 63.3269 71.338 62.8129 71.1757C62.3485 68.8258 60.896 66.789 58.8257 65.5841C58.9579 62.5982 61.4117 60.2424 64.4006 60.2319C64.8247 60.227 65.2478 60.2741 65.6606 60.3718C67.7455 60.8662 69.3718 62.4968 69.8606 64.583C69.9577 64.992 70.0046 65.4114 70.0005 65.8318C70.0005 68.9248 67.4933 71.432 64.4006 71.432ZM78.1374 59.1294C77.3981 61.4535 75.2395 63.0319 72.8006 63.0318C72.628 63.0211 72.4561 63.0016 72.2854 62.9731C71.4287 60.6407 69.5904 58.8024 67.258 57.9457C67.2426 57.7721 67.2006 57.6195 67.2006 57.4318C67.196 54.7256 69.131 52.4048 71.7941 51.9228C73.277 51.6338 74.8133 51.9735 76.0361 52.8607C78.0268 54.2698 78.8767 56.8053 78.1374 59.1294ZM77.0831 50.2163V50.2093C75.5491 49.2792 73.7497 48.8853 71.9675 49.0892C70.6527 47.9707 69.9285 46.3072 70.0058 44.5826C70.083 42.858 70.9527 41.2659 72.3624 40.2692C73.5853 39.3869 75.1173 39.0466 76.5988 39.3285C79.1697 39.789 81.0784 41.9694 81.1944 44.5787C81.3105 47.1879 79.603 49.5293 77.0831 50.2163Z"/>
</mask>
<path d="M84 44.8326C84 41.6825 82.228 38.8002 79.4171 37.3783C81.2969 34.9795 81.7256 31.7489 80.5365 28.943C79.3473 26.137 76.7278 24.1983 73.6967 23.8808C74.9226 20.5207 73.8814 16.7526 71.1042 14.4986C68.3269 12.2445 64.4255 12.0009 61.3894 13.8917L57.9033 10.0444C59.0615 8.27894 59.1017 6.00487 58.0069 4.19936L58.3905 3.81578C58.921 3.2665 58.9135 2.39319 58.3734 1.85326C57.8333 1.31317 56.9602 1.30562 56.4109 1.8362L56.0273 2.21978C55.1733 1.70708 54.1967 1.43474 53.2007 1.43162C50.1079 1.43162 47.6007 3.93883 47.6007 7.03158C47.6007 7.8048 48.2274 8.43152 49.0006 8.43152C49.7739 8.43152 50.4006 7.8048 50.4006 7.03158C50.4014 5.9002 51.0829 4.88055 52.128 4.44709C53.1731 4.01364 54.3762 4.25186 55.1774 5.05052C55.7105 5.58224 56.0058 6.30707 55.996 7.05996C55.9863 7.81284 55.6723 8.5298 55.1256 9.04758L55.113 9.05595C54.5983 9.54994 53.9138 9.82753 53.2005 9.83147C52.4273 9.83147 51.8005 10.4582 51.8005 11.2314C51.8005 12.0046 52.4273 12.6314 53.2005 12.6314C54.1235 12.6248 55.0303 12.3876 55.8381 11.9412L59.2821 15.7422C57.3396 18.1301 56.8602 21.3899 58.0335 24.2357C59.2065 27.0817 61.8436 29.0568 64.9046 29.3823C63.4577 33.3541 65.2096 37.7806 68.9828 39.6863C66.6066 42.7047 66.6066 46.9579 68.9828 49.9763C66.1747 51.4015 64.4042 54.2821 64.4006 57.4313C60.2517 57.4363 56.7278 60.4695 56.1056 64.5714C55.6091 64.4801 55.1054 64.4332 54.6006 64.4314C51.8402 64.4363 49.2586 65.7971 47.6944 68.0715C46.1491 66.63 44.1139 65.8292 42.0006 65.8315C39.8873 65.8295 37.8522 66.6302 36.3068 68.0715C34.7426 65.7971 32.1609 64.4363 29.4006 64.4314C28.8957 64.4334 28.3921 64.4801 27.8956 64.5714C27.2733 60.4695 23.7494 57.4363 19.6006 57.4313C19.5973 54.2821 17.8259 51.4015 15.017 49.9776C17.3951 46.9594 17.3951 42.7046 15.017 39.6861C18.7913 37.7814 20.5439 33.3543 19.0966 29.3822C22.1575 29.0567 24.7947 27.0815 25.9677 24.2355C27.1408 21.3895 26.6615 18.1298 24.719 15.742L28.163 11.941C28.9709 12.3874 29.8776 12.6246 30.8007 12.6312C33.3783 12.6458 35.6369 10.9087 36.2843 8.41364C36.9317 5.91857 35.8026 3.30243 33.543 2.06195C31.2833 0.82147 28.47 1.2733 26.7125 3.15904C24.9551 5.04461 24.702 7.88273 26.0981 10.0497L22.6121 13.8912C19.5771 12.0015 15.6777 12.245 12.9012 14.4974C10.1248 16.7498 9.08268 20.5152 10.3061 23.8746C7.27504 24.1914 4.65528 26.1295 3.4655 28.9353C2.27572 31.7409 2.70359 34.9715 4.58293 37.3707C1.77188 38.7936 0 41.6761 0 44.8262C0 47.9764 1.77188 50.8588 4.5826 52.2812C2.60072 54.8076 2.237 58.2446 3.64613 61.13C5.05527 64.0153 7.98937 65.8415 11.2004 65.8318C11.205 70.4691 14.9632 74.2273 19.6004 74.2319C20.1052 74.2301 20.6089 74.1831 21.1054 74.0919C21.5641 77.165 23.6853 79.7321 26.6169 80.7617C29.5484 81.7914 32.8091 81.1145 35.0886 79.0031C35.377 79.4213 35.7022 79.8131 36.0602 80.1736C37.6324 81.7535 39.7715 82.6388 42.0004 82.632C44.229 82.6383 46.3676 81.7525 47.9392 80.1722C48.3004 79.812 48.6284 79.4197 48.9191 79.0005C51.1986 81.1077 54.4561 81.7824 57.3849 80.7537C60.3138 79.725 62.4341 77.1619 62.8955 74.0921C63.3919 74.1833 63.8956 74.2302 64.4004 74.232C69.0376 74.2274 72.7958 70.4692 72.8004 65.832C76.0096 65.8405 78.9418 64.015 80.3503 61.1314C81.7589 58.2479 81.3963 54.8131 79.4167 52.287C82.228 50.8649 84 47.9826 84 44.8326ZM28.2072 5.99535C28.6304 4.93321 29.657 4.23512 30.8005 4.23184C32.0594 4.22659 33.1668 5.06217 33.5075 6.27393C33.8483 7.4857 33.3384 8.77606 32.2613 9.42755C31.1842 10.079 29.8046 9.93171 28.8895 9.06743L28.8769 9.05906C28.049 8.27025 27.784 7.0575 28.2072 5.99535ZM18.2005 15.4318C21.2932 15.4318 23.8004 17.939 23.8004 21.0317C23.8004 24.1245 21.2932 26.6317 18.2005 26.6317C17.9096 26.6226 17.6199 26.5911 17.3339 26.5378C16.3261 25.4463 15.0446 24.6439 13.6225 24.2139C12.9623 23.2836 12.6053 22.1723 12.6005 21.0317C12.6005 17.939 15.1077 15.4318 18.2005 15.4318ZM5.94022 30.2904C6.75217 28.0879 8.85299 26.6266 11.2006 26.6318C12.9001 26.6244 14.5087 27.3988 15.563 28.7318C15.5968 28.7742 15.6334 28.8144 15.6723 28.8523C16.7894 30.3316 17.0998 32.2689 16.5009 34.0232C15.9021 35.7775 14.4718 37.1205 12.6834 37.608C11.1489 36.6792 9.34994 36.2853 7.56773 36.4879C5.77813 34.9682 5.12828 32.493 5.94022 30.2904ZM2.80039 44.8318C2.79579 42.1256 4.73075 39.8048 7.39382 39.3227C8.87678 39.034 10.4129 39.3736 11.6358 40.2607C13.0459 41.2567 13.9165 42.8489 13.9941 44.5737C14.0717 46.2985 13.3473 47.9623 12.032 49.0807C10.2511 48.8843 8.45498 49.2777 6.91919 50.2008C4.49237 49.5453 2.80498 47.3457 2.80039 44.8318ZM11.7143 62.9745C11.5407 62.9899 11.3881 63.032 11.2004 63.032C8.10766 63.032 5.60045 60.5247 5.60045 57.432C5.60373 55.6168 6.48327 53.9148 7.9623 52.8624C9.18571 51.9813 10.7172 51.6412 12.1987 51.9216C14.8652 52.4007 16.8045 54.7228 16.8005 57.432C16.7899 57.6046 16.7703 57.7765 16.7418 57.9472C14.4093 58.8039 12.571 60.642 11.7143 62.9745ZM21.1853 71.1757C20.6724 71.3385 20.1384 71.4249 19.6004 71.432C18.1152 71.432 16.6908 70.842 15.6406 69.7918C14.5904 68.7417 14.0005 67.3173 14.0005 65.832C13.9955 65.4079 14.0426 64.9848 14.1404 64.572C14.6347 62.4871 16.2654 60.8607 18.3516 60.372C18.7606 60.2749 19.1799 60.228 19.6004 60.2321C22.5892 60.2426 25.043 62.5983 25.1753 65.5843C23.1014 66.7857 21.6469 68.8239 21.1853 71.1757ZM33.844 76.2157C32.7942 77.6127 31.1478 78.4338 29.4004 78.4319C26.3076 78.4319 23.8004 75.9247 23.8004 72.8319C23.8013 72.6683 23.8134 72.5051 23.8369 72.3433C24.0042 70.3109 25.2698 68.533 27.1353 67.7094C27.8477 67.3904 28.6201 67.2277 29.4006 67.232C31.586 67.2356 33.5699 68.5103 34.4811 70.4968C33.9016 71.6566 33.6001 72.9354 33.6006 74.232C33.6035 74.9004 33.6852 75.5663 33.844 76.2157ZM42.0006 79.832C38.9078 79.832 36.4006 77.3248 36.4006 74.232C36.4006 71.1393 38.9078 68.6321 42.0006 68.6321C45.0933 68.6321 47.6005 71.1393 47.6005 74.232C47.6005 77.3248 45.0933 79.832 42.0006 79.832ZM66.6671 26.5367C66.3813 26.592 66.0914 26.6238 65.8005 26.6318C62.7078 26.6318 60.2006 24.1246 60.2006 21.0319C60.191 18.6174 61.7303 16.4686 64.0195 15.7007C66.3086 14.9327 68.8322 15.7185 70.2807 17.6502C71.7293 19.5819 71.7767 22.2246 70.398 24.207C68.9686 24.6358 67.68 25.4404 66.6671 26.5367ZM67.2006 32.2318C67.1983 31.0151 67.5914 29.8304 68.3207 28.8564C68.3601 28.8176 68.397 28.7765 68.4313 28.7331C69.2033 27.7594 70.2793 27.0723 71.4874 26.7816C71.5184 26.7777 71.5493 26.7719 71.5798 26.7649C71.9804 26.6747 72.3899 26.63 72.8006 26.6318C75.1457 26.6292 77.2434 28.09 78.0545 30.2904C78.8657 32.4908 78.2179 34.9636 76.4323 36.4836C74.6514 36.2863 72.8549 36.6799 71.3194 37.6037C68.8915 36.9478 67.2039 34.7469 67.2006 32.2318ZM54.6006 78.4319C52.8528 78.4335 51.2061 77.6125 50.1556 76.2157C50.6332 74.2942 50.4078 72.2651 49.5201 70.4953C50.4318 68.5095 52.4154 67.2352 54.6006 67.232C55.3842 67.2279 56.1595 67.3921 56.8742 67.7135C58.7584 68.5568 60.026 70.3682 60.1727 72.4273C60.192 72.5614 60.2014 72.6966 60.2007 72.8319C60.2006 75.9247 57.6934 78.4319 54.6006 78.4319ZM64.4006 71.432C63.8618 71.4243 63.3269 71.338 62.8129 71.1757C62.3485 68.8258 60.896 66.789 58.8257 65.5841C58.9579 62.5982 61.4117 60.2424 64.4006 60.2319C64.8247 60.227 65.2478 60.2741 65.6606 60.3718C67.7455 60.8662 69.3718 62.4968 69.8606 64.583C69.9577 64.992 70.0046 65.4114 70.0005 65.8318C70.0005 68.9248 67.4933 71.432 64.4006 71.432ZM78.1374 59.1294C77.3981 61.4535 75.2395 63.0319 72.8006 63.0318C72.628 63.0211 72.4561 63.0016 72.2854 62.9731C71.4287 60.6407 69.5904 58.8024 67.258 57.9457C67.2426 57.7721 67.2006 57.6195 67.2006 57.4318C67.196 54.7256 69.131 52.4048 71.7941 51.9228C73.277 51.6338 74.8133 51.9735 76.0361 52.8607C78.0268 54.2698 78.8767 56.8053 78.1374 59.1294ZM77.0831 50.2163V50.2093C75.5491 49.2792 73.7497 48.8853 71.9675 49.0892C70.6527 47.9707 69.9285 46.3072 70.0058 44.5826C70.083 42.858 70.9527 41.2659 72.3624 40.2692C73.5853 39.3869 75.1173 39.0466 76.5988 39.3285C79.1697 39.789 81.0784 41.9694 81.1944 44.5787C81.3105 47.1879 79.603 49.5293 77.0831 50.2163Z" fill="#8D8D8C" stroke="white" stroke-width="1.2" mask="url(#path-1-inside-1)"/>
</svg>
