<svg width="84" height="84" viewBox="0 0 84 84" fill="none" xmlns="http://www.w3.org/2000/svg">
<g clip-path="url(#clip0)">
<mask id="path-1-inside-1" fill="white">
<path d="M51.8581 16.8047H32.1434C31.7721 16.8047 31.4161 16.9523 31.1536 17.2148L17.2109 31.1561C16.9484 31.4186 16.8008 31.7746 16.8008 32.1458V51.8634C16.8008 52.2347 16.9484 52.5907 17.2109 52.8532L31.1535 66.7944C31.416 67.0569 31.772 67.2045 32.1432 67.2045H51.858C52.2292 67.2045 52.5853 67.0569 52.8478 66.7944L66.7903 52.8532C67.0528 52.5907 67.2004 52.2347 67.2004 51.8634V32.1458C67.2004 31.7746 67.0528 31.4186 66.7903 31.1561L52.8478 17.2148C52.5854 16.9523 52.2294 16.8047 51.8581 16.8047ZM64.4007 51.2824L51.2785 64.4046H32.723L19.6008 51.2824V32.7268L32.723 19.6046H51.2785L64.4007 32.7268V51.2824Z"/>
</mask>
<path d="M51.8581 16.8047H32.1434C31.7721 16.8047 31.4161 16.9523 31.1536 17.2148L17.2109 31.1561C16.9484 31.4186 16.8008 31.7746 16.8008 32.1458V51.8634C16.8008 52.2347 16.9484 52.5907 17.2109 52.8532L31.1535 66.7944C31.416 67.0569 31.772 67.2045 32.1432 67.2045H51.858C52.2292 67.2045 52.5853 67.0569 52.8478 66.7944L66.7903 52.8532C67.0528 52.5907 67.2004 52.2347 67.2004 51.8634V32.1458C67.2004 31.7746 67.0528 31.4186 66.7903 31.1561L52.8478 17.2148C52.5854 16.9523 52.2294 16.8047 51.8581 16.8047ZM64.4007 51.2824L51.2785 64.4046H32.723L19.6008 51.2824V32.7268L32.723 19.6046H51.2785L64.4007 32.7268V51.2824Z" fill="#8D8D8C" stroke="white" stroke-width="1.2" mask="url(#path-1-inside-1)"/>
<mask id="path-2-inside-2" fill="white">
<path d="M23.4283 35.8377C23.9177 35.9658 24.4382 35.8198 24.7898 35.4559L35.4522 24.795C35.9828 24.2457 35.9753 23.3724 35.4352 22.8324C34.8951 22.2924 34.0219 22.2848 33.4727 22.8154L22.8102 33.4763C22.4464 33.8279 22.3003 34.3483 22.4285 34.8379C22.5566 35.3273 22.9389 35.7096 23.4283 35.8377Z"/>
</mask>
<path d="M23.4283 35.8377C23.9177 35.9658 24.4382 35.8198 24.7898 35.4559L35.4522 24.795C35.9828 24.2457 35.9753 23.3724 35.4352 22.8324C34.8951 22.2924 34.0219 22.2848 33.4727 22.8154L22.8102 33.4763C22.4464 33.8279 22.3003 34.3483 22.4285 34.8379C22.5566 35.3273 22.9389 35.7096 23.4283 35.8377Z" fill="#8D8D8C" stroke="white" stroke-width="1.2" mask="url(#path-2-inside-2)"/>
<mask id="path-3-inside-3" fill="white">
<path d="M59.2101 48.5527L48.5491 59.2136C48.0021 59.7602 48.0018 60.6468 48.5485 61.1938C49.0951 61.7408 49.9817 61.7411 50.5287 61.1945L61.1896 50.5321C61.7202 49.9828 61.7127 49.1095 61.1726 48.5695C60.6326 48.0298 59.7595 48.0221 59.2101 48.5527Z"/>
</mask>
<path d="M59.2101 48.5527L48.5491 59.2136C48.0021 59.7602 48.0018 60.6468 48.5485 61.1938C49.0951 61.7408 49.9817 61.7411 50.5287 61.1945L61.1896 50.5321C61.7202 49.9828 61.7127 49.1095 61.1726 48.5695C60.6326 48.0298 59.7595 48.0221 59.2101 48.5527Z" fill="#8D8D8C" stroke="white" stroke-width="1.2" mask="url(#path-3-inside-3)"/>
<mask id="path-4-inside-4" fill="white">
<path d="M24.7906 48.5527C24.2413 48.0221 23.368 48.0297 22.8281 48.5698C22.288 49.1098 22.2804 49.983 22.811 50.5323L33.4719 61.1947C33.8235 61.5586 34.3439 61.7046 34.8335 61.5765C35.3231 61.4483 35.7052 61.0661 35.8333 60.5767C35.9614 60.0871 35.8154 59.5667 35.4515 59.2151L24.7906 48.5527Z"/>
</mask>
<path d="M24.7906 48.5527C24.2413 48.0221 23.368 48.0297 22.8281 48.5698C22.288 49.1098 22.2804 49.983 22.811 50.5323L33.4719 61.1947C33.8235 61.5586 34.3439 61.7046 34.8335 61.5765C35.3231 61.4483 35.7052 61.0661 35.8333 60.5767C35.9614 60.0871 35.8154 59.5667 35.4515 59.2151L24.7906 48.5527Z" fill="#8D8D8C" stroke="white" stroke-width="1.2" mask="url(#path-4-inside-4)"/>
<mask id="path-5-inside-5" fill="white">
<path d="M48.5493 22.8137C48.2865 23.0763 48.1387 23.4327 48.1387 23.8041C48.1387 24.1757 48.2863 24.5321 48.5493 24.7946L59.2103 35.457C59.7595 35.9876 60.6329 35.98 61.1728 35.4399C61.7129 34.8998 61.7204 34.0267 61.1898 33.4774L50.5289 22.8137C49.9822 22.2672 49.096 22.2672 48.5493 22.8137Z"/>
</mask>
<path d="M48.5493 22.8137C48.2865 23.0763 48.1387 23.4327 48.1387 23.8041C48.1387 24.1757 48.2863 24.5321 48.5493 24.7946L59.2103 35.457C59.7595 35.9876 60.6329 35.98 61.1728 35.4399C61.7129 34.8998 61.7204 34.0267 61.1898 33.4774L50.5289 22.8137C49.9822 22.2672 49.096 22.2672 48.5493 22.8137Z" fill="#8D8D8C" stroke="white" stroke-width="1.2" mask="url(#path-5-inside-5)"/>
<mask id="path-6-inside-6" fill="white">
<path d="M83.8965 24.6664L83.8937 24.6525C83.8937 24.6385 83.8755 24.6302 83.8684 24.6147C83.8013 24.4589 83.7065 24.3166 83.5884 24.1947L59.8136 0.425371C59.5511 0.157457 59.1919 0.00619141 58.8167 0.00537109H25.1833C24.812 0.00537109 24.456 0.153027 24.1935 0.415527L0.410156 24.1987C0.292031 24.3204 0.197039 24.4628 0.130102 24.6187C0.130102 24.6298 0.11468 24.6354 0.110578 24.6467V24.6607C0.0398672 24.8279 0.00229688 25.007 0 25.1885V58.8221C0.000820312 59.0013 0.0359297 59.1784 0.103523 59.3443V59.3583C0.171117 59.5117 0.266109 59.6516 0.383578 59.7712C0.394734 59.7838 0.399 59.8006 0.410156 59.8117L24.1864 83.5854C24.4489 83.8479 24.8049 83.9955 25.1762 83.9955H58.8167C59.188 83.9955 59.544 83.8479 59.8065 83.5854L83.5898 59.8119C83.601 59.8007 83.6053 59.7838 83.6164 59.7714C83.7339 59.6518 83.8287 59.5118 83.8965 59.3584V59.3445C83.9639 59.1786 83.999 59.0014 84 58.8223V25.1885C83.9989 25.0095 83.9637 24.8323 83.8965 24.6664ZM59.3083 3.87774L80.1319 24.6971L71.7319 28.1761L55.8278 12.2776L59.3083 3.87774ZM70.0001 30.4063V53.6043L53.5963 70.0053H30.4037L13.9999 53.6043V30.4063L30.4037 14.0053H53.5961L70.0001 30.4063ZM56.721 2.80543L53.2406 11.2054H30.7594L27.279 2.80543H56.721V2.80543ZM24.6917 3.87643L28.1722 12.2764L12.2724 28.1762L3.87237 24.6973L24.6917 3.87643ZM2.80005 27.2829L11.2001 30.7618V53.2486L2.80005 56.7275V27.2829V27.2829ZM24.6917 80.133L3.87105 59.3135L12.2711 55.8345L28.1723 71.733L24.6917 80.133ZM27.279 81.2053L30.7594 72.8053H53.2406L56.721 81.2053H27.279ZM59.3083 80.1343L55.8278 71.7343L71.7276 55.8345L80.1276 59.3135L59.3083 80.1343ZM81.1999 56.7277L72.7999 53.2487V30.762L81.1999 27.2831V56.7277Z"/>
</mask>
<path d="M83.8965 24.6664L83.8937 24.6525C83.8937 24.6385 83.8755 24.6302 83.8684 24.6147C83.8013 24.4589 83.7065 24.3166 83.5884 24.1947L59.8136 0.425371C59.5511 0.157457 59.1919 0.00619141 58.8167 0.00537109H25.1833C24.812 0.00537109 24.456 0.153027 24.1935 0.415527L0.410156 24.1987C0.292031 24.3204 0.197039 24.4628 0.130102 24.6187C0.130102 24.6298 0.11468 24.6354 0.110578 24.6467V24.6607C0.0398672 24.8279 0.00229688 25.007 0 25.1885V58.8221C0.000820312 59.0013 0.0359297 59.1784 0.103523 59.3443V59.3583C0.171117 59.5117 0.266109 59.6516 0.383578 59.7712C0.394734 59.7838 0.399 59.8006 0.410156 59.8117L24.1864 83.5854C24.4489 83.8479 24.8049 83.9955 25.1762 83.9955H58.8167C59.188 83.9955 59.544 83.8479 59.8065 83.5854L83.5898 59.8119C83.601 59.8007 83.6053 59.7838 83.6164 59.7714C83.7339 59.6518 83.8287 59.5118 83.8965 59.3584V59.3445C83.9639 59.1786 83.999 59.0014 84 58.8223V25.1885C83.9989 25.0095 83.9637 24.8323 83.8965 24.6664ZM59.3083 3.87774L80.1319 24.6971L71.7319 28.1761L55.8278 12.2776L59.3083 3.87774ZM70.0001 30.4063V53.6043L53.5963 70.0053H30.4037L13.9999 53.6043V30.4063L30.4037 14.0053H53.5961L70.0001 30.4063ZM56.721 2.80543L53.2406 11.2054H30.7594L27.279 2.80543H56.721V2.80543ZM24.6917 3.87643L28.1722 12.2764L12.2724 28.1762L3.87237 24.6973L24.6917 3.87643ZM2.80005 27.2829L11.2001 30.7618V53.2486L2.80005 56.7275V27.2829V27.2829ZM24.6917 80.133L3.87105 59.3135L12.2711 55.8345L28.1723 71.733L24.6917 80.133ZM27.279 81.2053L30.7594 72.8053H53.2406L56.721 81.2053H27.279ZM59.3083 80.1343L55.8278 71.7343L71.7276 55.8345L80.1276 59.3135L59.3083 80.1343ZM81.1999 56.7277L72.7999 53.2487V30.762L81.1999 27.2831V56.7277Z" fill="#8D8D8C" stroke="white" stroke-width="1.2" mask="url(#path-6-inside-6)"/>
</g>
<defs>
<clipPath id="clip0">
<rect width="84" height="84" fill="white"/>
</clipPath>
</defs>
</svg>
