<svg width="85" height="84" viewBox="0 0 85 84" fill="none" xmlns="http://www.w3.org/2000/svg">
<mask id="path-1-inside-1" fill="white">
<path d="M84.1541 31.681C84.1429 31.653 84.1415 31.6236 84.1275 31.5956C84.0676 31.4719 83.9897 31.3577 83.8965 31.2568L67.1097 13.0743C67.0213 12.9742 66.9191 12.8876 66.8059 12.8167C66.8028 12.8167 66.8006 12.8167 66.8006 12.8167H66.799C66.5683 12.6784 66.305 12.6035 66.0359 12.5996H18.4787C18.2156 12.6008 17.9573 12.6708 17.7298 12.8026C17.6167 12.8734 17.5143 12.9602 17.4259 13.0602L0.62799 31.2512C0.594028 31.2983 0.563675 31.348 0.536931 31.3997C0.481968 31.4751 0.434716 31.5557 0.395504 31.6405C0.361869 31.7214 0.33611 31.8052 0.318555 31.8911C0.29657 31.9774 0.283116 32.0655 0.27803 32.1542C0.275241 32.2431 0.280983 32.3322 0.294765 32.4202C0.306578 32.5065 0.326758 32.5913 0.354978 32.6737C0.389925 32.7626 0.433896 32.8474 0.486562 32.9272C0.50986 32.9793 0.536439 33.0297 0.5663 33.0784L41.1681 83.4805C41.1891 83.5071 41.2199 83.5155 41.2422 83.5408C41.2647 83.566 41.2982 83.6038 41.329 83.6318C41.3599 83.6599 41.3584 83.6766 41.3794 83.6933H41.3933L41.4073 83.7073C41.4184 83.7157 41.4339 83.7199 41.4465 83.7283C41.4916 83.7562 41.5384 83.7815 41.5864 83.8039C41.6317 83.8308 41.6785 83.8551 41.7264 83.8768H41.7376C41.7613 83.8866 41.7823 83.9061 41.8061 83.9145C41.8299 83.9229 41.8496 83.9145 41.8691 83.9244C41.8887 83.9342 41.8985 83.9426 41.9154 83.9468C42.0253 83.9746 42.138 83.9887 42.2514 83.9888H42.2709C42.3843 83.9885 42.497 83.9746 42.607 83.9468C42.6237 83.9468 42.6363 83.9301 42.6532 83.9244C42.67 83.9188 42.6965 83.9244 42.7162 83.9145C42.7358 83.9047 42.761 83.8865 42.7848 83.8768H42.796C42.8439 83.8551 42.8906 83.8308 42.9359 83.8039C42.984 83.7815 43.0307 83.7562 43.0759 83.7283C43.087 83.7199 43.1039 83.7171 43.1151 83.7073L43.129 83.6933H43.143C43.164 83.6766 43.1738 83.6499 43.1933 83.6318C43.213 83.6136 43.2508 83.5716 43.2801 83.5408C43.3095 83.5099 43.3333 83.5071 43.3543 83.4805L83.9561 33.0784C84.011 33.0028 84.058 32.9216 84.096 32.8363C84.11 32.8097 84.1297 32.7859 84.1423 32.7593C84.2038 32.6125 84.2402 32.4563 84.2501 32.2973C84.2522 32.2573 84.2522 32.2171 84.2501 32.1769C84.2481 32.0522 84.2292 31.9283 84.1941 31.8087C84.1838 31.7652 84.1703 31.7226 84.1541 31.681ZM66.2823 16.3071L79.6614 30.8005H57.3627L66.2823 16.3071ZM63.5522 15.3998L54.7893 29.6412L44.9287 15.3998H63.5522ZM52.1852 30.8005H42.2573H32.3295L42.2573 16.4597L52.1852 30.8005ZM39.5859 15.3998L29.7254 29.6412L20.9624 15.3998H39.5859ZM45.1975 76.7224L51.0987 53.5528C51.2405 53.0621 51.1038 52.5331 50.7422 52.1727C50.3806 51.8122 49.8511 51.677 49.3609 51.8204C48.8706 51.9638 48.4974 52.3627 48.3868 52.8613L42.2573 76.9325L36.1236 52.8516C36.013 52.353 35.6398 51.954 35.1495 51.8107C34.6593 51.6673 34.13 51.8024 33.7682 52.163C33.4064 52.5236 33.2698 53.0526 33.4117 53.5431L39.3172 76.7225L3.50363 32.2622L18.2323 16.3071L27.1521 30.8005H8.65591C7.88265 30.8005 7.2559 31.4272 7.2559 32.2005C7.2559 32.9737 7.88265 33.6005 8.65591 33.6005H28.5564L32.0481 47.9329C32.201 48.5597 32.7625 49.0009 33.4076 49.0012C33.5193 49.0012 33.6307 48.9881 33.7393 48.962C34.1003 48.8742 34.4117 48.6465 34.6046 48.3288C34.7976 48.0114 34.8565 47.6302 34.7684 47.2693L31.4391 33.6005H53.0756L49.7463 47.2693C49.658 47.6302 49.7169 48.0114 49.91 48.3288C50.1031 48.6463 50.4144 48.874 50.7753 48.962C50.8839 48.9881 50.9953 49.0012 51.1071 49.0012C51.7522 49.0009 52.3136 48.5597 52.4665 47.9329L55.9583 33.6005H79.9329L45.1975 76.7224Z"/>
</mask>
<path d="M84.1541 31.681C84.1429 31.653 84.1415 31.6236 84.1275 31.5956C84.0676 31.4719 83.9897 31.3577 83.8965 31.2568L67.1097 13.0743C67.0213 12.9742 66.9191 12.8876 66.8059 12.8167C66.8028 12.8167 66.8006 12.8167 66.8006 12.8167H66.799C66.5683 12.6784 66.305 12.6035 66.0359 12.5996H18.4787C18.2156 12.6008 17.9573 12.6708 17.7298 12.8026C17.6167 12.8734 17.5143 12.9602 17.4259 13.0602L0.62799 31.2512C0.594028 31.2983 0.563675 31.348 0.536931 31.3997C0.481968 31.4751 0.434716 31.5557 0.395504 31.6405C0.361869 31.7214 0.33611 31.8052 0.318555 31.8911C0.29657 31.9774 0.283116 32.0655 0.27803 32.1542C0.275241 32.2431 0.280983 32.3322 0.294765 32.4202C0.306578 32.5065 0.326758 32.5913 0.354978 32.6737C0.389925 32.7626 0.433896 32.8474 0.486562 32.9272C0.50986 32.9793 0.536439 33.0297 0.5663 33.0784L41.1681 83.4805C41.1891 83.5071 41.2199 83.5155 41.2422 83.5408C41.2647 83.566 41.2982 83.6038 41.329 83.6318C41.3599 83.6599 41.3584 83.6766 41.3794 83.6933H41.3933L41.4073 83.7073C41.4184 83.7157 41.4339 83.7199 41.4465 83.7283C41.4916 83.7562 41.5384 83.7815 41.5864 83.8039C41.6317 83.8308 41.6785 83.8551 41.7264 83.8768H41.7376C41.7613 83.8866 41.7823 83.9061 41.8061 83.9145C41.8299 83.9229 41.8496 83.9145 41.8691 83.9244C41.8887 83.9342 41.8985 83.9426 41.9154 83.9468C42.0253 83.9746 42.138 83.9887 42.2514 83.9888H42.2709C42.3843 83.9885 42.497 83.9746 42.607 83.9468C42.6237 83.9468 42.6363 83.9301 42.6532 83.9244C42.67 83.9188 42.6965 83.9244 42.7162 83.9145C42.7358 83.9047 42.761 83.8865 42.7848 83.8768H42.796C42.8439 83.8551 42.8906 83.8308 42.9359 83.8039C42.984 83.7815 43.0307 83.7562 43.0759 83.7283C43.087 83.7199 43.1039 83.7171 43.1151 83.7073L43.129 83.6933H43.143C43.164 83.6766 43.1738 83.6499 43.1933 83.6318C43.213 83.6136 43.2508 83.5716 43.2801 83.5408C43.3095 83.5099 43.3333 83.5071 43.3543 83.4805L83.9561 33.0784C84.011 33.0028 84.058 32.9216 84.096 32.8363C84.11 32.8097 84.1297 32.7859 84.1423 32.7593C84.2038 32.6125 84.2402 32.4563 84.2501 32.2973C84.2522 32.2573 84.2522 32.2171 84.2501 32.1769C84.2481 32.0522 84.2292 31.9283 84.1941 31.8087C84.1838 31.7652 84.1703 31.7226 84.1541 31.681ZM66.2823 16.3071L79.6614 30.8005H57.3627L66.2823 16.3071ZM63.5522 15.3998L54.7893 29.6412L44.9287 15.3998H63.5522ZM52.1852 30.8005H42.2573H32.3295L42.2573 16.4597L52.1852 30.8005ZM39.5859 15.3998L29.7254 29.6412L20.9624 15.3998H39.5859ZM45.1975 76.7224L51.0987 53.5528C51.2405 53.0621 51.1038 52.5331 50.7422 52.1727C50.3806 51.8122 49.8511 51.677 49.3609 51.8204C48.8706 51.9638 48.4974 52.3627 48.3868 52.8613L42.2573 76.9325L36.1236 52.8516C36.013 52.353 35.6398 51.954 35.1495 51.8107C34.6593 51.6673 34.13 51.8024 33.7682 52.163C33.4064 52.5236 33.2698 53.0526 33.4117 53.5431L39.3172 76.7225L3.50363 32.2622L18.2323 16.3071L27.1521 30.8005H8.65591C7.88265 30.8005 7.2559 31.4272 7.2559 32.2005C7.2559 32.9737 7.88265 33.6005 8.65591 33.6005H28.5564L32.0481 47.9329C32.201 48.5597 32.7625 49.0009 33.4076 49.0012C33.5193 49.0012 33.6307 48.9881 33.7393 48.962C34.1003 48.8742 34.4117 48.6465 34.6046 48.3288C34.7976 48.0114 34.8565 47.6302 34.7684 47.2693L31.4391 33.6005H53.0756L49.7463 47.2693C49.658 47.6302 49.7169 48.0114 49.91 48.3288C50.1031 48.6463 50.4144 48.874 50.7753 48.962C50.8839 48.9881 50.9953 49.0012 51.1071 49.0012C51.7522 49.0009 52.3136 48.5597 52.4665 47.9329L55.9583 33.6005H79.9329L45.1975 76.7224Z" fill="#8D8D8C" stroke="white" stroke-width="1.2" mask="url(#path-1-inside-1)"/>
<mask id="path-2-inside-2" fill="white">
<path d="M17.1724 73.8861L12.5844 71.6699L10.3694 67.0818C10.1355 66.5988 9.64606 66.292 9.10939 66.292C8.57272 66.292 8.0833 66.5988 7.84934 67.0818L5.6344 71.6699L1.04374 73.8833C0.560716 74.1173 0.253906 74.6067 0.253906 75.1434C0.253906 75.68 0.560716 76.1695 1.04374 76.4034V76.4062L5.63456 78.6212L7.84802 83.2105C8.08199 83.6935 8.57141 84.0003 9.10808 84.0003C9.64475 84.0003 10.1342 83.6935 10.3681 83.2105L12.5831 78.6212L17.1724 76.4062C17.6554 76.1723 17.9622 75.6828 17.9622 75.1462C17.9622 74.6095 17.6554 74.1201 17.1724 73.8861ZM10.9268 76.3111C10.6418 76.4485 10.4119 76.6786 10.2743 76.9636L9.10808 79.3814L7.94318 76.9663C7.80569 76.6814 7.57567 76.4515 7.29068 76.3138L4.87279 75.1448L7.29068 73.98C7.576 73.843 7.80619 73.6129 7.94318 73.3274L9.10808 70.9123L10.2743 73.3274C10.4118 73.6124 10.6418 73.8423 10.9268 73.98L13.3434 75.1448L10.9268 76.3111Z"/>
</mask>
<path d="M17.1724 73.8861L12.5844 71.6699L10.3694 67.0818C10.1355 66.5988 9.64606 66.292 9.10939 66.292C8.57272 66.292 8.0833 66.5988 7.84934 67.0818L5.6344 71.6699L1.04374 73.8833C0.560716 74.1173 0.253906 74.6067 0.253906 75.1434C0.253906 75.68 0.560716 76.1695 1.04374 76.4034V76.4062L5.63456 78.6212L7.84802 83.2105C8.08199 83.6935 8.57141 84.0003 9.10808 84.0003C9.64475 84.0003 10.1342 83.6935 10.3681 83.2105L12.5831 78.6212L17.1724 76.4062C17.6554 76.1723 17.9622 75.6828 17.9622 75.1462C17.9622 74.6095 17.6554 74.1201 17.1724 73.8861ZM10.9268 76.3111C10.6418 76.4485 10.4119 76.6786 10.2743 76.9636L9.10808 79.3814L7.94318 76.9663C7.80569 76.6814 7.57567 76.4515 7.29068 76.3138L4.87279 75.1448L7.29068 73.98C7.576 73.843 7.80619 73.6129 7.94318 73.3274L9.10808 70.9123L10.2743 73.3274C10.4118 73.6124 10.6418 73.8423 10.9268 73.98L13.3434 75.1448L10.9268 76.3111Z" fill="#8D8D8C" stroke="white" stroke-width="1.2" mask="url(#path-2-inside-2)"/>
<mask id="path-3-inside-3" fill="white">
<path d="M67.3348 10.1142V10.117L71.9241 12.3305L74.139 16.9185C74.373 17.4015 74.8624 17.7083 75.3991 17.7083C75.9358 17.7083 76.4252 17.4015 76.6591 16.9185L78.8726 12.3305L83.4634 10.117C83.9464 9.88305 84.2533 9.39363 84.2533 8.85696C84.2533 8.32029 83.9464 7.83087 83.4634 7.59691L78.8741 5.37918L76.6605 0.78983C76.4267 0.30681 75.9371 0 75.4004 0C74.8637 0 74.3743 0.30681 74.1403 0.78983L71.9241 5.37918L67.3348 7.59412C66.8517 7.82808 66.5449 8.3175 66.5449 8.85417C66.5449 9.39084 66.8517 9.88026 67.3348 10.1142ZM73.5819 7.68928C73.8668 7.55179 74.0967 7.32176 74.2344 7.03677L75.4006 4.61888L76.5655 7.03398C76.7029 7.31897 76.933 7.54883 77.218 7.68649L79.6331 8.85269L77.218 10.0176C76.9326 10.1546 76.7025 10.3846 76.5655 10.6701L75.4006 13.0852L74.2344 10.6701C74.0969 10.3851 73.8668 10.1552 73.5819 10.0176L71.1653 8.85548L73.5819 7.68928Z"/>
</mask>
<path d="M67.3348 10.1142V10.117L71.9241 12.3305L74.139 16.9185C74.373 17.4015 74.8624 17.7083 75.3991 17.7083C75.9358 17.7083 76.4252 17.4015 76.6591 16.9185L78.8726 12.3305L83.4634 10.117C83.9464 9.88305 84.2533 9.39363 84.2533 8.85696C84.2533 8.32029 83.9464 7.83087 83.4634 7.59691L78.8741 5.37918L76.6605 0.78983C76.4267 0.30681 75.9371 0 75.4004 0C74.8637 0 74.3743 0.30681 74.1403 0.78983L71.9241 5.37918L67.3348 7.59412C66.8517 7.82808 66.5449 8.3175 66.5449 8.85417C66.5449 9.39084 66.8517 9.88026 67.3348 10.1142ZM73.5819 7.68928C73.8668 7.55179 74.0967 7.32176 74.2344 7.03677L75.4006 4.61888L76.5655 7.03398C76.7029 7.31897 76.933 7.54883 77.218 7.68649L79.6331 8.85269L77.218 10.0176C76.9326 10.1546 76.7025 10.3846 76.5655 10.6701L75.4006 13.0852L74.2344 10.6701C74.0969 10.3851 73.8668 10.1552 73.5819 10.0176L71.1653 8.85548L73.5819 7.68928Z" fill="#8D8D8C" stroke="white" stroke-width="1.2" mask="url(#path-3-inside-3)"/>
<mask id="path-4-inside-4" fill="white">
<path d="M78.7759 71.084L74.1866 68.8705L71.9716 64.2825C71.7377 63.7995 71.2483 63.4927 70.7116 63.4927C70.1749 63.4927 69.6855 63.7995 69.4515 64.2825L67.2381 68.8705L62.6473 71.084C62.1642 71.318 61.8574 71.8074 61.8574 72.3441C61.8574 72.8807 62.1642 73.3701 62.6473 73.6041L67.2381 75.819L69.4515 80.4084C69.6855 80.8914 70.1749 81.1982 70.7116 81.1982C71.2483 81.1982 71.7377 80.8914 71.9716 80.4084L74.1866 75.819L78.7759 73.6041C79.2589 73.3701 79.5658 72.8807 79.5658 72.3441C79.5658 71.8074 79.2589 71.318 78.7759 71.084ZM72.529 73.5117C72.244 73.6492 72.0141 73.8793 71.8765 74.1642L70.7103 76.5821L69.5454 74.167C69.4079 73.882 69.1779 73.6522 68.8929 73.5145L66.475 72.3455L68.8901 71.1806C69.1754 71.0436 69.4056 70.8136 69.5426 70.5281L70.7075 68.113L71.8737 70.5281C72.0112 70.8131 72.2412 71.043 72.5262 71.1806L74.9428 72.3455L72.529 73.5117Z"/>
</mask>
<path d="M78.7759 71.084L74.1866 68.8705L71.9716 64.2825C71.7377 63.7995 71.2483 63.4927 70.7116 63.4927C70.1749 63.4927 69.6855 63.7995 69.4515 64.2825L67.2381 68.8705L62.6473 71.084C62.1642 71.318 61.8574 71.8074 61.8574 72.3441C61.8574 72.8807 62.1642 73.3701 62.6473 73.6041L67.2381 75.819L69.4515 80.4084C69.6855 80.8914 70.1749 81.1982 70.7116 81.1982C71.2483 81.1982 71.7377 80.8914 71.9716 80.4084L74.1866 75.819L78.7759 73.6041C79.2589 73.3701 79.5658 72.8807 79.5658 72.3441C79.5658 71.8074 79.2589 71.318 78.7759 71.084ZM72.529 73.5117C72.244 73.6492 72.0141 73.8793 71.8765 74.1642L70.7103 76.5821L69.5454 74.167C69.4079 73.882 69.1779 73.6522 68.8929 73.5145L66.475 72.3455L68.8901 71.1806C69.1754 71.0436 69.4056 70.8136 69.5426 70.5281L70.7075 68.113L71.8737 70.5281C72.0112 70.8131 72.2412 71.043 72.5262 71.1806L74.9428 72.3455L72.529 73.5117Z" fill="#8D8D8C" stroke="white" stroke-width="1.2" mask="url(#path-4-inside-4)"/>
</svg>
