<svg width="84" height="84" viewBox="0 0 84 84" fill="none" xmlns="http://www.w3.org/2000/svg">
<mask id="path-1-inside-1" fill="white">
<path d="M22.4054 15.407C22.4054 14.6338 21.7788 14.0072 21.0056 14.0072C19.4593 14.0072 18.2059 12.7537 18.2059 11.2074C18.2059 10.4343 17.579 9.80762 16.8061 9.80762C16.0331 9.80762 15.4062 10.4343 15.4062 11.2074C15.4062 14.2998 17.9132 16.8068 21.0056 16.8068C21.7788 16.8068 22.4054 16.1801 22.4054 15.407Z"/>
</mask>
<path d="M22.4054 15.407C22.4054 14.6338 21.7788 14.0072 21.0056 14.0072C19.4593 14.0072 18.2059 12.7537 18.2059 11.2074C18.2059 10.4343 17.579 9.80762 16.8061 9.80762C16.0331 9.80762 15.4062 10.4343 15.4062 11.2074C15.4062 14.2998 17.9132 16.8068 21.0056 16.8068C21.7788 16.8068 22.4054 16.1801 22.4054 15.407Z" fill="#8D8D8C" stroke="white" stroke-width="1.2" mask="url(#path-1-inside-1)"/>
<mask id="path-2-inside-2" fill="white">
<path d="M21.0053 8.408C22.5516 8.408 23.805 9.66147 23.805 11.2078C23.805 11.9809 24.4317 12.6076 25.2048 12.6076C25.978 12.6076 26.6046 11.9809 26.6046 11.2078C26.6046 8.11534 24.0977 5.6084 21.0053 5.6084C20.2321 5.6084 19.6055 6.23505 19.6055 7.0082C19.6055 7.78135 20.2321 8.408 21.0053 8.408Z"/>
</mask>
<path d="M21.0053 8.408C22.5516 8.408 23.805 9.66147 23.805 11.2078C23.805 11.9809 24.4317 12.6076 25.2048 12.6076C25.978 12.6076 26.6046 11.9809 26.6046 11.2078C26.6046 8.11534 24.0977 5.6084 21.0053 5.6084C20.2321 5.6084 19.6055 6.23505 19.6055 7.0082C19.6055 7.78135 20.2321 8.408 21.0053 8.408Z" fill="#8D8D8C" stroke="white" stroke-width="1.2" mask="url(#path-2-inside-2)"/>
<mask id="path-3-inside-3" fill="white">
<path d="M24.5239 37.9616C26.1702 36.6361 26.9268 34.4945 26.4785 32.429C26.0301 30.3635 24.4537 28.7283 22.4059 28.2047V22.3099C28.2722 21.5708 32.5531 16.3986 32.1828 10.4976C31.8127 4.59656 26.9188 0 21.0061 0C15.0934 0 10.1994 4.59656 9.82917 10.4976C9.45892 16.3986 13.7399 21.5708 19.6061 22.3099V28.2047C17.5583 28.7283 15.982 30.3635 15.5335 32.429C15.0852 34.4945 15.8418 36.6361 17.4881 37.9616L4.78313 58.1028C1.96237 63.3358 2.1671 69.6801 5.31923 74.7204C8.49466 80.4138 14.4872 83.9587 21.0061 84C27.5233 83.9596 33.515 80.4169 36.6915 74.726C39.8513 69.6664 40.0434 63.2975 37.1939 58.0565L24.5239 37.9616ZM12.607 11.2076C12.607 6.56887 16.3674 2.80846 21.0061 2.80846C25.6448 2.80846 29.4052 6.56887 29.4052 11.2076C29.4052 15.8463 25.6448 19.6067 21.0061 19.6067C16.3693 19.6021 12.6115 15.8443 12.607 11.2076ZM19.0264 31.6255C19.5515 31.1004 20.2636 30.8055 21.0061 30.8055C22.5524 30.8055 23.8058 32.0589 23.8058 33.6052C23.8009 34.3621 23.4863 35.0841 22.9351 35.6028C21.8544 34.5754 20.1578 34.5754 19.0771 35.6028C18.5259 35.0841 18.2112 34.3621 18.2063 33.6052C18.2063 32.8627 18.5013 32.1506 19.0264 31.6255ZM34.2739 73.3247C31.5916 78.147 26.5241 81.1551 21.0061 81.2004C15.4879 81.1548 10.4207 78.1447 7.74104 73.3206C5.10286 69.1609 4.89025 63.908 7.18394 59.5489L21.0061 37.6243L34.7961 59.5028C37.1173 63.8693 36.918 69.1457 34.2739 73.3247Z"/>
</mask>
<path d="M24.5239 37.9616C26.1702 36.6361 26.9268 34.4945 26.4785 32.429C26.0301 30.3635 24.4537 28.7283 22.4059 28.2047V22.3099C28.2722 21.5708 32.5531 16.3986 32.1828 10.4976C31.8127 4.59656 26.9188 0 21.0061 0C15.0934 0 10.1994 4.59656 9.82917 10.4976C9.45892 16.3986 13.7399 21.5708 19.6061 22.3099V28.2047C17.5583 28.7283 15.982 30.3635 15.5335 32.429C15.0852 34.4945 15.8418 36.6361 17.4881 37.9616L4.78313 58.1028C1.96237 63.3358 2.1671 69.6801 5.31923 74.7204C8.49466 80.4138 14.4872 83.9587 21.0061 84C27.5233 83.9596 33.515 80.4169 36.6915 74.726C39.8513 69.6664 40.0434 63.2975 37.1939 58.0565L24.5239 37.9616ZM12.607 11.2076C12.607 6.56887 16.3674 2.80846 21.0061 2.80846C25.6448 2.80846 29.4052 6.56887 29.4052 11.2076C29.4052 15.8463 25.6448 19.6067 21.0061 19.6067C16.3693 19.6021 12.6115 15.8443 12.607 11.2076ZM19.0264 31.6255C19.5515 31.1004 20.2636 30.8055 21.0061 30.8055C22.5524 30.8055 23.8058 32.0589 23.8058 33.6052C23.8009 34.3621 23.4863 35.0841 22.9351 35.6028C21.8544 34.5754 20.1578 34.5754 19.0771 35.6028C18.5259 35.0841 18.2112 34.3621 18.2063 33.6052C18.2063 32.8627 18.5013 32.1506 19.0264 31.6255ZM34.2739 73.3247C31.5916 78.147 26.5241 81.1551 21.0061 81.2004C15.4879 81.1548 10.4207 78.1447 7.74104 73.3206C5.10286 69.1609 4.89025 63.908 7.18394 59.5489L21.0061 37.6243L34.7961 59.5028C37.1173 63.8693 36.918 69.1457 34.2739 73.3247Z" fill="#8D8D8C" stroke="white" stroke-width="1.2" mask="url(#path-3-inside-3)"/>
<mask id="path-4-inside-4" fill="white">
<path d="M32.3825 60.9234L22.1888 44.7566C21.9158 44.3737 21.4747 44.1465 21.0045 44.1465C20.5344 44.1465 20.0932 44.3737 19.8203 44.7566L17.2725 48.7993C16.8904 49.4511 17.0945 50.2885 17.7336 50.6914C18.3727 51.0943 19.2162 50.9173 19.6397 50.2915L21.0045 48.1287L29.9734 62.3485C30.2872 62.9184 30.515 63.5318 30.6496 64.1682C30.7897 64.8295 30.8413 65.5064 30.8036 66.1813C30.7583 66.9113 30.6235 67.6329 30.4019 68.3301C30.1625 69.0901 29.8385 69.8208 29.436 70.5083C28.9796 71.2901 28.429 72.0132 27.7968 72.6612C27.1969 73.2774 26.5209 73.8146 25.7853 74.2598C25.0686 74.6913 24.2974 75.0251 23.4923 75.2523C21.8656 75.7069 20.1452 75.7069 18.5186 75.2523C17.7134 75.0246 16.9423 74.6903 16.2255 74.2584C15.4891 73.8146 14.8131 73.2777 14.214 72.661C13.5828 72.0106 13.0337 71.2852 12.579 70.5011C12.1771 69.8127 11.8531 69.0816 11.6131 68.3216C11.3937 67.625 11.2599 66.9044 11.2141 66.1755C11.1701 65.4995 11.2172 64.8205 11.354 64.1569C11.483 63.5483 11.6964 62.9607 11.9882 62.4113L17.0864 54.3286C17.3535 53.9057 17.3747 53.3726 17.1421 52.9298C16.9094 52.4871 16.4582 52.2021 15.9585 52.1823C15.4588 52.1624 14.9863 52.4106 14.7193 52.8335L9.58465 60.9933C9.13894 61.8024 8.81495 62.6726 8.62301 63.576C8.43091 64.4857 8.36267 65.4171 8.42009 66.345C8.47783 67.3015 8.6527 68.2474 8.94077 69.1615C9.24228 70.1211 9.65076 71.0439 10.1586 71.9122C10.7276 72.8965 11.4164 73.8064 12.2094 74.6209C12.9765 75.4096 13.8416 76.0965 14.7837 76.6647C15.7144 77.225 16.7157 77.658 17.7612 77.9527C19.8828 78.55 22.1279 78.55 24.2495 77.9527C25.295 77.6582 26.2965 77.2251 27.2269 76.6647C28.1689 76.0963 29.034 75.4095 29.8013 74.6209C30.5931 73.8066 31.281 72.8971 31.8492 71.9137C32.3571 71.0454 32.7656 70.1226 33.0671 69.1629C33.3558 68.2486 33.5317 67.3022 33.5906 66.345C33.6472 65.417 33.5784 64.4857 33.3862 63.576C33.1872 62.6464 32.8488 61.7522 32.3825 60.9234Z"/>
</mask>
<path d="M32.3825 60.9234L22.1888 44.7566C21.9158 44.3737 21.4747 44.1465 21.0045 44.1465C20.5344 44.1465 20.0932 44.3737 19.8203 44.7566L17.2725 48.7993C16.8904 49.4511 17.0945 50.2885 17.7336 50.6914C18.3727 51.0943 19.2162 50.9173 19.6397 50.2915L21.0045 48.1287L29.9734 62.3485C30.2872 62.9184 30.515 63.5318 30.6496 64.1682C30.7897 64.8295 30.8413 65.5064 30.8036 66.1813C30.7583 66.9113 30.6235 67.6329 30.4019 68.3301C30.1625 69.0901 29.8385 69.8208 29.436 70.5083C28.9796 71.2901 28.429 72.0132 27.7968 72.6612C27.1969 73.2774 26.5209 73.8146 25.7853 74.2598C25.0686 74.6913 24.2974 75.0251 23.4923 75.2523C21.8656 75.7069 20.1452 75.7069 18.5186 75.2523C17.7134 75.0246 16.9423 74.6903 16.2255 74.2584C15.4891 73.8146 14.8131 73.2777 14.214 72.661C13.5828 72.0106 13.0337 71.2852 12.579 70.5011C12.1771 69.8127 11.8531 69.0816 11.6131 68.3216C11.3937 67.625 11.2599 66.9044 11.2141 66.1755C11.1701 65.4995 11.2172 64.8205 11.354 64.1569C11.483 63.5483 11.6964 62.9607 11.9882 62.4113L17.0864 54.3286C17.3535 53.9057 17.3747 53.3726 17.1421 52.9298C16.9094 52.4871 16.4582 52.2021 15.9585 52.1823C15.4588 52.1624 14.9863 52.4106 14.7193 52.8335L9.58465 60.9933C9.13894 61.8024 8.81495 62.6726 8.62301 63.576C8.43091 64.4857 8.36267 65.4171 8.42009 66.345C8.47783 67.3015 8.6527 68.2474 8.94077 69.1615C9.24228 70.1211 9.65076 71.0439 10.1586 71.9122C10.7276 72.8965 11.4164 73.8064 12.2094 74.6209C12.9765 75.4096 13.8416 76.0965 14.7837 76.6647C15.7144 77.225 16.7157 77.658 17.7612 77.9527C19.8828 78.55 22.1279 78.55 24.2495 77.9527C25.295 77.6582 26.2965 77.2251 27.2269 76.6647C28.1689 76.0963 29.034 75.4095 29.8013 74.6209C30.5931 73.8066 31.281 72.8971 31.8492 71.9137C32.3571 71.0454 32.7656 70.1226 33.0671 69.1629C33.3558 68.2486 33.5317 67.3022 33.5906 66.345C33.6472 65.417 33.5784 64.4857 33.3862 63.576C33.1872 62.6464 32.8488 61.7522 32.3825 60.9234Z" fill="#8D8D8C" stroke="white" stroke-width="1.2" mask="url(#path-4-inside-4)"/>
<mask id="path-5-inside-5" fill="white">
<path d="M64.3996 15.407C64.3996 14.6338 63.7729 14.0072 62.9998 14.0072C61.4535 14.0072 60.2 12.7537 60.2 11.2074C60.2 10.4343 59.5733 9.80762 58.8002 9.80762C58.027 9.80762 57.4004 10.4343 57.4004 11.2074C57.4004 14.2998 59.9073 16.8068 62.9998 16.8068C63.7729 16.8068 64.3996 16.1801 64.3996 15.407Z"/>
</mask>
<path d="M64.3996 15.407C64.3996 14.6338 63.7729 14.0072 62.9998 14.0072C61.4535 14.0072 60.2 12.7537 60.2 11.2074C60.2 10.4343 59.5733 9.80762 58.8002 9.80762C58.027 9.80762 57.4004 10.4343 57.4004 11.2074C57.4004 14.2998 59.9073 16.8068 62.9998 16.8068C63.7729 16.8068 64.3996 16.1801 64.3996 15.407Z" fill="#8D8D8C" stroke="white" stroke-width="1.2" mask="url(#path-5-inside-5)"/>
<mask id="path-6-inside-6" fill="white">
<path d="M63.0014 8.408C64.5477 8.408 65.8011 9.66147 65.8011 11.2078C65.8011 11.9809 66.4279 12.6076 67.2009 12.6076C67.9741 12.6076 68.6007 11.9809 68.6007 11.2078C68.6007 8.11534 66.0938 5.6084 63.0014 5.6084C62.2282 5.6084 61.6016 6.23505 61.6016 7.0082C61.6016 7.78135 62.2282 8.408 63.0014 8.408Z"/>
</mask>
<path d="M63.0014 8.408C64.5477 8.408 65.8011 9.66147 65.8011 11.2078C65.8011 11.9809 66.4279 12.6076 67.2009 12.6076C67.9741 12.6076 68.6007 11.9809 68.6007 11.2078C68.6007 8.11534 66.0938 5.6084 63.0014 5.6084C62.2282 5.6084 61.6016 6.23505 61.6016 7.0082C61.6016 7.78135 62.2282 8.408 63.0014 8.408Z" fill="#8D8D8C" stroke="white" stroke-width="1.2" mask="url(#path-6-inside-6)"/>
<mask id="path-7-inside-7" fill="white">
<path d="M79.1884 58.0565L66.5183 37.9616C68.1647 36.6361 68.9213 34.4945 68.4729 32.429C68.0246 30.3635 66.4481 28.7283 64.4004 28.2047V22.3099C70.2666 21.5708 74.5476 16.3986 74.1773 10.4976C73.8071 4.59656 68.9131 0 63.0004 0C57.0877 0 52.1937 4.59656 51.8235 10.4976C51.4532 16.3986 55.7342 21.5708 61.6004 22.3099V28.2047C59.5526 28.7283 57.9763 30.3635 57.5278 32.429C57.0795 34.4945 57.8361 36.6361 59.4824 37.9616L46.7773 58.1028C43.9565 63.3358 44.1612 69.6801 47.3134 74.7204C50.4888 80.4138 56.4814 83.9587 63.0002 84C69.5174 83.9596 75.5092 80.4169 78.6856 74.726C81.8456 69.6664 82.0377 63.2975 79.1884 58.0565ZM54.6013 11.2076C54.6013 6.56887 58.3617 2.80846 63.0004 2.80846C67.6391 2.80846 71.3995 6.56887 71.3995 11.2076C71.3995 15.8463 67.6391 19.6067 63.0004 19.6067C58.3636 19.6021 54.6059 15.8443 54.6013 11.2076ZM61.0207 31.6255C61.5458 31.1004 62.2579 30.8055 63.0004 30.8055C64.5467 30.8055 65.8002 32.0589 65.8002 33.6052C65.7952 34.3621 65.4806 35.0841 64.9294 35.6028C63.8487 34.5754 62.1521 34.5754 61.0714 35.6028C60.5202 35.0841 60.2055 34.3621 60.2006 33.6052C60.2006 32.8627 60.4957 32.1506 61.0207 31.6255ZM76.2682 73.3247C73.6217 78.182 68.5325 81.2047 63.001 81.2047C57.4696 81.2047 52.3804 78.182 49.7339 73.3247C47.0945 69.1637 46.8824 63.9089 49.1781 59.5487L63.0002 37.6242L76.7902 59.5026C79.1116 63.8693 78.9123 69.1457 76.2682 73.3247Z"/>
</mask>
<path d="M79.1884 58.0565L66.5183 37.9616C68.1647 36.6361 68.9213 34.4945 68.4729 32.429C68.0246 30.3635 66.4481 28.7283 64.4004 28.2047V22.3099C70.2666 21.5708 74.5476 16.3986 74.1773 10.4976C73.8071 4.59656 68.9131 0 63.0004 0C57.0877 0 52.1937 4.59656 51.8235 10.4976C51.4532 16.3986 55.7342 21.5708 61.6004 22.3099V28.2047C59.5526 28.7283 57.9763 30.3635 57.5278 32.429C57.0795 34.4945 57.8361 36.6361 59.4824 37.9616L46.7773 58.1028C43.9565 63.3358 44.1612 69.6801 47.3134 74.7204C50.4888 80.4138 56.4814 83.9587 63.0002 84C69.5174 83.9596 75.5092 80.4169 78.6856 74.726C81.8456 69.6664 82.0377 63.2975 79.1884 58.0565ZM54.6013 11.2076C54.6013 6.56887 58.3617 2.80846 63.0004 2.80846C67.6391 2.80846 71.3995 6.56887 71.3995 11.2076C71.3995 15.8463 67.6391 19.6067 63.0004 19.6067C58.3636 19.6021 54.6059 15.8443 54.6013 11.2076ZM61.0207 31.6255C61.5458 31.1004 62.2579 30.8055 63.0004 30.8055C64.5467 30.8055 65.8002 32.0589 65.8002 33.6052C65.7952 34.3621 65.4806 35.0841 64.9294 35.6028C63.8487 34.5754 62.1521 34.5754 61.0714 35.6028C60.5202 35.0841 60.2055 34.3621 60.2006 33.6052C60.2006 32.8627 60.4957 32.1506 61.0207 31.6255ZM76.2682 73.3247C73.6217 78.182 68.5325 81.2047 63.001 81.2047C57.4696 81.2047 52.3804 78.182 49.7339 73.3247C47.0945 69.1637 46.8824 63.9089 49.1781 59.5487L63.0002 37.6242L76.7902 59.5026C79.1116 63.8693 78.9123 69.1457 76.2682 73.3247Z" fill="#8D8D8C" stroke="white" stroke-width="1.2" mask="url(#path-7-inside-7)"/>
<mask id="path-8-inside-8" fill="white">
<path d="M74.3785 60.9234L64.1847 44.7566C63.9118 44.3737 63.4706 44.1465 63.0005 44.1465C62.5303 44.1465 62.0892 44.3737 61.8162 44.7566L59.2685 48.7993C58.8864 49.4511 59.0905 50.2885 59.7296 50.6914C60.3687 51.0943 61.2122 50.9173 61.6356 50.2915L63.0005 48.1287L71.9693 62.3485C72.2832 62.9184 72.511 63.5317 72.6455 64.1682C72.7814 64.832 72.8284 65.5108 72.7855 66.1868C72.7402 66.9168 72.6053 67.6385 72.3837 68.3357C72.1444 69.0957 71.8204 69.8263 71.4178 70.5138C70.9654 71.2931 70.4196 72.0142 69.7926 72.6612C69.1927 73.2774 68.5167 73.8146 67.7811 74.2598C67.0644 74.6913 66.2932 75.0251 65.4881 75.2523C63.8614 75.7069 62.1411 75.7069 60.5144 75.2523C59.7092 75.0246 58.9381 74.6903 58.2213 74.2584C57.4849 73.8146 56.8089 73.2777 56.2098 72.661C55.5786 72.0106 55.0295 71.2852 54.5748 70.5011C54.1729 69.8127 53.8489 69.0816 53.6089 68.3215C53.3896 67.625 53.2557 66.9044 53.2099 66.1755C53.166 65.4995 53.213 64.8205 53.3499 64.1569C53.4788 63.5483 53.6922 62.9607 53.9841 62.4113L59.0823 54.3286C59.3493 53.9057 59.3705 53.3726 59.1379 52.9298C58.9053 52.4871 58.454 52.2021 57.9543 52.1823C57.4546 52.1624 56.9821 52.4106 56.7151 52.8335L51.5749 60.9877C51.1292 61.7968 50.8052 62.6671 50.6132 63.5705C50.4211 64.4801 50.3529 65.4115 50.4103 66.3394C50.4681 67.2954 50.6429 68.241 50.931 69.1546C51.2338 70.1169 51.6441 71.0421 52.1545 71.9123C52.7234 72.8966 53.4122 73.8066 54.2052 74.6211C54.9723 75.4098 55.8374 76.0966 56.7796 76.6649C57.7102 77.2251 58.7115 77.6582 59.757 77.9528C61.8786 78.5501 64.1237 78.5501 66.2453 77.9528C67.2908 77.6584 68.2923 77.2253 69.2227 76.6649C70.1647 76.0965 71.0299 75.4096 71.7971 74.6211C72.5889 73.8067 73.2768 72.8973 73.845 71.9138C74.3529 71.0455 74.7614 70.1228 75.0629 69.1631C75.3516 68.2487 75.5275 67.3023 75.5864 66.3451C75.643 65.4171 75.5742 64.4858 75.382 63.5762C75.1832 62.6464 74.8447 61.7522 74.3785 60.9234Z"/>
</mask>
<path d="M74.3785 60.9234L64.1847 44.7566C63.9118 44.3737 63.4706 44.1465 63.0005 44.1465C62.5303 44.1465 62.0892 44.3737 61.8162 44.7566L59.2685 48.7993C58.8864 49.4511 59.0905 50.2885 59.7296 50.6914C60.3687 51.0943 61.2122 50.9173 61.6356 50.2915L63.0005 48.1287L71.9693 62.3485C72.2832 62.9184 72.511 63.5317 72.6455 64.1682C72.7814 64.832 72.8284 65.5108 72.7855 66.1868C72.7402 66.9168 72.6053 67.6385 72.3837 68.3357C72.1444 69.0957 71.8204 69.8263 71.4178 70.5138C70.9654 71.2931 70.4196 72.0142 69.7926 72.6612C69.1927 73.2774 68.5167 73.8146 67.7811 74.2598C67.0644 74.6913 66.2932 75.0251 65.4881 75.2523C63.8614 75.7069 62.1411 75.7069 60.5144 75.2523C59.7092 75.0246 58.9381 74.6903 58.2213 74.2584C57.4849 73.8146 56.8089 73.2777 56.2098 72.661C55.5786 72.0106 55.0295 71.2852 54.5748 70.5011C54.1729 69.8127 53.8489 69.0816 53.6089 68.3215C53.3896 67.625 53.2557 66.9044 53.2099 66.1755C53.166 65.4995 53.213 64.8205 53.3499 64.1569C53.4788 63.5483 53.6922 62.9607 53.9841 62.4113L59.0823 54.3286C59.3493 53.9057 59.3705 53.3726 59.1379 52.9298C58.9053 52.4871 58.454 52.2021 57.9543 52.1823C57.4546 52.1624 56.9821 52.4106 56.7151 52.8335L51.5749 60.9877C51.1292 61.7968 50.8052 62.6671 50.6132 63.5705C50.4211 64.4801 50.3529 65.4115 50.4103 66.3394C50.4681 67.2954 50.6429 68.241 50.931 69.1546C51.2338 70.1169 51.6441 71.0421 52.1545 71.9123C52.7234 72.8966 53.4122 73.8066 54.2052 74.6211C54.9723 75.4098 55.8374 76.0966 56.7796 76.6649C57.7102 77.2251 58.7115 77.6582 59.757 77.9528C61.8786 78.5501 64.1237 78.5501 66.2453 77.9528C67.2908 77.6584 68.2923 77.2253 69.2227 76.6649C70.1647 76.0965 71.0299 75.4096 71.7971 74.6211C72.5889 73.8067 73.2768 72.8973 73.845 71.9138C74.3529 71.0455 74.7614 70.1228 75.0629 69.1631C75.3516 68.2487 75.5275 67.3023 75.5864 66.3451C75.643 65.4171 75.5742 64.4858 75.382 63.5762C75.1832 62.6464 74.8447 61.7522 74.3785 60.9234Z" fill="#8D8D8C" stroke="white" stroke-width="1.2" mask="url(#path-8-inside-8)"/>
</svg>
