<svg width="32" height="32" viewBox="0 0 32 32" fill="none" xmlns="http://www.w3.org/2000/svg">
<path d="M16 30.2197C16.4556 30.2197 16.8948 30.0547 17.2371 29.7549C18.5298 28.6245 19.7761 27.5623 20.8758 26.6252L20.8814 26.6204C24.1052 23.873 26.8892 21.5005 28.8262 19.1633C30.9915 16.5505 32 14.0732 32 11.3669C32 8.73755 31.0984 6.31177 29.4614 4.53613C27.8049 2.7395 25.532 1.75 23.0606 1.75C21.2134 1.75 19.5218 2.33398 18.0327 3.4856C17.2813 4.06689 16.6001 4.77832 16 5.60815C15.3997 4.77832 14.7188 4.06689 13.9671 3.4856C12.4781 2.33398 10.7864 1.75 8.93925 1.75C6.46807 1.75 4.19488 2.7395 2.53839 4.53613C0.901427 6.31177 6.10352e-05 8.73755 6.10352e-05 11.3669C6.10352e-05 14.0732 1.00836 16.5505 3.17364 19.1631C5.11065 21.5005 7.89433 23.8728 11.1177 26.6199C12.2193 27.5583 13.4676 28.6223 14.7632 29.7554C15.1053 30.0547 15.5447 30.2197 16 30.2197V30.2197ZM23.0606 3.62451C25.0022 3.62451 26.7859 4.39941 28.0835 5.80664C29.4004 7.23511 30.1257 9.20972 30.1257 11.3669C30.1257 13.6431 29.2798 15.6787 27.3831 17.9673C25.5498 20.1794 22.823 22.5032 19.6658 25.1938L19.6599 25.1987C18.5562 26.1394 17.305 27.2058 16.0027 28.3445C14.6927 27.2036 13.4395 26.1355 12.3335 25.1934C9.17656 22.5027 6.45 20.1794 4.61675 17.9673C2.72027 15.6787 1.87433 13.6431 1.87433 11.3669C1.87433 9.20972 2.59967 7.23511 3.91656 5.80664C5.21392 4.39941 6.99785 3.62451 8.93925 3.62451C10.3616 3.62451 11.6675 4.07666 12.8206 4.96826C13.8482 5.76318 14.564 6.76807 14.9837 7.47119C15.1995 7.83276 15.5794 8.04858 16 8.04858C16.4207 8.04858 16.8006 7.83276 17.0164 7.47119C17.4358 6.76807 18.1516 5.76318 19.1795 4.96826C20.3325 4.07666 21.6384 3.62451 23.0606 3.62451V3.62451Z" fill="#1C1B1A"/>
</svg>
