<svg width="26" height="26" viewBox="0 0 26 26" fill="none" xmlns="http://www.w3.org/2000/svg">
<circle cx="13" cy="13" r="13" fill="#F63C3C"/>
<path d="M9.33559 18H14.0336C15.0056 18 16.3016 18.018 16.9136 18.072V16.056C16.3556 16.11 15.4556 16.164 14.4116 16.164H12.3416C13.2236 15.246 13.9976 14.436 14.8436 13.338C15.9956 11.844 16.4996 10.8 16.4996 9.594C16.5176 7.362 15.0416 5.778 12.6836 5.778C11.1716 5.778 10.3796 6.354 9.56959 6.516V9C10.0736 8.208 11.0096 7.668 12.1076 7.668C13.3496 7.668 14.2676 8.586 14.2676 9.918C14.2676 10.782 14.0156 11.484 13.0616 12.762C11.6936 14.67 10.5776 15.804 9.33559 17.028V18Z" fill="white"/>
</svg>
