<svg width="82" height="82" viewBox="0 0 82 82" fill="none" xmlns="http://www.w3.org/2000/svg">
<path fill-rule="evenodd" clip-rule="evenodd" d="M82 40.9998L81.9939 40.9999L81.9754 41.0002L81.9447 41.0009L81.9017 41.0025L81.8465 41.005L81.7791 41.0087L81.6995 41.0139L81.6079 41.0208L81.5042 41.0296L81.3886 41.0406L81.2611 41.0541L81.1218 41.0702L80.9708 41.0892L80.8083 41.1112L80.6343 41.1367L80.4489 41.1656L80.2524 41.1984L80.0447 41.2351L79.8261 41.276L79.5967 41.3213L79.3567 41.3713L79.1063 41.426L78.8455 41.4856L78.5746 41.5505L78.2939 41.6207L78.0033 41.6965L77.7033 41.7779L77.3939 41.8652L77.0755 41.9585L76.7481 42.058L76.412 42.1638L76.0676 42.2761L75.7149 42.3949L75.3542 42.5205L74.9858 42.6529L74.6099 42.7922L74.2268 42.9386L73.8368 43.0922L73.44 43.253L73.0368 43.4211L72.6274 43.5966L72.2121 43.7796L71.7912 43.9701L71.3649 44.1682L70.9335 44.3739L70.4974 44.5873L70.0568 44.8083L69.6119 45.0371L69.1631 45.2736L68.7107 45.5179L68.2549 45.7698L67.7961 46.0295L67.3345 46.2969L66.8704 46.572L66.4041 46.8546L65.9359 47.1449L65.4662 47.4427L64.9951 47.748L64.523 48.0607L64.0502 48.3807L63.577 48.708L63.1035 49.0424L62.6303 49.3839L62.1574 49.7323L61.6852 50.0875L61.214 50.4495L60.744 50.818L60.2755 51.193L59.8088 51.5743L59.3442 51.9617L58.8818 52.3551L58.4221 52.7543L57.9651 53.1591L57.5112 53.5695L57.0606 53.985L56.6136 54.4057L56.1703 54.8313L55.731 55.2615L55.296 55.6962L54.8654 56.1351L54.4395 56.5781L54.0184 57.0248L53.6024 57.4752L53.1917 57.9288L52.7864 58.3855L52.3867 58.8451L51.9929 59.3072L51.605 59.7717L51.2232 60.2383L50.8477 60.7066L50.4787 61.1765L50.1162 61.6476L49.7604 62.1197L49.4114 62.5926L49.0694 63.0658L48.7344 63.5392L48.4065 64.0125L48.0859 64.4854L47.7727 64.9576L47.4668 65.4287L47.1684 65.8986L46.8775 66.3669L46.5942 66.8333L46.3186 67.2976L46.0506 67.7594L45.7903 68.2185L45.5377 68.6745L45.2929 69.1272L45.0557 69.5763L44.8263 70.0215L44.6047 70.4625L44.3907 70.899L44.1843 71.3307L43.9856 71.7574L43.7945 72.1788L43.6109 72.5945L43.4348 73.0044L43.2661 73.4081L43.1048 73.8054L42.9507 74.196L42.8037 74.5797L42.6638 74.9562L42.5308 75.3252L42.4047 75.6864L42.2854 76.0398L42.1726 76.3849L42.0663 76.7217L41.9663 77.0497L41.8725 77.3689L41.7847 77.679L41.7028 77.9798L41.6266 78.2711L41.556 78.5527L41.4907 78.8243L41.4306 79.0859L41.3755 79.3372L41.3252 79.578L41.2795 79.8083L41.2383 80.0277L41.2012 80.2363L41.1682 80.4337L41.1389 80.62L41.1132 80.7949L41.0909 80.9584L41.0717 81.1102L41.0553 81.2505L41.0417 81.3789L41.0305 81.4955L41.0215 81.6001L41.0144 81.6927L41.0091 81.7732L41.0053 81.8416L41.0027 81.8978L41.0011 81.9417L41.0003 81.9734L41 81.9929L40.9999 82L40.9999 81.9948L40.9996 81.9774L40.9989 81.9476L40.9975 81.9056L40.995 81.8514L40.9914 81.7849L40.9864 81.7063L40.9796 81.6156L40.9709 81.5129L40.9601 81.3983L40.9468 81.2717L40.931 81.1334L40.9122 80.9833L40.8904 80.8217L40.8652 80.6486L40.8366 80.4641L40.8041 80.2684L40.7677 80.0617L40.7272 79.8439L40.6822 79.6154L40.6327 79.3763L40.5783 79.1266L40.5191 78.8667L40.4546 78.5966L40.3848 78.3166L40.3095 78.0269L40.2286 77.7276L40.1417 77.4189L40.0489 77.1012L39.9499 76.7745L39.8446 76.4391L39.7329 76.0953L39.6146 75.7433L39.4895 75.3832L39.3577 75.0154L39.2189 74.6401L39.0731 74.2576L38.9201 73.8681L38.7599 73.4718L38.5924 73.0691L38.4174 72.6602L38.2351 72.2454L38.0451 71.8249L37.8477 71.399L37.6426 70.9681L37.4298 70.5323L37.2093 70.092L36.9812 69.6475L36.7453 69.199L36.5016 68.7468L36.2503 68.2913L35.9912 67.8327L35.7244 67.3713L35.45 66.9074L35.1679 66.4413L34.8783 65.9733L34.5811 65.5036L34.2764 65.0327L33.9643 64.5606L33.6448 64.0879L33.3181 63.6146L32.9843 63.1412L32.6434 62.6679L32.2955 62.195L31.9408 61.7227L31.5794 61.2514L31.2113 60.7813L30.8369 60.3127L30.4561 59.8459L30.0692 59.3811L29.6763 58.9185L29.2775 58.4585L28.8731 58.0013L28.4632 57.5472L28.048 57.0963L27.6278 56.649L27.2026 56.2054L26.7727 55.7658L26.3384 55.3304L25.8998 54.8995L25.4571 54.4732L25.0107 54.0517L24.5606 53.6353L24.1072 53.2241L23.6508 52.8184L23.1914 52.4183L22.7295 52.0239L22.2652 51.6356L21.7988 51.2533L21.3306 50.8773L20.8608 50.5077L20.3898 50.1447L19.9177 49.7884L19.4449 49.4389L18.9717 49.0963L18.4983 48.7607L18.025 48.4323L17.5521 48.1112L17.0798 47.7973L16.6086 47.4908L16.1386 47.1918L15.6702 46.9004L15.2036 46.6165L14.7391 46.3402L14.2771 46.0716L13.8178 45.8107L13.3615 45.5575L12.9085 45.312L12.4592 45.0743L12.0136 44.8443L11.5723 44.622L11.1354 44.4074L10.7033 44.2004L10.2762 44.0011L9.85442 43.8094L9.43821 43.6252L9.02786 43.4485L8.62365 43.2792L8.22583 43.1173L7.83468 42.9626L7.45045 42.8151L7.07341 42.6746L6.70381 42.5411L6.3419 42.4145L5.98792 42.2945L5.6421 42.1812L5.3047 42.0744L4.97593 41.9739L4.65602 41.8796L4.34519 41.7914L4.04365 41.709L3.75161 41.6324L3.46926 41.5613L3.1968 41.4956L2.93443 41.4351L2.68231 41.3796L2.44063 41.329L2.20955 41.2829L1.98923 41.2413L1.77982 41.204L1.58147 41.1706L1.39432 41.141L1.21849 41.1151L1.05411 41.0925L0.901301 41.073L0.760157 41.0565L0.630781 41.0426L0.513263 41.0312L0.407686 41.022L0.314122 41.0148L0.232638 41.0094L0.163291 41.0055L0.106129 41.0028L0.0611913 41.0011L0.0285102 41.0003L0.00810833 40.9999L0 40.9998L0.00419086 40.9998L0.020678 40.9996L0.0494498 40.9989L0.0904863 40.9975L0.143759 40.9952L0.20923 40.9917L0.286853 40.9867L0.376576 40.9801L0.478334 40.9716L0.592057 40.961L0.717665 40.9479L0.855071 40.9323L1.00418 40.9137L1.16488 40.8922L1.33708 40.8673L1.52063 40.8389L1.71543 40.8068L1.92133 40.7707L2.13819 40.7305L2.36586 40.6859L2.60419 40.6367L2.853 40.5828L3.11213 40.5239L3.38139 40.4599L3.66061 40.3905L3.94958 40.3157L4.24812 40.2351L4.55602 40.1488L4.87306 40.0564L5.19903 39.958L5.53371 39.8532L5.87687 39.7419L6.22827 39.6242L6.58768 39.4997L6.95486 39.3684L7.32956 39.2301L7.71152 39.0849L8.1005 38.9325L8.49622 38.7728L8.89843 38.6059L9.30686 38.4316L9.72123 38.2498L10.1413 38.0605L10.5667 37.8636L10.9973 37.6591L11.4327 37.4469L11.8726 37.2271L12.3168 36.9995L12.765 36.7642L13.2169 36.5212L13.6721 36.2705L14.1305 36.012L14.5917 35.7459L15.0554 35.472L15.5213 35.1906L15.9892 34.9015L16.4587 34.6049L16.9296 34.3008L17.4016 33.9893L17.8743 33.6704L18.3475 33.3443L18.8209 33.011L19.2942 32.6707L19.7672 32.3234L20.2395 31.9692L20.7109 31.6083L21.1811 31.2408L21.6498 30.8668L22.1168 30.4865L22.5818 30.1001L23.0445 29.7076L23.5047 29.3094L23.9622 28.9054L24.4166 28.4959L24.8677 28.0812L25.3153 27.6613L25.7592 27.2365L26.1991 26.807L26.6349 26.373L27.0662 25.9348L27.4929 25.4924L27.9147 25.0462L28.3315 24.5965L28.7431 24.1433L29.1493 23.6871L29.5499 23.228L29.9447 22.7662L30.3335 22.3021L30.7163 21.8359L31.0928 21.3678L31.4628 20.8981L31.8264 20.4272L32.1833 19.9552L32.5333 19.4825L32.8765 19.0093L33.2126 18.5358L33.5416 18.0625L33.8633 17.5896L34.1778 17.1173L34.4848 16.6459L34.7844 16.1758L35.0765 15.7073L35.361 15.2405L35.6379 14.7759L35.9071 14.3137L36.1686 13.8541L36.4224 13.3976L36.6685 12.9443L36.9069 12.4946L37.1375 12.0488L37.3604 11.6071L37.5756 11.1699L37.7832 10.7374L37.9831 10.3099L38.1754 9.88764L38.3602 9.47098L38.5374 9.06015L38.7073 8.65543L38.8699 8.2571L39.0251 7.8654L39.1732 7.48061L39.3142 7.10299L39.4483 6.73279L39.5755 6.37025L39.6959 6.01563L39.8097 5.66916L39.9171 5.33108L40.0181 5.00161L40.1128 4.68099L40.2016 4.36942L40.2844 4.06713L40.3615 3.77432L40.433 3.4912L40.4991 3.21795L40.56 2.95476L40.6159 2.70182L40.6669 2.4593L40.7133 2.22737L40.7553 2.00618L40.793 1.7959L40.8267 1.59667L40.8565 1.40862L40.8828 1.23188L40.9056 1.06659L40.9253 0.912851L40.9421 0.770774L40.9561 0.640457L40.9677 0.521991L40.9771 0.41546L40.9844 0.320937L40.99 0.238489L40.994 0.168173L40.9968 0.110039L40.9985 0.0641262L40.9995 0.030468L40.9998 0.00908764L40.9999 0L40.9999 0.00321145L41.0001 0.0187197L41.0008 0.046514L41.0021 0.0865749L41.0043 0.138874L41.0077 0.203375L41.0126 0.280034L41.019 0.368795L41.0274 0.469597L41.0379 0.582371L41.0507 0.707036L41.0662 0.843506L41.0844 0.991686L41.1058 1.15147L41.1304 1.32275L41.1585 1.50541L41.1903 1.69932L41.226 1.90434L41.2659 2.12034L41.3102 2.34715L41.359 2.58463L41.4125 2.83262L41.471 3.09093L41.5346 3.3594L41.6035 3.63783L41.6779 3.92604L41.758 4.22382L41.8439 4.53098L41.9357 4.8473L42.0337 5.17257L42.138 5.50656L42.2487 5.84906L42.366 6.19981L42.4899 6.5586L42.6207 6.92517L42.7584 7.29928L42.9031 7.68068L43.0549 8.0691L43.214 8.4643L43.3803 8.866L43.554 9.27394L43.7352 9.68785L43.9239 10.1075L44.1202 10.5325L44.3241 10.9626L44.5357 11.3977L44.7549 11.8372L44.9818 12.2811L45.2165 12.729L45.4589 13.1806L45.709 13.6356L45.9669 14.0937L46.2324 14.5547L46.5056 15.0182L46.7865 15.484L47.0749 15.9517L47.3709 16.4212L47.6744 16.8919L47.9854 17.3638L48.3036 17.8365L48.6292 18.3097L48.9619 18.7831L49.3017 19.2564L49.6485 19.7294L50.0021 20.2018L50.3625 20.6733L50.7294 21.1436L51.1029 21.6124L51.4827 22.0796L51.8686 22.5447L52.2606 23.0076L52.6585 23.4681L53.062 23.9257L53.471 24.3804L53.8853 24.8318L54.3048 25.2797L54.7292 25.7239L55.1583 26.1641L55.592 26.6002L56.0299 27.0319L56.4719 27.4589L56.9178 27.8812L57.3673 28.2984L57.8202 28.7104L58.2762 29.117L58.7351 29.5181L59.1967 29.9133L59.6606 30.3027L60.1267 30.6859L60.5946 31.0629L61.0641 31.4335L61.535 31.7976L62.0069 32.155L62.4796 32.5056L62.9528 32.8493L63.4262 33.186L63.8995 33.5155L64.3725 33.8379L64.8448 34.1529L65.3163 34.4605L65.7865 34.7607L66.2552 35.0534L66.7221 35.3385L67.1869 35.616L67.6493 35.8858L68.1091 36.148L68.5659 36.4024L69.0194 36.6491L69.4694 36.8881L69.9155 37.1193L70.3575 37.3428L70.7951 37.5587L71.228 37.7668L71.656 37.9673L72.0786 38.1603L72.4957 38.3456L72.907 38.5235L73.3122 38.694L73.7111 38.8571L74.1033 39.0129L74.4887 39.1616L74.8669 39.3032L75.2377 39.4378L75.6008 39.5655L75.9561 39.6865L76.3032 39.8008L76.642 39.9087L76.9721 40.0102L77.2935 40.1054L77.6058 40.1946L77.9088 40.2779L78.2024 40.3554L78.4863 40.4274L78.7603 40.4939L79.0243 40.5553L79.2781 40.6115L79.5214 40.663L79.7542 40.7097L79.9762 40.752L80.1874 40.79L80.3875 40.824L80.5765 40.8542L80.7541 40.8807L80.9203 40.9038L81.075 40.9238L81.218 40.9408L81.3493 40.955L81.4687 40.9668L81.5761 40.9763L81.6716 40.9838L81.755 40.9895L81.8263 40.9937L81.8854 40.9965L81.9323 40.9983L81.9669 40.9993L81.9893 40.9997L81.9994 40.9998L82 40.9998Z" fill="#E7793B"/>
</svg>
