<svg width="40" height="40" viewBox="0 0 40 40" fill="none" xmlns="http://www.w3.org/2000/svg">
<path d="M0 0V40H40V0H0ZM29.1768 22.2896L32.6507 26.2813C33.0947 26.7916 32.7323 27.5876 32.0558 27.5876H28.1355C27.5161 27.5876 26.9194 27.353 26.4657 26.9312L25.3048 25.8517C23.9947 24.7055 23.4379 24.3123 22.9139 24.3123C22.3899 24.3123 22.2588 24.7053 22.2588 25.7207C22.2588 26.7359 22.0623 27.5876 19.0491 27.5876C16.036 27.5876 13.6778 25.3277 11.025 21.8233C8.37213 18.3189 7.19307 14.5525 7.19307 14.5525C7.04669 14.081 7.39911 13.6027 7.89279 13.6027H11.0299C11.6266 13.6027 12.1701 13.9475 12.4203 14.4892C12.6771 15.0451 13.1189 15.9031 13.8745 17.1725C14.9467 18.9738 15.9768 19.7853 16.5603 20.1308C16.7776 20.2595 17.0515 20.1005 17.0515 19.8479V15.5273C17.0515 14.9619 16.8473 14.4156 16.4762 13.989L16.034 13.4805C15.9196 13.349 16.0131 13.1441 16.1873 13.1441H21.1454C21.9051 13.1441 22.5209 13.7599 22.5209 14.5196V19.5443C22.5209 19.868 22.9411 19.9946 23.1199 19.725L26.6884 14.3469C26.9698 13.9229 27.4449 13.6679 27.9535 13.6679H32.1425C32.715 13.6679 33.0631 14.2984 32.7583 14.7831L29.0517 20.6744C28.7327 21.1816 28.7835 21.8377 29.1768 22.2896Z" fill="#1C1B1A"/>
</svg>
